<svg width="82" height="84" viewBox="0 0 82 84" fill="none" xmlns="http://www.w3.org/2000/svg">
<rect y="0.925293" width="82" height="83" rx="41" fill="#FAFCFF"/>
<path d="M51.5005 50.2378C51.2205 50.2378 50.958 50.1503 50.713 49.9753C50.1355 49.5378 50.013 48.7153 50.4505 48.1378C53.198 44.4803 53.198 39.3703 50.4505 35.7128C50.013 35.1353 50.1355 34.3128 50.713 33.8753C51.2905 33.4378 52.113 33.5603 52.5505 34.1378C55.9805 38.7228 55.9805 45.1278 52.5505 49.7128C52.288 50.0628 51.903 50.2378 51.5005 50.2378Z" fill="#1877F2"/>
<path d="M54.7017 54.6128C54.4217 54.6128 54.1591 54.5253 53.9141 54.3503C53.3366 53.9128 53.2141 53.0903 53.6516 52.5128C58.3241 46.2828 58.3241 37.5678 53.6516 31.3378C53.2141 30.7603 53.3366 29.9378 53.9141 29.5003C54.4916 29.0628 55.3142 29.1853 55.7517 29.7628C61.1241 36.9203 61.1241 46.9303 55.7517 54.0878C55.5067 54.4378 55.1042 54.6128 54.7017 54.6128Z" fill="#1877F2"/>
<path d="M44.535 27.5403C42.575 26.4553 40.0725 26.7353 37.5175 28.3278L32.4075 31.5303C32.0575 31.7403 31.655 31.8628 31.2525 31.8628H29.625H28.75C24.515 31.8628 22.1875 34.1903 22.1875 38.4253V45.4253C22.1875 49.6603 24.515 51.9878 28.75 51.9878H29.625H31.2525C31.655 51.9878 32.0575 52.1103 32.4075 52.3203L37.5175 55.5228C39.0575 56.4853 40.5625 56.9578 41.9625 56.9578C42.8725 56.9578 43.7475 56.7478 44.535 56.3103C46.4775 55.2253 47.5625 52.9678 47.5625 49.9578V33.8928C47.5625 30.8828 46.4775 28.6253 44.535 27.5403Z" fill="#1877F2"/>
</svg>
