<svg width="84" height="28" viewBox="0 0 84 28" fill="none" xmlns="http://www.w3.org/2000/svg">
<g filter="url(#filter0_b_6449_29644)">
<path d="M0.783203 0H83.5193C77.5193 16.5 58.7942 27.5 42.2942 27C18.795 27.5 5.5 11 0.783203 0Z" fill="#E2E2E2"/>
<rect width="18" height="18" transform="translate(33 5)" fill="#E2E2E2"/>
<path d="M42.9445 7.69992L36.787 14.2174C36.5545 14.4649 36.3295 14.9524 36.2845 15.2899L36.007 17.7199C35.9095 18.5974 36.5395 19.1974 37.4095 19.0474L39.8245 18.6349C40.162 18.5749 40.6345 18.3274 40.867 18.0724L47.0245 11.5549C48.0895 10.4299 48.5695 9.14742 46.912 7.57992C45.262 6.02742 44.0095 6.57492 42.9445 7.69992Z" stroke="white" stroke-width="1.5" stroke-miterlimit="10" stroke-linecap="round" stroke-linejoin="round"/>
<path d="M41.918 8.7876C42.2405 10.8576 43.9205 12.4401 46.0055 12.6501" stroke="white" stroke-width="1.5" stroke-miterlimit="10" stroke-linecap="round" stroke-linejoin="round"/>
<path d="M35.25 21.5H48.75" stroke="white" stroke-width="1.5" stroke-miterlimit="10" stroke-linecap="round" stroke-linejoin="round"/>
</g>
<defs>
<filter id="filter0_b_6449_29644" x="-3.2168" y="-4" width="90.7363" height="35.0164" filterUnits="userSpaceOnUse" color-interpolation-filters="sRGB">
<feFlood flood-opacity="0" result="BackgroundImageFix"/>
<feGaussianBlur in="BackgroundImageFix" stdDeviation="2"/>
<feComposite in2="SourceAlpha" operator="in" result="effect1_backgroundBlur_6449_29644"/>
<feBlend mode="normal" in="SourceGraphic" in2="effect1_backgroundBlur_6449_29644" result="shape"/>
</filter>
</defs>
</svg>
