<svg width="20" height="20" viewBox="0 0 20 20" fill="none" xmlns="http://www.w3.org/2000/svg">
<path d="M9.18866 0.1425L4.03867 5.29248C3.83867 5.49248 3.83867 5.80248 4.03867 6.00248L5.76868 7.73248C5.96868 7.93248 6.27867 7.93248 6.47867 7.73248L11.6287 2.5825C11.8287 2.3825 11.8287 2.0725 11.6287 1.8725L9.89866 0.1425C9.69866 -0.0475 9.38866 -0.0475 9.18866 0.1425Z" fill="white"/>
<path d="M13.0887 4.05234L4.03867 13.1024C3.83867 13.3024 3.83867 13.6124 4.03867 13.8124L5.76868 15.5424C5.96868 15.7424 6.27867 15.7424 6.47867 15.5424L15.5287 6.49238C15.7287 6.29238 15.7287 5.98238 15.5287 5.78238L13.7987 4.05234C13.6087 3.85234 13.2887 3.85234 13.0887 4.05234Z" fill="white"/>
<path d="M16.9989 7.95225L7.94885 17.0022C7.74882 17.2022 7.74882 17.5122 7.94885 17.7122L9.67885 19.4422C9.87885 19.6422 10.1889 19.6422 10.3889 19.4422L19.4389 10.3922C19.6389 10.1922 19.6389 9.88225 19.4389 9.68225L17.7089 7.95225C17.5089 7.75225 17.1889 7.75225 16.9989 7.95225Z" fill="white"/>
<path d="M1.88001 11.6325L0.15 9.9025C-0.05 9.7025 -0.05 9.3925 0.15 9.1925L1.88001 7.4625C2.08001 7.2625 2.39 7.2625 2.59 7.4625L4.32001 9.1925C4.52001 9.3925 4.52001 9.7025 4.32001 9.9025L2.59 11.6325C2.39 11.8325 2.07001 11.8325 1.88001 11.6325Z" fill="white"/>
</svg>
