<svg width="25" height="24" viewBox="0 0 25 24" fill="none" xmlns="http://www.w3.org/2000/svg">
<path d="M23.9384 9.715H22.9987V9.66658H12.4987V14.3333H19.0921C18.1302 17.0498 15.5454 18.9999 12.4987 18.9999C8.63295 18.9999 5.4987 15.8657 5.4987 11.9999C5.4987 8.13417 8.63295 4.99992 12.4987 4.99992C14.2831 4.99992 15.9065 5.67308 17.1426 6.77267L20.4425 3.47275C18.3589 1.53084 15.5717 0.333252 12.4987 0.333252C6.05578 0.333252 0.832031 5.557 0.832031 11.9999C0.832031 18.4428 6.05578 23.6666 12.4987 23.6666C18.9416 23.6666 24.1654 18.4428 24.1654 11.9999C24.1654 11.2177 24.0849 10.4541 23.9384 9.715Z" fill="#FFC107"/>
<path d="M2.17969 6.56967L6.01277 9.38075C7.04994 6.81292 9.56177 4.99992 12.5012 4.99992C14.2856 4.99992 15.909 5.67309 17.1451 6.77267L20.445 3.47275C18.3614 1.53084 15.5742 0.333252 12.5012 0.333252C8.02002 0.333252 4.13385 2.86317 2.17969 6.56967Z" fill="#FF3D00"/>
<path d="M12.4995 23.6666C15.513 23.6666 18.2512 22.5133 20.3214 20.6379L16.7106 17.5824C15.4999 18.5031 14.0205 19.0011 12.4995 18.9999C9.46503 18.9999 6.88845 17.065 5.91778 14.3647L2.11328 17.296C4.04411 21.0742 7.96528 23.6666 12.4995 23.6666Z" fill="#4CAF50"/>
<path d="M23.9397 9.71516H23V9.66675H12.5V14.3334H19.0934C18.6333 15.6263 17.8045 16.7561 16.7093 17.5832L16.7111 17.582L20.3219 20.6375C20.0664 20.8697 24.1667 17.8334 24.1667 12.0001C24.1667 11.2178 24.0862 10.4542 23.9397 9.71516Z" fill="#1976D2"/>
</svg>
