<svg width="27" height="27" viewBox="0 0 27 27" fill="none" xmlns="http://www.w3.org/2000/svg">
<path d="M19.2419 0.561802L6.44938 4.8118C-2.14979 7.68764 -2.14979 12.3768 6.44938 15.2385L10.246 16.4993L11.5069 20.296C14.3685 28.8951 19.0719 28.8951 21.9335 20.296L26.1977 7.51764C28.096 1.78014 24.9794 -1.3507 19.2419 0.561802ZM19.6952 8.18347L14.3119 13.5951C14.0994 13.8076 13.8302 13.9068 13.561 13.9068C13.2919 13.9068 13.0227 13.8076 12.8102 13.5951C12.3994 13.1843 12.3994 12.5043 12.8102 12.0935L18.1935 6.6818C18.6044 6.27097 19.2844 6.27097 19.6952 6.6818C20.106 7.09264 20.106 7.77264 19.6952 8.18347Z" fill="#002E3E"/>
</svg>
