<svg width="83" height="84" viewBox="0 0 83 84" fill="none" xmlns="http://www.w3.org/2000/svg">
<rect x="0.5" y="0.925293" width="82" height="83" rx="41" fill="#FEF2F4"/>
<path d="M49.27 26.3503C46.1025 26.3503 43.2675 27.8903 41.5 30.2528C39.7325 27.8903 36.8975 26.3503 33.73 26.3503C28.3575 26.3503 24 30.7253 24 36.1328C24 38.2153 24.3325 40.1403 24.91 41.9253C27.675 50.6753 36.1975 55.9078 40.415 57.3428C41.01 57.5528 41.99 57.5528 42.585 57.3428C46.8025 55.9078 55.325 50.6753 58.09 41.9253C58.6675 40.1403 59 38.2153 59 36.1328C59 30.7253 54.6425 26.3503 49.27 26.3503Z" fill="#FF4365"/>
</svg>
