<svg width="500" height="372" viewBox="0 0 500 372" fill="none" xmlns="http://www.w3.org/2000/svg">
<g clip-path="url(#clip0_6406_23188)">
<mask id="mask0_6406_23188" style="mask-type:luminance" maskUnits="userSpaceOnUse" x="0" y="0" width="500" height="372">
<path d="M500 0H0V372H500V0Z" fill="white"/>
</mask>
<g mask="url(#mask0_6406_23188)">
<path d="M449.899 343.49H416.779V343.74H449.899V343.49Z" fill="#EBEBEB"/>
<path d="M331.219 346.211H322.529V346.461H331.219V346.211Z" fill="#EBEBEB"/>
<path d="M415.78 334.211H396.59V334.461H415.78V334.211Z" fill="#EBEBEB"/>
<path d="M95.6509 335.891H52.4609V336.141H95.6509V335.891Z" fill="#EBEBEB"/>
<path d="M110.891 335.891H104.561V336.141H110.891V335.891Z" fill="#EBEBEB"/>
<path d="M225.151 340.109H131.471V340.359H225.151V340.109Z" fill="#EBEBEB"/>
<path d="M238.4 282.8H45.2998C43.7855 282.8 42.3331 282.198 41.2623 281.128C40.1914 280.057 39.5898 278.604 39.5898 277.09V5.66C39.603 4.15429 40.2104 2.71475 41.2798 1.65471C42.3492 0.594662 43.7941 -5.77259e-05 45.2998 4.20255e-09H238.4C239.15 4.20255e-09 239.892 0.147692 240.585 0.434647C241.278 0.721601 241.907 1.1422 242.437 1.67242C242.968 2.20264 243.388 2.83211 243.675 3.52488C243.962 4.21765 244.11 4.96015 244.11 5.71V277.09C244.11 277.84 243.962 278.582 243.675 279.275C243.388 279.968 242.968 280.597 242.437 281.128C241.907 281.658 241.278 282.078 240.585 282.365C239.892 282.652 239.15 282.8 238.4 282.8ZM45.2998 0.200001C43.8526 0.202644 42.4653 0.77874 41.442 1.80212C40.4186 2.82549 39.8425 4.21273 39.8398 5.66V277.09C39.8425 278.537 40.4186 279.924 41.442 280.948C42.4653 281.971 43.8526 282.547 45.2998 282.55H238.4C239.847 282.547 241.234 281.971 242.258 280.948C243.281 279.924 243.857 278.537 243.86 277.09V5.66C243.857 4.21273 243.281 2.82549 242.258 1.80212C241.234 0.77874 239.847 0.202644 238.4 0.200001H45.2998Z" fill="#EBEBEB"/>
<path d="M454.701 282.8H261.601C260.087 282.8 258.634 282.198 257.564 281.128C256.493 280.057 255.891 278.604 255.891 277.09V5.66C255.904 4.15429 256.512 2.71475 257.581 1.65471C258.651 0.594662 260.095 -5.77259e-05 261.601 4.20255e-09H454.701C456.216 4.20256e-09 457.668 0.601588 458.739 1.67242C459.81 2.74325 460.411 4.19561 460.411 5.71V277.09C460.411 278.604 459.81 280.057 458.739 281.128C457.668 282.198 456.216 282.8 454.701 282.8ZM261.601 0.200001C260.154 0.202644 258.767 0.77874 257.743 1.80212C256.72 2.82549 256.144 4.21273 256.141 5.66V277.09C256.144 278.537 256.72 279.924 257.743 280.948C258.767 281.971 260.154 282.547 261.601 282.55H454.701C456.148 282.547 457.536 281.971 458.559 280.948C459.582 279.924 460.158 278.537 460.161 277.09V5.66C460.158 4.21273 459.582 2.82549 458.559 1.80212C457.536 0.77874 456.148 0.202644 454.701 0.200001H261.601Z" fill="#EBEBEB"/>
<path d="M500 327.4H0V327.65H500V327.4Z" fill="#EBEBEB"/>
<path d="M350.07 321.59H445.25V194.94H350.07V321.59Z" fill="#F5F5F5"/>
<path d="M331.91 321.59H350.07V194.94H331.91V321.59Z" fill="#E6E6E6"/>
<path d="M356.25 235.1H438.58V204.34H356.25V235.1Z" fill="#FAFAFA"/>
<path d="M408.15 204.34L407.79 208.44C407.735 209.093 407.436 209.702 406.952 210.145C406.469 210.588 405.836 210.832 405.18 210.83H389.65C388.994 210.832 388.362 210.588 387.878 210.145C387.395 209.702 387.095 209.093 387.04 208.44L386.68 204.34H408.15Z" fill="#EBEBEB"/>
<path d="M356.25 269.211H438.58V238.451H356.25V269.211Z" fill="#FAFAFA"/>
<path d="M408.15 238.461L407.79 242.561C407.733 243.213 407.433 243.821 406.95 244.263C406.467 244.706 405.835 244.951 405.18 244.951H389.65C388.995 244.951 388.364 244.706 387.881 244.263C387.398 243.821 387.098 243.213 387.04 242.561L386.68 238.461H408.15Z" fill="#EBEBEB"/>
<path d="M356.25 303.33H438.58V272.57H356.25V303.33Z" fill="#FAFAFA"/>
<path d="M408.15 272.57L407.79 276.67C407.735 277.324 407.436 277.932 406.952 278.375C406.469 278.818 405.836 279.063 405.18 279.06H389.65C388.994 279.063 388.362 278.818 387.878 278.375C387.395 277.932 387.095 277.324 387.04 276.67L386.68 272.57H408.15Z" fill="#EBEBEB"/>
<path d="M356.25 327.92H437.58L438.58 321.58H356.25V327.92Z" fill="#E6E6E6"/>
<path d="M339.25 327.92H356.25V321.58H338.25L339.25 327.92Z" fill="#E0E0E0"/>
<path d="M394.481 195.079H426.981L423.381 153.869H390.881L394.481 195.079Z" fill="#FAFAFA"/>
<path d="M394.48 195.079H392.93L389.32 153.869H390.88L394.48 195.079Z" fill="#EBEBEB"/>
<path d="M397.431 190.88H423.301L420.431 158.07H394.561L397.431 190.88Z" fill="#F0F0F0"/>
<path d="M399.32 188.18H420.93L418.54 160.77H396.92L399.32 188.18Z" fill="#E6E6E6"/>
<path d="M385.35 195.08L387.58 169.57H355.23L353 195.08H385.35Z" fill="#F0F0F0"/>
<path d="M385.35 195.08L387.58 169.57H389.32L387.09 195.08H385.35Z" fill="#E0E0E0"/>
<path d="M382.28 192.48L384.06 172.17H358.3L356.52 192.48H382.28Z" fill="#EBEBEB"/>
<path d="M380.309 190.81L381.789 173.85H360.269L358.789 190.81H380.309Z" fill="#F5F5F5"/>
<path d="M310.641 310.77C310.641 317.53 309.581 321.9 307.801 324.71C307.116 325.739 306.185 326.58 305.091 327.157C303.998 327.733 302.777 328.026 301.541 328.01H291.751C290.515 328.026 289.295 327.733 288.201 327.157C287.108 326.58 286.176 325.739 285.491 324.71C283.711 321.9 282.641 317.53 282.641 310.77C282.641 300.96 286.921 293.11 288.321 286.85C288.821 284.59 287.141 277.67 287.141 277.67H306.141C306.141 277.67 304.471 284.59 304.971 286.85C306.371 293.11 310.641 301 310.641 310.77Z" fill="#EBEBEB"/>
<path d="M342.999 271.09C342.999 262.57 329.649 266.09 326.289 252.9C325.009 247.9 335.869 236.57 335.869 236.57H301.999C301.999 236.57 312.859 247.9 311.579 252.9C308.219 266.11 294.869 262.57 294.869 271.09C294.869 280.46 313.699 299.99 314.609 321.97C314.689 323.97 311.069 327.97 311.069 327.97H326.789C326.789 327.97 323.159 323.89 323.249 321.97C324.169 300 342.999 280.46 342.999 271.09Z" fill="#F5F5F5"/>
<path d="M332.771 293.21C334.771 289.07 330.671 275.01 330.671 275.01H345.341C345.341 275.01 341.271 289.07 343.241 293.21C344.631 296.13 347.781 298 347.781 301.45V322.22C347.781 327.6 343.381 328.01 338.001 328.01C332.621 328.01 328.221 327.6 328.221 322.22V301.45C328.221 298 331.381 296.13 332.771 293.21Z" fill="#F0F0F0"/>
<path d="M165.15 170.53C156.73 166.88 151.92 159.18 154.44 153.36C156.96 147.54 165.86 145.78 174.29 149.43C182.72 153.08 187.52 160.78 185 166.6C182.48 172.42 173.58 174.18 165.15 170.53ZM171.86 155C167.86 153.29 163.74 154.11 162.56 156.84C161.38 159.57 163.63 163.17 167.56 164.84C171.49 166.51 175.68 165.73 176.86 163C178.04 160.27 175.81 156.75 171.86 155Z" fill="#E6E6E6"/>
<path d="M175.07 155.36L171.07 153.63L195.27 97.6896C195.383 97.426 195.547 97.1874 195.753 96.9876C195.959 96.7879 196.202 96.631 196.469 96.5259C196.736 96.4208 197.021 96.3697 197.308 96.3754C197.595 96.3812 197.877 96.4438 198.14 96.5596C198.402 96.6727 198.64 96.8365 198.839 97.0416C199.037 97.2467 199.194 97.4891 199.299 97.7549C199.404 98.0206 199.455 98.3044 199.45 98.5901C199.445 98.8758 199.384 99.1576 199.27 99.4196L175.07 155.36Z" fill="#E6E6E6"/>
<path d="M201.12 104.831L193.43 101.471L195.17 97.4707L202.85 100.831L201.12 104.831Z" fill="#E6E6E6"/>
<path d="M197.33 109.31L191.83 106.92L193.56 102.91L199.06 105.3L197.33 109.31Z" fill="#E6E6E6"/>
<path d="M191.319 110.552L189.586 114.553L195.753 117.223L197.486 113.222L191.319 110.552Z" fill="#E6E6E6"/>
<path d="M176.62 149.39L174.42 148.44C173.894 148.21 173.481 147.781 173.271 147.247C173.062 146.713 173.072 146.117 173.3 145.59C173.528 145.063 173.957 144.648 174.491 144.436C175.025 144.224 175.622 144.233 176.15 144.46L178.35 145.41C178.876 145.641 179.288 146.07 179.498 146.604C179.708 147.138 179.698 147.734 179.47 148.26C179.241 148.788 178.813 149.203 178.279 149.415C177.744 149.627 177.148 149.618 176.62 149.39Z" fill="#E6E6E6"/>
<path d="M348.469 130.161C350.977 131.745 352.957 134.04 354.154 136.755C355.352 139.469 355.713 142.479 355.191 145.399C354.67 148.319 353.29 151.018 351.227 153.15C349.164 155.283 346.513 156.751 343.611 157.369C340.709 157.987 337.69 157.726 334.937 156.619C332.185 155.513 329.825 153.61 328.159 151.156C326.492 148.701 325.596 145.806 325.584 142.839C325.571 139.872 326.443 136.969 328.089 134.501C330.219 131.226 333.561 128.93 337.382 128.117C341.202 127.303 345.19 128.038 348.469 130.161ZM336.319 148.391C337.458 149.192 338.809 149.636 340.201 149.665C341.594 149.694 342.963 149.308 344.134 148.555C345.305 147.802 346.225 146.716 346.776 145.438C347.327 144.159 347.485 142.745 347.228 141.377C346.972 140.008 346.313 138.747 345.336 137.755C344.359 136.763 343.108 136.085 341.744 135.807C340.379 135.53 338.963 135.665 337.676 136.197C336.389 136.728 335.29 137.631 334.519 138.791C333.486 140.303 333.095 142.163 333.432 143.963C333.77 145.763 334.808 147.356 336.319 148.391Z" fill="#E6E6E6"/>
<path d="M334.71 146.609L338.85 149.369L309.23 194.689C308.864 195.238 308.295 195.619 307.648 195.748C307.001 195.877 306.329 195.745 305.78 195.379C305.509 195.199 305.276 194.967 305.094 194.696C304.913 194.426 304.786 194.122 304.722 193.802C304.658 193.483 304.658 193.154 304.721 192.834C304.784 192.515 304.909 192.211 305.09 191.939L334.71 146.609Z" fill="#E6E6E6"/>
<path d="M305.279 182.05L313.999 187.9L309.649 194.43L300.919 188.57C300.319 188.165 299.903 187.54 299.763 186.829C299.622 186.119 299.768 185.382 300.169 184.78L301.479 182.78C301.889 182.182 302.518 181.77 303.229 181.633C303.941 181.497 304.677 181.646 305.279 182.05Z" fill="#E6E6E6"/>
<path d="M227.54 43.5592L222.94 55.4592C222.842 55.7146 222.694 55.9481 222.505 56.1464C222.316 56.3447 222.09 56.5039 221.84 56.6148C221.59 56.7258 221.32 56.7864 221.047 56.7931C220.773 56.7999 220.501 56.7527 220.245 56.6542C219.99 56.5557 219.756 56.4078 219.558 56.2191C219.36 56.0304 219.2 55.8044 219.09 55.5542C218.979 55.3039 218.918 55.0342 218.911 54.7606C218.904 54.4869 218.952 54.2146 219.05 53.9592L223.65 42.0592C224.361 40.209 224.31 38.1524 223.508 36.3398C222.706 34.5273 221.218 33.1066 219.37 32.3892L215.11 30.7392C213.263 30.0268 211.208 30.075 209.396 30.8733C207.584 31.6716 206.162 33.155 205.44 34.9992L203.56 39.8592L199.68 38.3592L201.56 33.4992C202.11 32.073 202.936 30.7692 203.99 29.6621C205.044 28.5551 206.306 27.6665 207.704 27.0471C209.101 26.4277 210.607 26.0897 212.135 26.0523C213.663 26.0149 215.184 26.2789 216.61 26.8292L220.87 28.4692C222.299 29.0214 223.606 29.8499 224.715 30.9073C225.824 31.9647 226.713 33.2303 227.333 34.6317C227.952 36.0332 228.289 37.543 228.325 39.0748C228.361 40.6066 228.094 42.1305 227.54 43.5592Z" fill="#F0F0F0"/>
<path d="M226.811 45.43C226.494 45.0224 226.072 44.708 225.591 44.52L202.391 35.52C201.686 35.2547 200.906 35.2769 200.217 35.5818C199.529 35.8867 198.988 36.4499 198.711 37.15L189.711 60.36C189.441 61.0629 189.46 61.8443 189.766 62.5325C190.072 63.2207 190.638 63.7594 191.341 64.03L214.541 73.03C214.889 73.1654 215.261 73.2307 215.635 73.222C216.009 73.2133 216.378 73.1309 216.719 72.9795C217.061 72.828 217.37 72.6105 217.628 72.3395C217.885 72.0684 218.087 71.7492 218.221 71.4L227.221 48.2C227.399 47.7424 227.454 47.2464 227.383 46.7608C227.311 46.2751 227.114 45.8165 226.811 45.43ZM209.191 63.36L201.841 60.52L205.731 53.73C205.429 53.1221 205.284 52.4485 205.309 51.7703C205.333 51.0922 205.526 50.4308 205.871 49.8461C206.215 49.2614 206.7 48.7719 207.281 48.4218C207.863 48.0718 208.522 47.8723 209.2 47.8414C209.878 47.8105 210.553 47.9492 211.164 48.2449C211.775 48.5406 212.302 48.984 212.698 49.5349C213.095 50.0858 213.347 50.7269 213.433 51.4001C213.519 52.0732 213.436 52.7572 213.191 53.39C212.99 53.9188 212.68 54.3989 212.28 54.7988C211.88 55.1987 211.4 55.5093 210.871 55.71L209.191 63.36Z" fill="#E6E6E6"/>
<path d="M69.1504 314.461H254.281V214.831H69.1504V314.461Z" fill="#E6E6E6"/>
<path d="M239.439 327.391H251.079V318.601H239.439V327.391Z" fill="#E6E6E6"/>
<path d="M55.0195 327.391H66.6595V207.421H55.0195V327.391Z" fill="#E6E6E6"/>
<path d="M66.5195 207.41V327.41H72.7295V320.69H251.08V327.41H257.29V207.41H66.5195ZM72.7295 218.27H158.8V259.94H72.7295V218.27ZM251.08 309.8H165V218.27H251.07L251.08 309.8ZM72.7295 309.8V266.15H158.8V309.8H72.7295Z" fill="#F0F0F0"/>
<path d="M165 309.811H245.26V222.761H165V309.811Z" fill="#F5F5F5"/>
<path d="M168.641 263.669C168.641 264.407 168.86 265.128 169.27 265.742C169.68 266.355 170.262 266.833 170.944 267.116C171.625 267.398 172.375 267.472 173.099 267.328C173.822 267.184 174.487 266.829 175.009 266.307C175.53 265.785 175.886 265.121 176.029 264.397C176.173 263.674 176.1 262.924 175.817 262.242C175.535 261.56 175.057 260.978 174.443 260.568C173.83 260.158 173.109 259.939 172.371 259.939C171.881 259.939 171.396 260.036 170.944 260.223C170.491 260.411 170.08 260.686 169.734 261.032C169.387 261.378 169.113 261.789 168.925 262.242C168.738 262.695 168.641 263.18 168.641 263.669Z" fill="#FAFAFA"/>
<path d="M172.371 267.401C173.084 267.398 173.781 267.192 174.38 266.805C174.979 266.419 175.455 265.869 175.751 265.221C175.98 265.706 176.099 266.235 176.101 266.771C176.101 267.76 175.708 268.709 175.009 269.408C174.309 270.108 173.36 270.501 172.371 270.501C171.382 270.501 170.433 270.108 169.734 269.408C169.034 268.709 168.641 267.76 168.641 266.771C168.643 266.235 168.763 265.706 168.991 265.221C169.287 265.869 169.763 266.419 170.362 266.805C170.961 267.192 171.658 267.398 172.371 267.401Z" fill="#E0E0E0"/>
<path d="M214.14 309.8H194.99L185.84 222.75H204.99L214.14 309.8Z" fill="#FAFAFA"/>
<path d="M190.091 309.8H186.281L177.131 222.75H180.941L190.091 309.8Z" fill="#FAFAFA"/>
<path d="M139.41 259.9H146.99V222.67H139.41V259.9Z" fill="#FAFAFA"/>
<path d="M107.961 259.9H115.541V222.67H107.961V259.9Z" fill="#F5F5F5"/>
<path d="M131.82 259.9H139.4V225.28H131.82V259.9Z" fill="#F5F5F5"/>
<path d="M115.539 259.9H123.119V225.28H115.539V259.9Z" fill="#FAFAFA"/>
<path d="M123.131 259.9H128.031V222.67H123.131V259.9Z" fill="#EBEBEB"/>
<path d="M128.02 259.9H131.81V225.28H128.02V259.9Z" fill="#FAFAFA"/>
<path d="M100.381 259.9H107.961V222.67H100.381V259.9Z" fill="#EBEBEB"/>
<path d="M92.791 259.9H100.371V225.28H92.791V259.9Z" fill="#E6E6E6"/>
<path d="M76.5098 259.9H84.0898V225.28H76.5098V259.9Z" fill="#E6E6E6"/>
<path d="M84.0996 259.9H88.9996V222.67H84.0996V259.9Z" fill="#FAFAFA"/>
<path d="M89 259.9H92.79V225.28H89V259.9Z" fill="#EBEBEB"/>
<path d="M72.7207 259.9H76.5107V223.55H72.7207V259.9Z" fill="#EBEBEB"/>
<path d="M80.3007 272.57H72.7207V309.8H80.3007V272.57Z" fill="#EBEBEB"/>
<path d="M111.74 272.57H104.16V309.8H111.74V272.57Z" fill="#FAFAFA"/>
<path d="M87.8788 275.189H80.2988V309.809H87.8788V275.189Z" fill="#FAFAFA"/>
<path d="M104.16 275.189H96.5801V309.809H104.16V275.189Z" fill="#EBEBEB"/>
<path d="M96.5797 272.57H91.6797V309.8H96.5797V272.57Z" fill="#FAFAFA"/>
<path d="M91.6806 275.189H87.8906V309.809H91.6806V275.189Z" fill="#F5F5F5"/>
<path d="M119.33 272.57H111.75V309.8H119.33V272.57Z" fill="#EBEBEB"/>
<path d="M126.91 275.189H119.33V309.809H126.91V275.189Z" fill="#F5F5F5"/>
<path d="M143.189 275.189H135.609V309.809H143.189V275.189Z" fill="#E6E6E6"/>
<path d="M135.611 272.57H130.711V309.8H135.611V272.57Z" fill="#FAFAFA"/>
<path d="M151.89 272.57H146.99V309.8H151.89V272.57Z" fill="#FAFAFA"/>
<path d="M130.71 275.189H126.92V309.809H130.71V275.189Z" fill="#EBEBEB"/>
<path d="M146.979 273.449H143.189V309.799H146.979V273.449Z" fill="#EBEBEB"/>
<path d="M81.1797 143.289C80.3939 143.676 79.745 144.293 79.3197 145.059C78.7397 146.239 80.5497 148.429 80.5497 148.429C80.9861 148.721 81.4847 148.906 82.0057 148.97C82.5267 149.035 83.0555 148.976 83.5497 148.799L85.0497 148.119C85.0497 148.119 82.4797 143.649 81.2297 143.599L81.1797 143.289Z" fill="#E6E6E6"/>
<path d="M87.6305 143.25C87.8105 145.37 86.5005 148.05 84.6305 148.25C82.7605 148.45 81.0005 146 80.7805 143.85C80.5605 141.7 82.1205 141.52 84.0105 141.36C85.9005 141.2 87.4405 141.13 87.6305 143.25Z" fill="#E6E6E6"/>
<path d="M82.0796 142.631C82.0796 142.631 83.5296 143.781 86.5096 143.111C86.5096 143.111 81.8096 146.241 82.0796 142.631Z" fill="#E6E6E6"/>
<path d="M83.3594 142.209C83.3594 142.209 85.0294 141.919 85.0494 142.609C85.0494 142.609 86.4694 142.529 86.2694 141.939C86.0694 141.349 83.3594 142.209 83.3594 142.209Z" fill="#E6E6E6"/>
<g opacity="0.2">
<path d="M82.0796 142.631C82.0796 142.631 83.5296 143.781 86.5096 143.111C86.5096 143.111 81.8096 146.241 82.0796 142.631Z" fill="#FAFAFA"/>
</g>
<g opacity="0.2">
<path d="M83.3594 142.209C83.3594 142.209 85.0294 141.919 85.0494 142.609C85.0494 142.609 86.4694 142.529 86.2694 141.939C86.0694 141.349 83.3594 142.209 83.3594 142.209Z" fill="#FAFAFA"/>
</g>
<path d="M81.4297 148.881C81.7523 149.365 82.2052 149.747 82.7361 149.984C83.267 150.221 83.8541 150.304 84.4297 150.221C84.9985 150.135 85.5431 149.932 86.0287 149.624C86.5143 149.315 86.9302 148.909 87.2497 148.431C87.8734 147.467 88.2194 146.349 88.2497 145.201C88.2497 144.911 88.2497 144.201 87.8997 144.051C87.5497 143.901 87.3197 144.451 87.1597 144.681C86.6928 145.352 86.1602 145.975 85.5697 146.541C84.9857 147.101 84.3379 147.591 83.6397 148.001C83.4397 148.061 81.5397 149.051 81.4297 148.881Z" fill="#E6E6E6"/>
<path d="M89.5496 144.649C89.7224 145.083 89.7828 145.553 89.7251 146.016C89.6674 146.48 89.4935 146.921 89.2196 147.299C88.8254 147.767 88.3471 148.157 87.8095 148.449C87.4395 148.669 86.9696 148.879 86.6096 148.649C86.2496 148.419 86.2596 147.829 86.3496 147.379C86.4896 146.689 86.6396 145.999 86.8196 145.309C86.9049 144.618 87.0936 143.944 87.3795 143.309C87.6895 142.869 88.1195 143.129 88.5895 143.459C89.016 143.757 89.349 144.169 89.5496 144.649Z" fill="#E6E6E6"/>
<g opacity="0.2">
<path d="M81.9101 147.711C81.5463 147.682 81.1975 147.553 80.9013 147.34C80.6052 147.127 80.3731 146.837 80.2301 146.501C80.0301 145.991 80.0301 144.721 80.6901 144.551C80.8893 145.673 81.3035 146.746 81.9101 147.711Z" fill="#FAFAFA"/>
</g>
<g opacity="0.2">
<path d="M86.8398 147.65C87.1855 147.549 87.5013 147.365 87.7593 147.114C88.0173 146.863 88.2098 146.553 88.3198 146.21C88.4298 145.83 88.3198 143.89 87.7098 144.7C87.5198 144.97 87.5598 145.82 87.4598 146.17C87.3121 146.686 87.1039 147.182 86.8398 147.65Z" fill="#FAFAFA"/>
</g>
<g opacity="0.2">
<path d="M84.2005 148.85C84.4793 149.082 84.8287 149.214 85.1918 149.223C85.5549 149.232 85.9103 149.118 86.2005 148.9C86.1205 149.28 84.9405 149.59 84.5805 149.7C83.5805 149.98 83.1205 149.56 82.2005 149.17C82.1505 149.17 83.6105 149.39 84.2005 148.85Z" fill="#FAFAFA"/>
</g>
<path d="M82.5488 187.8L82.6388 158.95L84.1188 150.18L84.6788 150.27L83.2088 159L83.0988 188.35L82.5488 187.8Z" fill="#E0E0E0"/>
<path d="M83.1488 158.799L82.6988 159.149C82.1903 158.438 81.7421 157.685 81.3588 156.899C80.6089 155.346 79.6647 153.895 78.5488 152.579L78.9688 152.189C80.1179 153.542 81.0922 155.034 81.8688 156.629C82.2354 157.387 82.6635 158.112 83.1488 158.799Z" fill="#E0E0E0"/>
<path d="M83.5005 154.931C84.2743 154.721 84.9479 154.243 85.4005 153.581C85.849 152.796 86.1346 151.929 86.2405 151.031C85.2405 151.331 84.1705 150.851 83.1405 150.971C82.7292 151.022 82.335 151.166 81.9883 151.393C81.6415 151.62 81.3515 151.924 81.1405 152.281C80.6005 153.211 80.3805 154.281 80.8605 154.691C81.6759 155.111 82.6228 155.197 83.5005 154.931Z" fill="#E6E6E6"/>
<path d="M79.6593 152.94C79.1954 153.229 78.6744 153.413 78.1322 153.48C77.59 153.548 77.0397 153.496 76.5193 153.33C75.5193 153 75.1893 151.44 74.7793 150.43C76.0665 150.31 77.3621 150.31 78.6493 150.43C78.9212 150.447 79.1861 150.523 79.4247 150.655C79.6634 150.786 79.8699 150.969 80.0293 151.19C80.1792 151.417 80.2406 151.691 80.2019 151.96C80.1632 152.229 80.027 152.475 79.8193 152.65L79.6593 152.94Z" fill="#E6E6E6"/>
<path d="M74.9306 154.63C75.3434 154.219 75.841 153.903 76.3885 153.705C76.9361 153.506 77.5204 153.429 78.1006 153.48C78.5651 153.566 79.0029 153.76 79.3782 154.046C79.7536 154.333 80.0559 154.704 80.2606 155.13C80.1049 155.426 79.8724 155.676 79.5874 155.852C79.3025 156.028 78.9755 156.124 78.6406 156.13C77.9588 156.14 77.2808 156.025 76.6406 155.79C76.0018 155.549 75.3234 155.43 74.6406 155.44L74.9306 154.63Z" fill="#E6E6E6"/>
<path d="M94.18 149.67C94.8136 150.269 95.2496 151.047 95.43 151.9C95.64 153.21 93.27 154.76 93.27 154.76C92.7637 154.916 92.2277 154.949 91.7061 154.857C91.1844 154.765 90.6922 154.55 90.27 154.23L89 153.13C89 153.13 92.78 149.62 94 149.95L94.18 149.67Z" fill="#E6E6E6"/>
<path d="M87.9995 147.74C87.2095 149.74 87.6795 152.65 89.4395 153.36C91.1995 154.07 93.5795 152.29 94.3795 150.36C95.1795 148.43 93.7995 147.7 91.9995 147C90.1995 146.3 88.8195 145.77 87.9995 147.74Z" fill="#E6E6E6"/>
<path d="M93.5109 148.77C93.5109 148.77 91.7809 149.45 89.1309 147.93C89.1309 147.93 92.7009 152.3 93.5109 148.77Z" fill="#E6E6E6"/>
<path d="M92.4098 148C92.4098 148 90.8998 147.23 90.6698 147.89C90.6698 147.89 89.3398 147.4 89.6698 146.89C89.9998 146.38 92.4098 148 92.4098 148Z" fill="#E6E6E6"/>
<g opacity="0.2">
<path d="M93.5109 148.77C93.5109 148.77 91.7809 149.45 89.1309 147.93C89.1309 147.93 92.7009 152.3 93.5109 148.77Z" fill="#FAFAFA"/>
</g>
<g opacity="0.2">
<path d="M92.4098 148C92.4098 148 90.8998 147.23 90.6698 147.89C90.6698 147.89 89.3398 147.4 89.6698 146.89C89.9998 146.38 92.4098 148 92.4098 148Z" fill="#FAFAFA"/>
</g>
<path d="M92.2888 154.94C91.8403 155.299 91.3014 155.528 90.7315 155.6C90.1616 155.672 89.5827 155.586 89.0588 155.35C88.5408 155.1 88.0805 154.745 87.7069 154.308C87.3333 153.871 87.0547 153.361 86.8888 152.81C86.5787 151.698 86.5787 150.522 86.8888 149.41C86.9488 149.12 87.1488 148.41 87.5588 148.41C87.9688 148.41 87.9888 148.96 88.0788 149.23C88.3289 150.014 88.6643 150.769 89.0788 151.48C89.4793 152.174 89.9592 152.818 90.5088 153.4C90.6088 153.57 92.1388 155.07 92.2888 154.94Z" fill="#E6E6E6"/>
<path d="M85.7798 148.509C85.4835 148.869 85.2853 149.3 85.2047 149.759C85.1241 150.218 85.1638 150.69 85.3198 151.129C85.5471 151.698 85.8873 152.215 86.3198 152.649C86.5998 152.969 86.9898 153.309 87.3998 153.189C87.8098 153.069 87.9698 152.509 88.0198 152.059C88.0898 151.349 88.1498 150.649 88.1798 149.939C88.2845 149.26 88.2845 148.569 88.1798 147.889C88.0198 147.369 87.5198 147.489 86.9798 147.669C86.5083 147.83 86.0922 148.121 85.7798 148.509Z" fill="#E6E6E6"/>
<g opacity="0.2">
<path d="M92.1797 153.67C92.5411 153.765 92.9226 153.754 93.2776 153.637C93.6327 153.519 93.9461 153.302 94.1797 153.01C94.5097 152.59 94.8797 151.37 94.3097 151.01C93.7755 152.024 93.0526 152.927 92.1797 153.67Z" fill="#FAFAFA"/>
</g>
<g opacity="0.2">
<path d="M87.4805 152.17C87.1764 151.976 86.9256 151.708 86.751 151.392C86.5764 151.076 86.4834 150.721 86.4805 150.36C86.4805 149.96 87.1905 148.15 87.4805 149.1C87.5805 149.41 87.2905 150.21 87.2905 150.57C87.2931 151.109 87.3568 151.646 87.4805 152.17Z" fill="#FAFAFA"/>
</g>
<g opacity="0.2">
<path d="M89.6493 154.09C89.3239 154.222 88.964 154.243 88.6257 154.149C88.2875 154.055 87.9898 153.851 87.7793 153.57C87.7793 153.95 88.7793 154.57 89.0893 154.81C89.9193 155.36 90.5193 155.1 91.5193 155C91.5193 155 90.0593 154.79 89.6493 154.09Z" fill="#FAFAFA"/>
</g>
<path d="M81.7305 183.491L82.0905 182.311L82.5705 180.721L83.1305 178.861L87.6205 164.091L88.1805 159.851L88.6805 156.091L88.7805 155.311L89.0605 155.341V155.351L89.3505 155.381L89.3405 155.451L89.2405 156.191L88.7105 160.211L88.2805 163.491L88.1805 164.211L88.1405 164.321L83.1305 180.821L82.5605 182.671L82.3105 183.531L81.9505 184.701L81.7305 183.491Z" fill="#E0E0E0"/>
<path d="M87.7305 163.92L88.0605 164.38C88.7534 163.847 89.4022 163.258 90.0005 162.62C91.1857 161.352 92.5302 160.243 94.0005 159.32L93.7105 158.83C92.2118 159.778 90.8436 160.918 89.6405 162.22C89.0457 162.832 88.4073 163.4 87.7305 163.92Z" fill="#E0E0E0"/>
<path d="M88.5402 160.12C87.8587 159.695 87.3542 159.038 87.1202 158.27C86.9184 157.386 86.9014 156.471 87.0702 155.58C87.9302 156.16 89.0702 156.01 90.0702 156.43C90.4486 156.6 90.7832 156.854 91.0484 157.173C91.3136 157.492 91.5023 157.867 91.6002 158.27C91.8402 159.27 91.7402 160.39 91.1602 160.66C90.2498 160.833 89.308 160.639 88.5402 160.12Z" fill="#E6E6E6"/>
<path d="M92.7903 159.34C93.1473 159.753 93.5898 160.083 94.0871 160.307C94.5845 160.532 95.1247 160.645 95.6703 160.64C96.7603 160.64 97.5103 159.22 98.1903 158.37C96.9992 157.874 95.7636 157.492 94.5003 157.23C94.236 157.165 93.9606 157.161 93.6942 157.216C93.4278 157.271 93.1771 157.385 92.9603 157.55C92.7478 157.721 92.6059 157.965 92.5616 158.234C92.5173 158.503 92.5738 158.78 92.7203 159.01L92.7903 159.34Z" fill="#E6E6E6"/>
<path d="M96.8203 162.341C96.5461 161.829 96.1617 161.384 95.6948 161.038C95.228 160.692 94.6902 160.454 94.1203 160.341C93.6513 160.286 93.1759 160.342 92.7328 160.505C92.2897 160.669 91.8914 160.934 91.5703 161.281C91.6297 161.612 91.777 161.922 91.9969 162.177C92.2168 162.432 92.5012 162.623 92.8203 162.731C93.4662 162.935 94.144 163.02 94.8203 162.981C95.4968 162.937 96.1755 163.021 96.8203 163.231V162.341Z" fill="#E6E6E6"/>
<path d="M73.9212 148.51C73.2226 149.036 72.6997 149.761 72.4212 150.59C72.0612 151.86 74.2312 153.68 74.2312 153.68C74.7096 153.889 75.2303 153.982 75.7515 153.952C76.2726 153.923 76.7795 153.771 77.2312 153.51L78.5912 152.56C78.5912 152.56 75.2612 148.63 74.0212 148.81L73.9212 148.51Z" fill="#E6E6E6"/>
<path d="M80.2598 147.321C80.8198 149.371 80.0098 152.241 78.1798 152.741C76.3498 153.241 74.1798 151.191 73.6298 149.141C73.0798 147.091 74.5298 146.611 76.3598 146.141C78.1898 145.671 79.6998 145.271 80.2598 147.321Z" fill="#E6E6E6"/>
<path d="M74.6895 147.701C74.6895 147.701 76.3194 148.581 79.1294 147.381C79.1294 147.381 75.0795 151.311 74.6895 147.701Z" fill="#E6E6E6"/>
<path d="M75.8691 147.059C75.8691 147.059 77.4591 146.469 77.6091 147.149C77.6091 147.149 78.9891 146.819 78.6891 146.269C78.3891 145.719 75.8691 147.059 75.8691 147.059Z" fill="#E6E6E6"/>
<g opacity="0.2">
<path d="M74.6895 147.701C74.6895 147.701 76.3194 148.581 79.1294 147.381C79.1294 147.381 75.0795 151.311 74.6895 147.701Z" fill="#FAFAFA"/>
</g>
<g opacity="0.2">
<path d="M75.8691 147.059C75.8691 147.059 77.4591 146.469 77.6091 147.149C77.6091 147.149 78.9891 146.819 78.6891 146.269C78.3891 145.719 75.8691 147.059 75.8691 147.059Z" fill="#FAFAFA"/>
</g>
<path d="M75.1699 154C75.5728 154.41 76.081 154.701 76.6386 154.84C77.1963 154.98 77.7815 154.962 78.3299 154.79C78.8745 154.602 79.3743 154.303 79.7977 153.913C80.2211 153.522 80.5589 153.048 80.7899 152.52C81.2451 151.459 81.3974 150.293 81.2299 149.15C81.2299 148.86 81.0899 148.15 80.6799 148.08C80.2699 148.01 80.1799 148.58 80.0599 148.84C79.7244 149.584 79.3122 150.291 78.8299 150.95C78.3512 151.594 77.7973 152.178 77.1799 152.69C76.9999 152.8 75.3099 154.12 75.1699 154Z" fill="#E6E6E6"/>
<path d="M82.4007 148.351C82.6499 148.745 82.7945 149.196 82.8207 149.661C82.847 150.127 82.754 150.591 82.5507 151.011C82.2534 151.548 81.8523 152.02 81.3707 152.401C81.0507 152.681 80.6207 152.971 80.2307 152.811C79.8407 152.651 79.7407 152.071 79.7507 151.611C79.7507 150.901 79.7507 150.201 79.8307 149.491C79.7989 148.818 79.8663 148.144 80.0307 147.491C80.2507 146.991 80.7307 147.171 81.2507 147.411C81.7135 147.612 82.1116 147.937 82.4007 148.351Z" fill="#E6E6E6"/>
<g opacity="0.2">
<path d="M75.4389 152.73C75.0733 152.777 74.7019 152.718 74.3687 152.56C74.0356 152.402 73.7546 152.152 73.5589 151.84C73.2789 151.38 73.0489 150.12 73.6589 149.84C74.0651 150.907 74.669 151.887 75.4389 152.73Z" fill="#FAFAFA"/>
</g>
<g opacity="0.2">
<path d="M80.2793 151.789C80.6009 151.627 80.8776 151.388 81.0851 151.093C81.2926 150.798 81.4245 150.457 81.4693 150.1C81.4693 149.71 81.0193 147.829 80.5993 148.729C80.5496 149.222 80.5496 149.717 80.5993 150.21C80.5532 150.747 80.4458 151.277 80.2793 151.789Z" fill="#FAFAFA"/>
</g>
<g opacity="0.2">
<path d="M77.8997 153.441C78.2083 153.608 78.5635 153.67 78.9104 153.616C79.2574 153.561 79.5769 153.394 79.8197 153.141C79.8197 153.521 78.7097 154.041 78.3697 154.221C77.4797 154.661 76.9097 154.341 75.9297 154.131C75.9297 154.131 77.4097 154.081 77.8997 153.441Z" fill="#FAFAFA"/>
</g>
<path d="M83.2688 192.06L78.1688 163.66L78.0488 154.76L78.6188 154.75L78.7388 163.61L83.9088 192.5L83.2688 192.06Z" fill="#E0E0E0"/>
<path d="M78.65 163.42L78.26 163.84C77.6351 163.222 77.0631 162.553 76.55 161.84C75.5294 160.454 74.3365 159.204 73 158.12L73.35 157.67C74.7245 158.794 75.951 160.087 77 161.52C77.4973 162.197 78.0491 162.833 78.65 163.42Z" fill="#E0E0E0"/>
<path d="M78.2896 159.551C79.0171 159.21 79.5962 158.616 79.9196 157.881C80.2244 157.029 80.3504 156.123 80.2896 155.221C79.3596 155.701 78.2196 155.411 77.2296 155.711C76.8331 155.838 76.4706 156.054 76.1693 156.341C75.8679 156.629 75.6355 156.981 75.4896 157.371C75.1296 158.371 75.0996 159.451 75.6496 159.781C76.5253 160.056 77.4746 159.974 78.2896 159.551Z" fill="#E6E6E6"/>
<path d="M74.1597 158.281C73.7591 158.648 73.283 158.924 72.7648 159.088C72.2466 159.252 71.6987 159.301 71.1597 159.231C70.0797 159.091 69.4997 157.611 68.9297 156.691C70.17 156.332 71.4429 156.098 72.7297 155.991C72.9988 155.957 73.2721 155.983 73.5298 156.068C73.7875 156.153 74.0232 156.294 74.2197 156.481C74.4081 156.678 74.5182 156.937 74.5293 157.21C74.5403 157.482 74.4516 157.749 74.2797 157.961L74.1597 158.281Z" fill="#E6E6E6"/>
<path d="M69.8105 160.79C70.1436 160.313 70.5766 159.916 71.0791 159.624C71.5817 159.332 72.1418 159.153 72.7205 159.1C73.1938 159.098 73.6608 159.209 74.0831 159.423C74.5054 159.637 74.8712 159.947 75.1505 160.33C75.0543 160.654 74.8711 160.946 74.6208 161.173C74.3704 161.4 74.0625 161.555 73.7305 161.62C73.0697 161.745 72.3913 161.745 71.7305 161.62C71.0697 161.495 70.3913 161.495 69.7305 161.62L69.8105 160.79Z" fill="#E6E6E6"/>
<path d="M85.3507 174.63H79.3507C79.1288 174.62 78.9101 174.685 78.729 174.814C78.548 174.942 78.4149 175.127 78.3507 175.34C77.246 179.262 76.7303 183.326 76.8207 187.4C76.8207 194.4 78.6607 203.82 79.2407 206.59C79.2854 206.821 79.4101 207.029 79.5931 207.177C79.776 207.325 80.0053 207.404 80.2407 207.4H84.4007C84.636 207.404 84.8654 207.325 85.0483 207.177C85.2312 207.029 85.356 206.821 85.4007 206.59C85.9807 203.82 87.8207 194.45 87.8207 187.4C87.911 183.326 87.3954 179.262 86.2907 175.34C86.2293 175.137 86.1052 174.959 85.9363 174.832C85.7674 174.704 85.5623 174.633 85.3507 174.63Z" fill="#F0F0F0"/>
<path d="M249.999 372.009C357.081 372.009 443.889 366.941 443.889 360.689C443.889 354.437 357.081 349.369 249.999 349.369C142.916 349.369 56.1094 354.437 56.1094 360.689C56.1094 366.941 142.916 372.009 249.999 372.009Z" fill="#F5F5F5"/>
<path d="M120.78 321.77C120.617 321.76 120.464 321.686 120.353 321.565C120.243 321.443 120.185 321.284 120.19 321.12C120.93 291.73 122.44 243.52 122.52 243.25C122.573 243.09 122.686 242.956 122.835 242.876C122.983 242.796 123.157 242.776 123.32 242.82C123.482 242.871 123.618 242.983 123.698 243.132C123.779 243.282 123.797 243.457 123.75 243.62C123.75 243.68 122.2 292.06 121.46 321.15C121.459 321.234 121.441 321.316 121.408 321.393C121.374 321.469 121.326 321.538 121.265 321.596C121.205 321.654 121.133 321.699 121.055 321.729C120.977 321.759 120.894 321.773 120.81 321.77H120.78Z" fill="#263238"/>
<path d="M116.83 223.63C117.08 225.89 119.83 233.74 122.05 233.5C124.27 233.26 125.28 225 125.05 222.74C124.932 221.652 124.387 220.656 123.535 219.971C122.682 219.285 121.593 218.967 120.505 219.085C119.418 219.203 118.422 219.748 117.736 220.6C117.051 221.453 116.732 222.542 116.85 223.63H116.83Z" fill="#191919"/>
<path d="M127.82 248.39C127.57 246.12 124.82 238.27 122.6 238.52C120.38 238.77 119.38 247.01 119.6 249.28C119.718 250.367 120.263 251.363 121.116 252.048C121.968 252.734 123.058 253.053 124.145 252.935C125.232 252.816 126.228 252.271 126.914 251.419C127.599 250.567 127.918 249.477 127.8 248.39H127.82Z" fill="#191919"/>
<path d="M110 241.499C112.26 241.259 120.11 238.549 119.86 236.279C119.61 234.009 111.37 233.059 109.11 233.279C108.572 233.337 108.05 233.501 107.575 233.761C107.1 234.021 106.681 234.372 106.341 234.794C106.002 235.217 105.749 235.701 105.597 236.221C105.445 236.741 105.397 237.286 105.455 237.824C105.514 238.362 105.678 238.884 105.938 239.359C106.198 239.834 106.549 240.253 106.971 240.593C107.393 240.932 107.878 241.185 108.397 241.337C108.917 241.489 109.462 241.537 110 241.479V241.499Z" fill="#191919"/>
<path d="M134.7 230.52C132.44 230.76 124.59 233.52 124.84 235.74C125.09 237.96 133.33 238.96 135.59 238.74C136.136 238.692 136.668 238.536 137.153 238.28C137.637 238.024 138.067 237.674 138.414 237.25C138.762 236.827 139.022 236.338 139.179 235.812C139.336 235.287 139.386 234.736 139.326 234.191C139.267 233.645 139.1 233.118 138.834 232.638C138.568 232.159 138.209 231.737 137.778 231.398C137.348 231.059 136.853 230.809 136.325 230.664C135.796 230.518 135.244 230.479 134.7 230.55V230.52Z" fill="#191919"/>
<path d="M109.69 231.14C111.46 232.57 118.93 236.2 120.36 234.43C121.79 232.66 116.63 226.14 114.86 224.71C114.442 224.339 113.952 224.058 113.422 223.882C112.891 223.706 112.331 223.639 111.774 223.687C111.217 223.734 110.675 223.893 110.182 224.156C109.689 224.418 109.254 224.778 108.904 225.214C108.553 225.649 108.295 226.152 108.145 226.69C107.994 227.228 107.955 227.791 108.028 228.345C108.102 228.899 108.287 229.433 108.572 229.913C108.858 230.393 109.238 230.811 109.69 231.14Z" fill="#191919"/>
<path d="M135.001 240.88C133.231 239.45 125.761 235.819 124.341 237.589C122.921 239.359 128.061 245.879 129.841 247.299C130.261 247.657 130.747 247.926 131.273 248.092C131.798 248.258 132.352 248.317 132.9 248.265C133.449 248.213 133.981 248.052 134.466 247.791C134.951 247.53 135.379 247.174 135.724 246.744C136.07 246.315 136.325 245.821 136.476 245.291C136.627 244.761 136.67 244.206 136.602 243.659C136.535 243.112 136.358 242.585 136.083 242.107C135.808 241.63 135.44 241.212 135.001 240.88Z" fill="#191919"/>
<path d="M117.46 248.639C118.89 246.869 122.52 239.399 120.74 237.979C118.96 236.559 112.46 241.699 111.03 243.479C110.346 244.332 110.029 245.422 110.148 246.508C110.267 247.595 110.813 248.59 111.665 249.274C112.518 249.959 113.608 250.276 114.694 250.157C115.781 250.038 116.776 249.492 117.46 248.639Z" fill="#191919"/>
<path d="M127.19 223.37C125.77 225.15 122.13 232.61 123.91 234.04C125.69 235.47 132.19 230.31 133.62 228.54C133.991 228.121 134.272 227.632 134.448 227.102C134.624 226.571 134.69 226.01 134.643 225.454C134.596 224.897 134.437 224.355 134.174 223.862C133.911 223.368 133.552 222.933 133.116 222.583C132.68 222.233 132.178 221.975 131.64 221.824C131.102 221.674 130.539 221.634 129.985 221.708C129.431 221.781 128.897 221.967 128.417 222.252C127.937 222.538 127.519 222.918 127.19 223.37Z" fill="#191919"/>
<g opacity="0.6">
<path d="M116.83 223.63C117.08 225.89 119.83 233.74 122.05 233.5C124.27 233.26 125.28 225 125.05 222.74C124.932 221.652 124.387 220.656 123.535 219.971C122.682 219.285 121.593 218.967 120.505 219.085C119.418 219.203 118.422 219.748 117.736 220.6C117.051 221.453 116.732 222.542 116.85 223.63H116.83Z" fill="white"/>
<path d="M127.82 248.39C127.57 246.12 124.82 238.27 122.6 238.52C120.38 238.77 119.38 247.01 119.6 249.28C119.718 250.367 120.263 251.363 121.116 252.048C121.968 252.734 123.058 253.053 124.145 252.935C125.232 252.816 126.228 252.271 126.914 251.419C127.599 250.567 127.918 249.477 127.8 248.39H127.82Z" fill="white"/>
<path d="M110 241.499C112.26 241.259 120.11 238.549 119.86 236.279C119.61 234.009 111.37 233.059 109.11 233.279C108.572 233.337 108.05 233.501 107.575 233.761C107.1 234.021 106.681 234.372 106.341 234.794C106.002 235.217 105.749 235.701 105.597 236.221C105.445 236.741 105.397 237.286 105.455 237.824C105.514 238.362 105.678 238.884 105.938 239.359C106.198 239.834 106.549 240.253 106.971 240.593C107.393 240.932 107.878 241.185 108.397 241.337C108.917 241.489 109.462 241.537 110 241.479V241.499Z" fill="white"/>
<path d="M134.7 230.52C132.44 230.76 124.59 233.52 124.84 235.74C125.09 237.96 133.33 238.96 135.59 238.74C136.136 238.692 136.668 238.536 137.153 238.28C137.637 238.024 138.067 237.674 138.414 237.25C138.762 236.827 139.022 236.338 139.179 235.812C139.336 235.287 139.386 234.736 139.326 234.191C139.267 233.645 139.1 233.118 138.834 232.638C138.568 232.159 138.209 231.737 137.778 231.398C137.348 231.059 136.853 230.809 136.325 230.664C135.796 230.518 135.244 230.479 134.7 230.55V230.52Z" fill="white"/>
<path d="M109.69 231.14C111.46 232.57 118.93 236.2 120.36 234.43C121.79 232.66 116.63 226.14 114.86 224.71C114.442 224.339 113.952 224.058 113.422 223.882C112.891 223.706 112.331 223.639 111.774 223.687C111.217 223.734 110.675 223.893 110.182 224.156C109.689 224.418 109.254 224.778 108.904 225.214C108.553 225.649 108.295 226.152 108.145 226.69C107.994 227.228 107.955 227.791 108.028 228.345C108.102 228.899 108.287 229.433 108.572 229.913C108.858 230.393 109.238 230.811 109.69 231.14Z" fill="white"/>
<path d="M135.001 240.88C133.231 239.45 125.761 235.819 124.341 237.589C122.921 239.359 128.061 245.879 129.841 247.299C130.261 247.657 130.747 247.926 131.273 248.092C131.798 248.258 132.352 248.317 132.9 248.265C133.449 248.213 133.981 248.052 134.466 247.791C134.951 247.53 135.379 247.174 135.724 246.744C136.07 246.315 136.325 245.821 136.476 245.291C136.627 244.761 136.67 244.206 136.602 243.659C136.535 243.112 136.358 242.585 136.083 242.107C135.808 241.63 135.44 241.212 135.001 240.88Z" fill="white"/>
<path d="M117.46 248.639C118.89 246.869 122.52 239.399 120.74 237.979C118.96 236.559 112.46 241.699 111.03 243.479C110.346 244.332 110.029 245.422 110.148 246.508C110.267 247.595 110.813 248.59 111.665 249.274C112.518 249.959 113.608 250.276 114.694 250.157C115.781 250.038 116.776 249.492 117.46 248.639Z" fill="white"/>
<path d="M127.19 223.37C125.77 225.15 122.13 232.61 123.91 234.04C125.69 235.47 132.19 230.31 133.62 228.54C133.991 228.121 134.272 227.632 134.448 227.102C134.624 226.571 134.69 226.01 134.643 225.454C134.596 224.897 134.437 224.355 134.174 223.862C133.911 223.368 133.552 222.933 133.116 222.583C132.68 222.233 132.178 221.975 131.64 221.824C131.102 221.674 130.539 221.634 129.985 221.708C129.431 221.781 128.897 221.967 128.417 222.252C127.937 222.538 127.519 222.918 127.19 223.37Z" fill="white"/>
</g>
<path d="M117.469 236.539C117.575 237.497 117.963 238.403 118.584 239.141C119.205 239.879 120.03 240.417 120.956 240.687C121.882 240.956 122.867 240.945 123.787 240.655C124.707 240.365 125.52 239.809 126.124 239.057C126.728 238.305 127.096 237.392 127.18 236.431C127.265 235.47 127.064 234.506 126.601 233.66C126.138 232.814 125.435 232.123 124.581 231.677C123.726 231.23 122.758 231.046 121.799 231.149C121.16 231.217 120.542 231.411 119.978 231.719C119.414 232.028 118.917 232.444 118.515 232.945C118.113 233.446 117.813 234.021 117.634 234.638C117.454 235.254 117.398 235.901 117.469 236.539Z" fill="#191919"/>
<path d="M118.001 300.239C112.371 300.359 102.731 295.159 98.9412 290.079C95.1512 284.999 105.881 288.079 104.761 284.079C103.641 280.079 90.3512 283.079 87.8812 277.259C85.4112 271.439 95.0112 272.769 94.6212 269.799C94.2312 266.829 84.2912 267.459 81.0812 261.299C77.8712 255.139 86.6312 258.559 85.2512 256.009C83.8712 253.459 72.8812 242.709 77.4612 240.449C82.0412 238.189 92.3412 249.379 95.7912 250.629C99.2412 251.879 100.021 244.119 104.501 247.809C108.981 251.499 105.691 267.719 110.971 269.809C114.901 271.389 113.211 263.979 117.731 265.809C125.611 269.079 120.241 300.189 118.001 300.239Z" fill="#191919"/>
<g opacity="0.2">
<path d="M118.001 300.239C112.371 300.359 102.731 295.159 98.9412 290.079C95.1512 284.999 105.881 288.079 104.761 284.079C103.641 280.079 90.3512 283.079 87.8812 277.259C85.4112 271.439 95.0112 272.769 94.6212 269.799C94.2312 266.829 84.2912 267.459 81.0812 261.299C77.8712 255.139 86.6312 258.559 85.2512 256.009C83.8712 253.459 72.8812 242.709 77.4612 240.449C82.0412 238.189 92.3412 249.379 95.7912 250.629C99.2412 251.879 100.021 244.119 104.501 247.809C108.981 251.499 105.691 267.719 110.971 269.809C114.901 271.389 113.211 263.979 117.731 265.809C125.611 269.079 120.241 300.189 118.001 300.239Z" fill="white"/>
</g>
<path d="M126.051 293.089C126.141 293.249 125.301 294.089 128.051 294.159C134.901 294.439 147.051 293.979 151.561 287.749C158.061 278.859 143.081 279.679 144.561 274.749C146.041 269.819 162.111 273.849 165.251 266.849C168.391 259.849 156.681 261.219 157.251 257.609C157.821 253.999 170.071 258.679 174.121 251.249C178.171 243.819 167.441 247.799 169.121 244.719C170.801 241.639 184.521 228.859 179.001 225.999C173.481 223.139 160.691 236.519 156.471 237.999C152.251 239.479 151.271 226.319 145.731 230.709C140.191 235.099 143.821 254.889 137.351 257.349C132.531 259.179 135.161 252.079 129.211 252.349C121.141 252.679 118.481 280.439 126.051 293.089Z" fill="#191919"/>
<g opacity="0.3">
<path d="M126.051 293.089C126.141 293.249 125.301 294.089 128.051 294.159C134.901 294.439 147.051 293.979 151.561 287.749C158.061 278.859 143.081 279.679 144.561 274.749C146.041 269.819 162.111 273.849 165.251 266.849C168.391 259.849 156.681 261.219 157.251 257.609C157.821 253.999 170.071 258.679 174.121 251.249C178.171 243.819 167.441 247.799 169.121 244.719C170.801 241.639 184.521 228.859 179.001 225.999C173.481 223.139 160.691 236.519 156.471 237.999C152.251 239.479 151.271 226.319 145.731 230.709C140.191 235.099 143.821 254.889 137.351 257.349C132.531 259.179 135.161 252.079 129.211 252.349C121.141 252.679 118.481 280.439 126.051 293.089Z" fill="white"/>
</g>
<path d="M120.92 317.329C120.861 317.323 120.804 317.305 120.753 317.276C120.701 317.247 120.655 317.209 120.619 317.162C120.583 317.115 120.556 317.062 120.541 317.004C120.525 316.947 120.522 316.888 120.53 316.829C126.15 270.829 152.66 252.109 152.93 251.929C152.978 251.896 153.032 251.873 153.089 251.861C153.146 251.849 153.205 251.848 153.262 251.859C153.319 251.87 153.373 251.892 153.422 251.923C153.471 251.955 153.512 251.996 153.545 252.044C153.578 252.092 153.601 252.146 153.613 252.203C153.625 252.26 153.626 252.318 153.615 252.375C153.605 252.432 153.583 252.487 153.551 252.536C153.519 252.584 153.478 252.626 153.43 252.659C153.17 252.849 126.99 271.349 121.43 316.939C121.423 316.998 121.404 317.056 121.374 317.107C121.344 317.159 121.305 317.205 121.257 317.241C121.21 317.277 121.155 317.304 121.098 317.319C121.04 317.334 120.979 317.337 120.92 317.329Z" fill="#263238"/>
<path d="M146.849 258.32C146.759 258.318 146.673 258.288 146.601 258.234C146.529 258.181 146.476 258.106 146.449 258.02C146.411 257.908 146.419 257.784 146.471 257.677C146.524 257.571 146.617 257.489 146.729 257.45C146.899 257.4 150.849 256.15 157.309 257.52C157.424 257.547 157.525 257.617 157.59 257.715C157.655 257.814 157.68 257.934 157.659 258.05C157.635 258.167 157.566 258.269 157.466 258.335C157.367 258.4 157.246 258.424 157.129 258.4C150.909 257.08 147.049 258.29 147.009 258.3C146.958 258.317 146.903 258.324 146.849 258.32Z" fill="#263238"/>
<path d="M142 263.91C141.885 263.907 141.776 263.86 141.695 263.778C141.615 263.695 141.57 263.585 141.57 263.47C141.43 249.55 149.49 238.68 149.57 238.57C149.643 238.48 149.747 238.42 149.862 238.403C149.977 238.387 150.095 238.414 150.19 238.48C150.237 238.516 150.277 238.56 150.307 238.611C150.337 238.662 150.357 238.718 150.366 238.776C150.374 238.835 150.371 238.895 150.356 238.952C150.341 239.009 150.316 239.063 150.28 239.11C150.2 239.21 142.28 249.86 142.46 263.46C142.46 263.578 142.414 263.691 142.332 263.775C142.25 263.859 142.138 263.907 142.02 263.91H142Z" fill="#263238"/>
<path d="M134.06 275.689C134.003 275.688 133.947 275.675 133.895 275.651C133.844 275.627 133.798 275.592 133.76 275.549C133.718 275.508 133.685 275.459 133.662 275.405C133.639 275.351 133.627 275.293 133.627 275.234C133.627 275.176 133.639 275.118 133.662 275.064C133.685 275.009 133.718 274.96 133.76 274.919C133.82 274.869 139.76 269.349 147.6 272.149C147.697 272.199 147.772 272.283 147.812 272.384C147.852 272.486 147.854 272.598 147.818 272.701C147.781 272.803 147.708 272.889 147.613 272.942C147.518 272.995 147.407 273.012 147.3 272.989C140 270.369 134.43 275.519 134.38 275.569C134.338 275.61 134.288 275.642 134.233 275.663C134.178 275.683 134.119 275.692 134.06 275.689Z" fill="#263238"/>
<path d="M129.929 283.91C129.846 283.905 129.765 283.877 129.697 283.829C129.628 283.782 129.573 283.716 129.539 283.64C127.562 278.111 127.069 272.16 128.109 266.38C128.118 266.322 128.138 266.266 128.168 266.216C128.198 266.166 128.239 266.122 128.286 266.088C128.334 266.053 128.388 266.029 128.445 266.015C128.502 266.002 128.561 266 128.619 266.01C128.735 266.03 128.839 266.094 128.908 266.19C128.977 266.285 129.006 266.404 128.989 266.52C128 272.135 128.472 277.91 130.359 283.29C130.382 283.343 130.395 283.401 130.396 283.459C130.397 283.517 130.386 283.574 130.365 283.628C130.343 283.682 130.311 283.731 130.271 283.773C130.231 283.814 130.182 283.847 130.129 283.87C130.066 283.898 129.998 283.911 129.929 283.91Z" fill="#263238"/>
<path d="M121.091 333.77C120.98 333.765 120.875 333.718 120.797 333.638C120.719 333.559 120.674 333.452 120.671 333.34L120.091 321.15C118.381 280.62 90.5914 253.06 90.3114 252.79C90.2449 252.705 90.2116 252.598 90.2175 252.49C90.2234 252.382 90.2682 252.279 90.3436 252.201C90.419 252.124 90.52 252.075 90.628 252.066C90.736 252.057 90.8437 252.087 90.9314 252.15C91.2114 252.43 119.261 280.22 120.981 321.15L121.561 333.34C121.564 333.458 121.521 333.572 121.44 333.658C121.36 333.744 121.249 333.795 121.131 333.8L121.091 333.77Z" fill="#263238"/>
<path d="M101.771 267.999H101.701C101.654 267.996 101.609 267.978 101.571 267.949L101.421 267.899C97.8056 266.388 93.9193 265.633 90.0011 265.679C89.8834 265.682 89.7693 265.638 89.6833 265.558C89.5973 265.478 89.5463 265.367 89.5411 265.249C89.5397 265.19 89.5501 265.131 89.5714 265.076C89.5928 265.021 89.6249 264.971 89.6657 264.928C89.7066 264.885 89.7555 264.851 89.8096 264.827C89.8637 264.803 89.922 264.79 89.9811 264.789C94.0315 264.741 98.0495 265.517 101.791 267.069L101.931 267.129H102.011C102.1 267.172 102.171 267.244 102.213 267.333C102.255 267.423 102.265 267.524 102.241 267.619C102.226 267.731 102.169 267.832 102.082 267.903C101.994 267.973 101.883 268.008 101.771 267.999Z" fill="#263238"/>
<path d="M105.7 273.229C105.642 273.225 105.585 273.21 105.533 273.183C105.481 273.157 105.434 273.12 105.397 273.075C105.36 273.03 105.332 272.978 105.315 272.922C105.298 272.866 105.293 272.807 105.3 272.749C106.37 260.749 100.18 250.939 100.11 250.849C100.054 250.748 100.038 250.63 100.066 250.518C100.094 250.406 100.164 250.309 100.262 250.247C100.36 250.186 100.477 250.164 100.59 250.186C100.704 250.209 100.804 250.274 100.87 250.369C100.93 250.469 107.29 260.549 106.18 272.829C106.175 272.887 106.159 272.943 106.132 272.995C106.105 273.046 106.068 273.092 106.024 273.129C105.979 273.166 105.927 273.194 105.872 273.211C105.816 273.228 105.758 273.234 105.7 273.229Z" fill="#263238"/>
<path d="M109.759 280.159C109.646 280.157 109.538 280.111 109.459 280.029C107.972 278.683 106.173 277.728 104.225 277.25C102.277 276.772 100.241 276.785 98.2991 277.289C98.1837 277.32 98.0609 277.303 97.9578 277.243C97.8547 277.183 97.7796 277.085 97.7491 276.969C97.7341 276.913 97.7305 276.854 97.7385 276.796C97.7466 276.738 97.766 276.683 97.7958 276.632C97.8256 276.582 97.8651 276.538 97.912 276.503C97.9589 276.469 98.0123 276.443 98.0691 276.429C100.159 275.87 102.358 275.852 104.457 276.377C106.557 276.902 108.488 277.952 110.069 279.429C110.111 279.47 110.144 279.519 110.167 279.574C110.19 279.628 110.202 279.686 110.202 279.744C110.202 279.803 110.19 279.861 110.167 279.915C110.144 279.969 110.111 280.018 110.069 280.059C110.027 280.096 109.977 280.124 109.924 280.141C109.871 280.158 109.815 280.164 109.759 280.159Z" fill="#263238"/>
<path d="M114.91 291.579C114.844 291.578 114.779 291.561 114.72 291.529C114.668 291.503 114.621 291.466 114.583 291.422C114.545 291.377 114.517 291.325 114.499 291.269C114.481 291.213 114.475 291.154 114.48 291.096C114.486 291.038 114.503 290.981 114.53 290.929C116.569 286.324 117.392 281.273 116.92 276.259C116.912 276.141 116.95 276.025 117.027 275.935C117.104 275.845 117.213 275.789 117.33 275.779C117.389 275.774 117.448 275.78 117.504 275.798C117.56 275.816 117.612 275.845 117.657 275.883C117.702 275.921 117.738 275.968 117.765 276.02C117.791 276.073 117.807 276.131 117.81 276.189C118.321 281.37 117.462 286.594 115.32 291.339C115.282 291.414 115.223 291.477 115.151 291.519C115.078 291.562 114.994 291.583 114.91 291.579Z" fill="#263238"/>
<path d="M146.16 335.689C146.16 349.899 139.76 361.429 120.4 361.429C101.92 361.429 94.6504 349.899 94.6504 335.689C94.6466 330.528 96.1973 325.486 99.1004 321.219H141.71C144.613 325.486 146.164 330.528 146.16 335.689Z" fill="#191919"/>
<path opacity="0.7" d="M146.16 335.689C146.16 349.899 139.76 361.429 120.4 361.429C101.92 361.429 94.6504 349.899 94.6504 335.689C94.6466 330.528 96.1973 325.486 99.1004 321.219H141.71C144.613 325.486 146.164 330.528 146.16 335.689Z" fill="white"/>
<path d="M294.1 348.859L304.06 347.409L301.55 324.109L291.58 325.559L294.1 348.859Z" fill="#E8BFBF"/>
<path d="M311.721 347.759C312.584 347.693 313.401 347.341 314.041 346.759C314.175 346.589 314.266 346.39 314.306 346.177C314.346 345.965 314.334 345.746 314.271 345.539C314.242 345.411 314.18 345.293 314.093 345.195C314.005 345.097 313.895 345.023 313.771 344.979C312.441 344.499 308.771 347.189 308.391 347.489C308.35 347.52 308.32 347.562 308.304 347.61C308.288 347.658 308.287 347.71 308.301 347.759C308.318 347.804 308.348 347.842 308.387 347.869C308.427 347.896 308.473 347.91 308.521 347.909C309.59 347.954 310.661 347.904 311.721 347.759ZM313.121 345.419C313.269 345.385 313.423 345.385 313.571 345.419C313.623 345.435 313.67 345.465 313.707 345.506C313.744 345.546 313.769 345.596 313.781 345.649C313.822 345.786 313.83 345.931 313.804 346.072C313.778 346.213 313.719 346.346 313.631 346.459C313.121 347.089 311.491 347.459 309.231 347.459C310.415 346.574 311.74 345.898 313.151 345.459L313.121 345.419Z" fill="#191919"/>
<path d="M308.581 347.919H308.661C309.771 347.189 311.761 344.649 311.381 343.559C311.303 343.367 311.16 343.209 310.977 343.112C310.794 343.015 310.583 342.986 310.381 343.029C310.142 343.036 309.906 343.092 309.69 343.194C309.473 343.295 309.279 343.44 309.121 343.619C308.051 344.859 308.261 347.619 308.261 347.699C308.261 347.739 308.271 347.779 308.288 347.815C308.305 347.851 308.33 347.884 308.361 347.909C308.395 347.926 308.432 347.936 308.47 347.938C308.508 347.939 308.546 347.933 308.581 347.919ZM310.251 343.499L310.391 343.429C310.831 343.429 310.881 343.579 310.891 343.629C311.131 344.299 309.801 346.249 308.701 347.149C308.601 345.999 308.871 344.846 309.471 343.859C309.682 343.641 309.967 343.509 310.271 343.489L310.251 343.499Z" fill="#191919"/>
<path d="M303.001 343.28L294.171 345.39C293.979 345.428 293.809 345.537 293.692 345.694C293.576 345.851 293.522 346.045 293.541 346.24L293.831 359.03C293.86 359.242 293.931 359.446 294.04 359.631C294.148 359.815 294.292 359.977 294.463 360.106C294.634 360.235 294.828 360.329 295.036 360.383C295.243 360.437 295.459 360.449 295.671 360.42C295.734 360.425 295.798 360.425 295.861 360.42C299.681 359.42 301.491 358.82 306.351 357.69C309.351 357.01 318.781 356.29 322.651 354.57C326.521 352.85 325.011 348.93 323.251 349.3C317.571 350.52 310.251 348.09 306.141 344.39C305.621 344.08 303.651 343.13 303.001 343.28Z" fill="#263238"/>
<path opacity="0.2" d="M301.55 324.109L302.84 336.119L292.88 337.579L291.58 325.569L301.55 324.109Z" fill="black"/>
<path d="M306.871 331.179L288.441 334.619C288.441 334.619 279.491 321.839 277.801 312.769C276.041 303.319 277.921 271.159 277.801 270.769C272.591 253.169 258.421 207.569 251.591 190.769C247.801 181.469 245.141 175.209 245.141 175.209L247.051 174.779L262.101 168.619L273.101 170.679C273.101 170.679 306.411 238.049 309.901 263.389C312.471 282.289 306.871 331.179 306.871 331.179Z" fill="#191919"/>
<path opacity="0.3" d="M306.871 331.179L288.441 334.619C288.441 334.619 279.491 321.839 277.801 312.769C276.041 303.319 277.921 271.159 277.801 270.769C272.591 253.169 258.421 207.569 251.591 190.769C247.801 181.469 245.141 175.209 245.141 175.209L247.051 174.779L262.101 168.619L273.101 170.679C273.101 170.679 306.411 238.049 309.901 263.389C312.471 282.289 306.871 331.179 306.871 331.179Z" fill="white"/>
<path opacity="0.2" d="M273.46 255.49C268.25 237.89 257.73 211.2 250.89 194.42L246.36 178.42L245.49 175.34L247.08 178.25L264.93 217.79C272.81 233 273.58 255.92 273.46 255.49Z" fill="black"/>
<path d="M192.57 343.379L201.45 347.119L210.92 326.789L202.05 323.049L192.57 343.379Z" fill="#E8BFBF"/>
<path d="M207.23 351.37C207.933 351.81 208.766 351.997 209.59 351.9C209.79 351.847 209.975 351.745 210.126 351.604C210.278 351.462 210.393 351.286 210.46 351.09C210.511 350.975 210.531 350.85 210.519 350.725C210.507 350.601 210.462 350.482 210.39 350.38C209.63 349.26 205.3 349.27 204.82 349.27C204.772 349.274 204.727 349.292 204.688 349.32C204.65 349.348 204.619 349.386 204.6 349.43C204.588 349.474 204.589 349.522 204.603 349.566C204.617 349.611 204.644 349.65 204.68 349.68C205.476 350.32 206.33 350.886 207.23 351.37ZM209.63 350.37C209.768 350.427 209.889 350.52 209.98 350.64C210.004 350.684 210.017 350.734 210.017 350.785C210.017 350.835 210.004 350.885 209.98 350.93C209.933 351.058 209.857 351.173 209.758 351.267C209.66 351.36 209.54 351.43 209.41 351.47C208.65 351.67 207.2 351.03 205.41 349.75C206.836 349.717 208.256 349.931 209.61 350.38L209.63 350.37Z" fill="#191919"/>
<path d="M204.72 349.718H204.8C206.07 349.788 209.04 348.948 209.37 347.898C209.423 347.703 209.406 347.495 209.319 347.312C209.233 347.128 209.084 346.982 208.9 346.898C208.713 346.768 208.5 346.678 208.276 346.635C208.052 346.592 207.822 346.596 207.6 346.648C206.06 346.988 204.69 349.218 204.6 349.308C204.583 349.343 204.574 349.38 204.574 349.418C204.574 349.457 204.583 349.494 204.6 349.528C204.602 349.568 204.614 349.606 204.635 349.639C204.656 349.672 204.685 349.7 204.72 349.718ZM208.51 347.248H208.65C209 347.478 208.94 347.638 208.92 347.688C208.73 348.328 206.61 349.088 205.25 349.168C205.817 348.223 206.672 347.484 207.69 347.058C207.981 347.009 208.281 347.069 208.53 347.228L208.51 347.248Z" fill="#191919"/>
<path d="M203.059 343L195.059 339.64C194.885 339.552 194.685 339.535 194.499 339.591C194.313 339.646 194.156 339.771 194.059 339.94L187.059 349.94C186.961 350.12 186.899 350.318 186.877 350.522C186.856 350.727 186.875 350.933 186.933 351.13C186.992 351.327 187.089 351.511 187.218 351.67C187.348 351.83 187.508 351.962 187.689 352.06L187.859 352.14C191.349 353.57 193.109 354.09 197.499 355.97C200.189 357.13 207.889 361.92 211.849 362.77C215.809 363.62 216.849 359.77 215.289 359.04C210.219 356.77 205.959 350.77 204.849 345.58C204.599 345.08 203.619 343.23 203.059 343Z" fill="#263238"/>
<path opacity="0.2" d="M211.311 327.03L206.181 337.38L197.391 333.44L202.511 323.08L211.311 327.03Z" fill="black"/>
<path d="M213.159 338.309L195.479 328.889C195.479 328.889 192.089 316.299 195.479 308.269C201.999 292.819 218.979 270.099 219.089 269.669C223.619 251.889 231.559 203.179 234.279 185.269C235.779 175.339 236.669 173.199 236.669 173.199L238.539 173.809L265.539 173.859C265.539 173.859 270.639 214.859 251.079 278.259C246.219 294.039 238.079 307.159 224.649 324.909C221.053 329.571 217.218 334.044 213.159 338.309Z" fill="#191919"/>
<path opacity="0.3" d="M213.159 338.309L195.479 328.889C195.479 328.889 192.089 316.299 195.479 308.269C201.999 292.819 218.979 270.099 219.089 269.669C223.619 251.889 231.559 203.179 234.279 185.269C235.779 175.339 236.669 173.199 236.669 173.199L238.539 173.809L265.539 173.859C265.539 173.859 270.639 214.859 251.079 278.259C246.219 294.039 238.079 307.159 224.649 324.909C221.053 329.571 217.218 334.044 213.159 338.309Z" fill="white"/>
<path d="M289.561 140.389C289.971 137.139 291.347 134.087 293.511 131.629C294.061 131.049 296.171 130.169 297.371 129.389C303.241 125.539 315.001 120.729 315.001 120.729L318.631 123.889C318.631 123.889 311.471 130.809 307.211 134.129C306.371 134.789 305.401 135.579 304.381 136.419C302.521 137.959 293.801 143.709 292.141 145.159L289.561 140.389Z" fill="#E8BFBF"/>
<path d="M325.339 118.939L318.629 123.939L314.869 121.169C315.834 119.947 316.873 118.785 317.979 117.689C318.319 117.359 318.589 116.964 318.775 116.528C318.96 116.092 319.057 115.623 319.059 115.149C318.983 113.602 319.329 112.064 320.059 110.699C320.057 110.672 320.057 110.646 320.059 110.619C320.401 110.138 320.873 109.764 321.419 109.541C321.966 109.318 322.565 109.255 323.146 109.36C323.727 109.465 324.266 109.733 324.701 110.133C325.135 110.533 325.446 111.048 325.599 111.619L326.599 115.199C326.782 115.877 326.761 116.594 326.536 117.26C326.312 117.926 325.895 118.51 325.339 118.939Z" fill="#E8BFBF"/>
<path d="M291.7 141.73L289.93 143.35C289.38 142.91 288.51 142.2 287.41 141.28C278.79 134.13 257.18 116.77 265.79 111.82C273.18 107.57 281.02 120.56 284.93 124.47C286.766 126.427 288.357 128.6 289.67 130.94C291.51 134.26 292.87 138.27 291.7 141.73Z" fill="#263238"/>
<path d="M289.659 129.389C286.592 131.632 283.999 134.46 282.029 137.709C282.751 140.072 283.97 142.253 285.606 144.105C287.241 145.958 289.254 147.439 291.509 148.449C294.015 142.765 295.09 136.554 294.639 130.359C293.079 129.999 291.219 129.729 289.659 129.389Z" fill="#263238"/>
<path d="M242.209 110.81C239.119 111.81 235.589 111 233.609 113.57C231.629 116.14 231.039 119.51 231.039 122.75C231.221 127.257 231.912 131.728 233.099 136.08C234.339 141.413 235.582 146.73 236.829 152.03C237.679 155.67 236.779 172.58 237.689 172.86C237.689 172.86 265.959 172.31 273.049 171.31C273.049 171.31 273.659 153.93 274.229 148.01C274.359 146.7 276.349 141.12 276.579 139.72C277.689 133.12 275.519 128.47 273.239 122.17C273.239 122.17 268.239 112.1 265.789 111.82C261.439 111.33 250.799 108 242.209 110.81Z" fill="#263238"/>
<path d="M241 119.139C240.9 118.559 235.88 108.419 231.07 115.509C224.38 125.369 223.93 137.749 223.93 137.749C223.93 137.749 219.82 149.749 222.68 152.409C225.54 155.069 228.68 156.729 230.68 155.239C232.092 154.006 233.218 152.481 233.98 150.769C233.98 150.769 242.78 129.459 241 119.139Z" fill="#263238"/>
<path d="M240.69 107.049C240.202 107.488 239.821 108.033 239.576 108.642C239.332 109.25 239.229 109.907 239.278 110.562C239.326 111.216 239.523 111.851 239.855 112.417C240.186 112.983 240.643 113.466 241.19 113.829C240.896 114.857 240.899 115.947 241.198 116.974C241.497 118.001 242.079 118.922 242.878 119.633C243.677 120.343 244.661 120.813 245.715 120.99C246.77 121.166 247.853 121.041 248.84 120.629C248 122.149 248.95 124.159 250.42 125.099C251.97 125.901 253.676 126.358 255.42 126.439C257.17 126.522 258.85 127.156 260.22 128.249L265.56 120.559C266.344 119.619 266.853 118.48 267.03 117.269C267.08 116.059 266.16 114.719 264.95 114.809C265.556 114.154 265.894 113.295 265.896 112.403C265.898 111.511 265.563 110.65 264.959 109.993C264.355 109.336 263.526 108.931 262.637 108.858C261.747 108.785 260.863 109.049 260.16 109.599C260.245 109.075 260.175 108.536 259.959 108.051C259.742 107.566 259.388 107.155 258.94 106.869C258.031 106.321 257 106.008 255.94 105.959L240.69 107.049Z" fill="#263238"/>
<path d="M243.899 94C245.289 99.1 246.979 108.51 243.609 112.23C249.785 114.896 255.344 118.807 259.939 123.72C261.153 122.604 261.985 121.135 262.319 119.52C262.653 117.905 262.471 116.226 261.799 114.72C261.406 113.764 260.825 112.896 260.089 112.17C259.354 111.443 258.48 110.872 257.519 110.49C253.799 108.91 253.769 105.26 254.389 101.75L243.899 94Z" fill="#E8BFBF"/>
<path opacity="0.2" d="M246 102.689L249.51 103.639C251.015 104.048 252.588 104.14 254.13 103.909C254.001 104.991 254.113 106.087 254.46 107.119C253.285 107.573 252.004 107.676 250.772 107.415C249.54 107.154 248.41 106.54 247.52 105.649C246.871 104.743 246.359 103.745 246 102.689Z" fill="black"/>
<path d="M237.091 89.6499C240.801 97.4899 242.211 100.89 247.931 103.39C256.551 107.16 265.351 100.86 264.051 92.0699C262.871 84.1599 256.991 72.6499 247.841 72.6099C245.826 72.5912 243.841 73.0872 242.072 74.0509C240.303 75.0146 238.809 76.4141 237.732 78.1167C236.656 79.8193 236.032 81.7687 235.919 83.78C235.807 85.7913 236.21 87.798 237.091 89.6099V89.6499Z" fill="#E8BFBF"/>
<path d="M241.17 74.6691C238.46 73.4091 235.1 74.4391 232.84 76.4191C230.58 78.3991 229.15 81.2591 227.84 84.0091C227.051 85.4721 226.446 87.0273 226.04 88.6391C225.635 90.27 225.857 91.9932 226.66 93.4691C227.088 94.1586 227.674 94.7367 228.37 95.1556C229.065 95.5746 229.85 95.8225 230.66 95.8791C231.158 95.9098 231.638 96.076 232.049 96.3597C232.46 96.6434 232.785 97.034 232.99 97.4891C233.195 98.3301 233.195 99.2081 232.99 100.049C232.8 100.865 232.8 101.713 232.99 102.529C233.262 103.171 233.71 103.723 234.281 104.122C234.852 104.522 235.524 104.753 236.22 104.789C237.613 104.828 239 104.604 240.31 104.129C240.709 103.993 241.137 103.965 241.55 104.05C241.963 104.134 242.346 104.327 242.66 104.609C242.82 104.756 242.955 104.928 243.06 105.119C243.162 105.293 243.31 105.434 243.488 105.529C243.665 105.623 243.866 105.667 244.067 105.654C244.268 105.642 244.461 105.574 244.626 105.458C244.791 105.343 244.92 105.184 245 104.999C246.21 102.119 244.45 97.5291 241.83 93.9991C240.44 92.1391 240.51 92.6091 239.97 90.3491C239.51 88.4691 240.2 86.5091 241.04 84.7691C242.17 82.4391 243.61 80.1791 243.16 77.3991C243.075 76.8165 242.85 76.2634 242.503 75.7877C242.156 75.312 241.699 74.928 241.17 74.6691Z" fill="#263238"/>
<path d="M237.319 97.6787C238.554 98.9891 240.259 99.7553 242.059 99.8087C244.449 99.8687 245.059 97.5887 243.899 95.6387C242.899 93.8887 240.359 91.7587 238.199 92.6387C236.039 93.5187 235.819 95.9987 237.319 97.6787Z" fill="#E8BFBF"/>
<path d="M252 88.2603C252.28 88.9403 252.83 89.3103 253.26 89.1303C253.69 88.9503 253.8 88.3003 253.56 87.6303C253.32 86.9603 252.74 86.6303 252.3 86.7603C251.86 86.8903 251.77 87.6003 252 88.2603Z" fill="#263238"/>
<path d="M259.35 85.0999C259.62 85.7899 260.17 86.1499 260.6 85.9799C261.03 85.8099 261.14 85.1499 260.9 84.4799C260.66 83.8099 260.08 83.4799 259.65 83.6099C259.22 83.7399 259.09 84.4499 259.35 85.0999Z" fill="#263238"/>
<path d="M259.461 83.7287L260.851 82.6387C260.851 82.6387 260.551 84.1887 259.461 83.7287Z" fill="#263238"/>
<path d="M257.449 86.5703C259.149 88.2503 260.449 88.5703 262.269 89.7103C262.251 90.1695 262.087 90.6109 261.801 90.9706C261.515 91.3303 261.122 91.5894 260.679 91.7103L257.449 86.5703Z" fill="#ED847E"/>
<path d="M259.901 94.9186C260.219 94.8018 260.527 94.6579 260.821 94.4886C260.867 94.4632 260.901 94.4206 260.916 94.3701C260.931 94.3195 260.926 94.2651 260.901 94.2186C260.872 94.1734 260.827 94.1404 260.776 94.1257C260.724 94.1109 260.669 94.1155 260.621 94.1386C259.856 94.583 258.996 94.8384 258.112 94.8836C257.229 94.9288 256.347 94.7625 255.541 94.3986C255.491 94.374 255.435 94.3696 255.382 94.3864C255.33 94.4032 255.286 94.4399 255.261 94.4886C255.247 94.512 255.238 94.5381 255.234 94.5651C255.231 94.5922 255.233 94.6197 255.24 94.6459C255.248 94.6721 255.26 94.6965 255.278 94.7176C255.295 94.7387 255.316 94.7561 255.341 94.7686C256.052 95.0967 256.822 95.279 257.605 95.3048C258.389 95.3305 259.169 95.1992 259.901 94.9186Z" fill="#263238"/>
<path d="M251.76 82.8099C251.755 82.9016 251.721 82.9895 251.664 83.0612C251.607 83.133 251.528 83.1849 251.44 83.2099C249.52 83.7799 248.67 86.2099 248.67 86.2099C248.652 86.2637 248.624 86.3135 248.587 86.3565C248.55 86.3994 248.505 86.4347 248.454 86.4602C248.404 86.4858 248.348 86.5011 248.292 86.5053C248.235 86.5095 248.179 86.5026 248.125 86.4849C248.071 86.4671 248.021 86.439 247.978 86.402C247.935 86.365 247.9 86.3199 247.874 86.2693C247.849 86.2187 247.834 86.1636 247.829 86.107C247.825 86.0505 247.832 85.9937 247.85 85.9399C247.92 85.8399 248.85 83.0499 251.19 82.3499C251.301 82.3215 251.419 82.3368 251.519 82.3926C251.62 82.4483 251.695 82.5404 251.73 82.6499C251.753 82.6997 251.764 82.7548 251.76 82.8099Z" fill="#263238"/>
<path d="M260.61 81.6284C260.535 81.6814 260.446 81.7099 260.355 81.7099C260.263 81.7099 260.174 81.6814 260.1 81.6284C258.54 80.3684 256.05 81.0584 256.04 81.0684C255.985 81.0853 255.928 81.0912 255.871 81.0857C255.814 81.0802 255.759 81.0635 255.709 81.0365C255.659 81.0096 255.614 80.9728 255.578 80.9285C255.543 80.8842 255.516 80.8332 255.5 80.7784C255.468 80.6684 255.481 80.5505 255.535 80.4496C255.589 80.3488 255.681 80.2731 255.79 80.2384C255.91 80.2384 258.79 79.4184 260.64 80.9384C260.727 81.0124 260.782 81.1164 260.795 81.2296C260.808 81.3429 260.778 81.4568 260.71 81.5484C260.681 81.5809 260.648 81.608 260.61 81.6284Z" fill="#263238"/>
<path d="M252.16 86.8691L253.55 85.7891C253.55 85.7891 253.23 87.3391 252.16 86.8691Z" fill="#263238"/>
<path d="M241.771 73.3594C240.676 73.4558 239.618 73.7993 238.676 74.364C237.734 74.9287 236.932 75.6998 236.331 76.6194C235.531 77.8594 235.251 79.7394 236.431 80.6194C237.033 80.9866 237.726 81.1772 238.431 81.1694C241.431 81.4394 245.221 79.0894 245.221 79.0894C244.051 74.0894 254.481 70.2694 259.621 77.9694C261.131 80.2294 260.721 81.8694 263.231 82.9194C264.411 83.4094 265.971 83.2694 266.731 84.3094C267.981 86.0194 265.571 88.9194 267.101 90.3894C268.151 91.3894 270.531 91.0094 270.681 92.4594C270.741 93.1394 270.301 94.1194 270.951 94.3194C271.311 94.4294 271.651 94.0994 271.881 93.7994C272.506 93.1282 272.965 92.3199 273.221 91.4394C273.343 90.9992 273.316 90.531 273.144 90.1077C272.972 89.6845 272.665 89.33 272.271 89.0994C271.631 88.8094 269.941 89.0994 270.051 89.8194C269.792 88.2334 269.708 86.6237 269.801 85.0194C270.081 83.6794 271.361 82.5094 270.971 81.1894C270.581 79.8694 268.891 79.1894 267.441 79.0094C265.991 78.8294 264.341 78.6194 263.441 77.4594C262.541 76.2994 262.901 74.2994 262.581 72.6894C262.313 71.6832 261.811 70.7545 261.116 69.9794C260.421 69.2043 259.552 68.6046 258.581 68.2294C252.731 65.7194 243.761 66.0794 241.771 73.3594Z" fill="#263238"/>
<path d="M258.24 99.9993L238.24 110.049C235.06 111.643 232.592 114.369 231.322 117.691C230.053 121.014 230.073 124.691 231.38 127.999L241 152.599C242.298 155.904 244.782 158.606 247.967 160.176C251.152 161.747 254.808 162.072 258.22 161.089L279.72 154.889C281.626 154.342 283.398 153.403 284.92 152.132C286.443 150.861 287.683 149.286 288.562 147.507C289.44 145.729 289.937 143.787 290.021 141.805C290.105 139.823 289.774 137.846 289.05 135.999L277.9 107.579C277.181 105.731 276.085 104.053 274.68 102.652C273.276 101.252 271.595 100.16 269.744 99.4462C267.894 98.7327 265.915 98.4134 263.934 98.5086C261.953 98.6039 260.013 99.1116 258.24 99.9993ZM254.93 142.239C253.333 142.865 251.587 143.004 249.911 142.637C248.236 142.27 246.707 141.415 245.518 140.179C244.329 138.943 243.533 137.382 243.231 135.694C242.929 134.005 243.135 132.266 243.822 130.694C244.509 129.123 245.646 127.79 247.091 126.866C248.535 125.941 250.221 125.465 251.936 125.499C253.651 125.533 255.317 126.074 256.724 127.055C258.131 128.036 259.215 129.412 259.84 131.009C260.261 132.071 260.467 133.206 260.448 134.348C260.429 135.491 260.184 136.618 259.728 137.665C259.271 138.712 258.613 139.659 257.789 140.451C256.966 141.243 255.994 141.864 254.93 142.279V142.239Z" fill="#191919"/>
<path d="M258.24 99.9993L238.24 110.049C235.06 111.643 232.592 114.369 231.322 117.691C230.053 121.014 230.073 124.691 231.38 127.999L241 152.599C242.298 155.904 244.782 158.606 247.967 160.176C251.152 161.747 254.808 162.072 258.22 161.089L279.72 154.889C281.626 154.342 283.398 153.403 284.92 152.132C286.443 150.861 287.683 149.286 288.562 147.507C289.44 145.729 289.937 143.787 290.021 141.805C290.105 139.823 289.774 137.846 289.05 135.999L277.9 107.579C277.181 105.731 276.085 104.053 274.68 102.652C273.276 101.252 271.595 100.16 269.744 99.4462C267.894 98.7327 265.915 98.4134 263.934 98.5086C261.953 98.6039 260.013 99.1116 258.24 99.9993ZM254.93 142.239C253.333 142.865 251.587 143.004 249.911 142.637C248.236 142.27 246.707 141.415 245.518 140.179C244.329 138.943 243.533 137.382 243.231 135.694C242.929 134.005 243.135 132.266 243.822 130.694C244.509 129.123 245.646 127.79 247.091 126.866C248.535 125.941 250.221 125.465 251.936 125.499C253.651 125.533 255.317 126.074 256.724 127.055C258.131 128.036 259.215 129.412 259.84 131.009C260.261 132.071 260.467 133.206 260.448 134.348C260.429 135.491 260.184 136.618 259.728 137.665C259.271 138.712 258.613 139.659 257.789 140.451C256.966 141.243 255.994 141.864 254.93 142.279V142.239Z" fill="#191919"/>
<path opacity="0.1" d="M289.05 135.999L277.9 107.579C277.181 105.731 276.085 104.053 274.681 102.652C273.276 101.252 271.595 100.16 269.745 99.4462C267.894 98.7327 265.915 98.4134 263.934 98.5086C261.953 98.6039 260.014 99.1116 258.24 99.9993L252.43 102.999L248.53 104.999L238.25 110.169C235.097 111.759 232.647 114.464 231.377 117.76C230.108 121.055 230.109 124.705 231.38 127.999L241 152.599C242.298 155.904 244.782 158.606 247.967 160.176C251.152 161.747 254.808 162.072 258.22 161.089L279.73 154.889C281.432 154.399 283.027 153.591 284.43 152.509C285.484 151.715 286.417 150.772 287.2 149.709C288.652 147.771 289.584 145.494 289.908 143.095C290.231 140.695 289.936 138.253 289.05 135.999ZM254.93 142.259C253.334 142.883 251.589 143.019 249.916 142.651C248.242 142.284 246.715 141.429 245.527 140.194C244.34 138.959 243.544 137.4 243.242 135.713C242.94 134.027 243.144 132.288 243.829 130.718C244.513 129.147 245.648 127.815 247.09 126.889C248.531 125.963 250.215 125.485 251.928 125.515C253.641 125.545 255.307 126.082 256.715 127.058C258.123 128.034 259.211 129.406 259.84 130.999C260.262 132.062 260.47 133.198 260.452 134.341C260.433 135.484 260.189 136.613 259.732 137.661C259.276 138.709 258.617 139.657 257.793 140.45C256.968 141.242 255.996 141.864 254.93 142.279V142.259Z" fill="white"/>
<path d="M258.44 101.919L239.69 111.339C236.715 112.832 234.406 115.383 233.215 118.491C232.023 121.599 232.036 125.04 233.25 128.139L242.3 151.199C243.509 154.306 245.836 156.849 248.824 158.329C251.812 159.809 255.245 160.119 258.45 159.199L278.61 153.379C280.395 152.864 282.052 151.983 283.477 150.791C284.902 149.599 286.062 148.123 286.884 146.457C287.705 144.791 288.17 142.972 288.249 141.116C288.327 139.26 288.018 137.408 287.34 135.679L276.89 108.999C276.213 107.267 275.181 105.695 273.862 104.384C272.543 103.073 270.964 102.052 269.228 101.386C267.492 100.719 265.635 100.423 263.778 100.514C261.92 100.606 260.102 101.085 258.44 101.919ZM243.69 137.369C243.065 135.773 242.927 134.027 243.294 132.352C243.661 130.677 244.517 129.149 245.752 127.96C246.988 126.771 248.548 125.976 250.236 125.674C251.923 125.372 253.663 125.577 255.234 126.263C256.805 126.949 258.137 128.086 259.062 129.53C259.988 130.973 260.464 132.658 260.431 134.373C260.399 136.087 259.859 137.753 258.88 139.16C257.9 140.567 256.526 141.653 254.93 142.279C253.87 142.696 252.737 142.901 251.598 142.88C250.459 142.859 249.335 142.613 248.291 142.157C247.247 141.701 246.303 141.043 245.513 140.221C244.724 139.4 244.104 138.431 243.69 137.369Z" fill="#191919"/>
<path opacity="0.1" d="M258.44 101.919L239.69 111.339C236.715 112.832 234.406 115.383 233.215 118.491C232.023 121.599 232.036 125.04 233.25 128.139L242.3 151.199C243.509 154.306 245.836 156.849 248.824 158.329C251.812 159.809 255.245 160.119 258.45 159.199L278.61 153.379C280.395 152.864 282.052 151.983 283.477 150.791C284.902 149.599 286.062 148.123 286.884 146.457C287.705 144.791 288.17 142.972 288.249 141.116C288.327 139.26 288.018 137.408 287.34 135.679L276.89 108.999C276.213 107.267 275.181 105.695 273.862 104.384C272.543 103.073 270.964 102.052 269.228 101.386C267.492 100.719 265.635 100.423 263.778 100.514C261.92 100.606 260.102 101.085 258.44 101.919ZM243.69 137.369C243.065 135.773 242.927 134.027 243.294 132.352C243.661 130.677 244.517 129.149 245.752 127.96C246.988 126.771 248.548 125.976 250.236 125.674C251.923 125.372 253.663 125.577 255.234 126.263C256.805 126.949 258.137 128.086 259.062 129.53C259.988 130.973 260.464 132.658 260.431 134.373C260.399 136.087 259.859 137.753 258.88 139.16C257.9 140.567 256.526 141.653 254.93 142.279C253.87 142.696 252.737 142.901 251.598 142.88C250.459 142.859 249.335 142.613 248.291 142.157C247.247 141.701 246.303 141.043 245.513 140.221C244.724 139.4 244.104 138.431 243.69 137.369Z" fill="#191919"/>
<path d="M351.62 92.9992L351.05 93.9992L350.73 94.5792L349.82 96.2292L350.2 100.459C350.22 100.638 350.2 100.819 350.14 100.989C350.078 101.173 349.977 101.342 349.845 101.483C349.712 101.625 349.55 101.736 349.37 101.809L341.47 104.899C341.289 104.971 341.095 105.001 340.901 104.987C340.707 104.974 340.519 104.916 340.35 104.819C340.238 104.763 340.137 104.689 340.05 104.599L335.58 100.049L329.22 102.539L330.14 104.889L323.79 107.369L325.3 111.239L320.63 113.069C320.443 113.142 320.244 113.174 320.044 113.163C319.844 113.153 319.648 113.1 319.47 113.009C319.348 112.951 319.237 112.873 319.14 112.779L316.45 110.249L310.09 112.729L311.61 116.599L304.93 119.219L306.45 123.099C306.51 123.25 306.539 123.411 306.536 123.574C306.533 123.736 306.498 123.896 306.433 124.045C306.368 124.194 306.274 124.328 306.157 124.44C306.04 124.553 305.901 124.641 305.75 124.699L287.46 131.859L279.52 111.609L345.7 85.6992L346.7 86.2292L350.05 87.9592C350.492 88.1785 350.885 88.4851 351.205 88.8605C351.525 89.2359 351.766 89.6724 351.913 90.1435C352.06 90.6145 352.109 91.1105 352.059 91.6013C352.009 92.0922 351.859 92.5677 351.62 92.9992Z" fill="#191919"/>
<g opacity="0.1">
<path d="M351.62 92.9992L351.05 93.9992L350.73 94.5792L349.82 96.2292L350.2 100.459C350.22 100.638 350.2 100.819 350.14 100.989C350.078 101.173 349.977 101.342 349.845 101.483C349.712 101.625 349.55 101.736 349.37 101.809L341.47 104.899C341.289 104.971 341.095 105.001 340.901 104.987C340.707 104.974 340.519 104.916 340.35 104.819C340.238 104.763 340.137 104.689 340.05 104.599L335.58 100.049L329.22 102.539L330.14 104.889L323.79 107.369L325.3 111.239L320.63 113.069C320.443 113.142 320.244 113.174 320.044 113.163C319.844 113.153 319.648 113.1 319.47 113.009C319.348 112.951 319.237 112.873 319.14 112.779L316.45 110.249L310.09 112.729L311.61 116.599L304.93 119.219L306.45 123.099C306.51 123.25 306.539 123.411 306.536 123.574C306.533 123.736 306.498 123.896 306.433 124.045C306.368 124.194 306.274 124.328 306.157 124.44C306.04 124.553 305.901 124.641 305.75 124.699L287.46 131.859L279.52 111.609L345.7 85.6992L346.7 86.2292L350.05 87.9592C350.492 88.1785 350.885 88.4851 351.205 88.8605C351.525 89.2359 351.766 89.6724 351.913 90.1435C352.06 90.6145 352.109 91.1105 352.059 91.6013C352.009 92.0922 351.859 92.5677 351.62 92.9992Z" fill="white"/>
</g>
<path d="M351.359 90.7186L280.599 118.419L278.539 113.219L345.999 86.8086L349.359 88.5286C350.639 89.1886 351.369 89.7986 351.359 90.7186Z" fill="#191919"/>
<path opacity="0.1" d="M351.359 90.7186L280.599 118.419L278.539 113.219L345.999 86.8086L349.359 88.5286C350.639 89.1886 351.369 89.7986 351.359 90.7186Z" fill="black"/>
<path d="M350.001 94.6185L349.321 96.1585C349.315 96.1849 349.315 96.2121 349.321 96.2385L349.711 100.418C349.736 100.567 349.736 100.72 349.711 100.868C349.704 100.894 349.692 100.917 349.674 100.936C349.657 100.955 349.635 100.97 349.611 100.978L341.021 104.358C340.999 104.371 340.975 104.377 340.951 104.377C340.926 104.377 340.902 104.371 340.881 104.358C340.795 104.307 340.717 104.243 340.651 104.168L335.731 99.2285C335.706 99.2113 335.676 99.2021 335.646 99.2021C335.615 99.2021 335.586 99.2113 335.561 99.2285L328.561 101.968C328.522 101.986 328.492 102.017 328.475 102.056C328.459 102.095 328.457 102.139 328.471 102.178L329.301 104.288C329.309 104.308 329.313 104.329 329.313 104.351C329.313 104.372 329.308 104.393 329.3 104.412C329.291 104.432 329.279 104.45 329.264 104.464C329.249 104.479 329.231 104.491 329.211 104.498L323.261 106.838C323.241 106.846 323.223 106.858 323.207 106.873C323.192 106.887 323.18 106.905 323.172 106.925C323.163 106.944 323.159 106.965 323.159 106.986C323.159 107.008 323.163 107.029 323.171 107.048L324.601 110.678C324.61 110.698 324.616 110.719 324.616 110.741C324.617 110.763 324.613 110.784 324.604 110.804C324.596 110.824 324.583 110.842 324.567 110.857C324.551 110.871 324.531 110.882 324.511 110.888L320.151 112.608C320.129 112.621 320.105 112.627 320.081 112.627C320.056 112.627 320.032 112.621 320.011 112.608C319.919 112.557 319.835 112.493 319.761 112.418L316.561 109.478C316.536 109.464 316.509 109.457 316.481 109.457C316.453 109.457 316.425 109.464 316.401 109.478L309.471 112.208C309.45 112.215 309.431 112.226 309.415 112.24C309.399 112.255 309.386 112.273 309.377 112.293C309.369 112.313 309.365 112.334 309.365 112.356C309.366 112.378 309.371 112.399 309.381 112.418L310.841 116.138C310.85 116.158 310.856 116.179 310.856 116.201C310.857 116.223 310.853 116.244 310.844 116.264C310.836 116.284 310.823 116.302 310.807 116.317C310.791 116.331 310.771 116.342 310.751 116.348L284.141 126.818C284.102 126.832 284.06 126.83 284.023 126.813C283.986 126.796 283.956 126.766 283.941 126.728L281.201 119.998C281.187 119.959 281.189 119.915 281.205 119.876C281.222 119.837 281.252 119.806 281.291 119.788L350.631 92.4985C350.661 92.4872 350.693 92.4852 350.724 92.4928C350.756 92.5003 350.784 92.517 350.805 92.5407C350.827 92.5644 350.841 92.594 350.845 92.6257C350.85 92.6574 350.845 92.6897 350.831 92.7185L350.001 94.6185Z" fill="#191919"/>
<path opacity="0.1" d="M350.001 94.6185L349.321 96.1585C349.315 96.1849 349.315 96.2121 349.321 96.2385L349.711 100.418C349.736 100.567 349.736 100.72 349.711 100.868C349.704 100.894 349.692 100.917 349.674 100.936C349.657 100.955 349.635 100.97 349.611 100.978L341.021 104.358C340.999 104.371 340.975 104.377 340.951 104.377C340.926 104.377 340.902 104.371 340.881 104.358C340.795 104.307 340.717 104.243 340.651 104.168L335.731 99.2285C335.706 99.2113 335.676 99.2021 335.646 99.2021C335.615 99.2021 335.586 99.2113 335.561 99.2285L328.561 101.968C328.522 101.986 328.492 102.017 328.475 102.056C328.459 102.095 328.457 102.139 328.471 102.178L329.301 104.288C329.309 104.308 329.313 104.329 329.313 104.351C329.313 104.372 329.308 104.393 329.3 104.412C329.291 104.432 329.279 104.45 329.264 104.464C329.249 104.479 329.231 104.491 329.211 104.498L323.261 106.838C323.241 106.846 323.223 106.858 323.207 106.873C323.192 106.887 323.18 106.905 323.172 106.925C323.163 106.944 323.159 106.965 323.159 106.986C323.159 107.008 323.163 107.029 323.171 107.048L324.601 110.678C324.61 110.698 324.616 110.719 324.616 110.741C324.617 110.763 324.613 110.784 324.604 110.804C324.596 110.824 324.583 110.842 324.567 110.857C324.551 110.871 324.531 110.882 324.511 110.888L320.151 112.608C320.129 112.621 320.105 112.627 320.081 112.627C320.056 112.627 320.032 112.621 320.011 112.608C319.919 112.557 319.835 112.493 319.761 112.418L316.561 109.478C316.536 109.464 316.509 109.457 316.481 109.457C316.453 109.457 316.425 109.464 316.401 109.478L309.471 112.208C309.45 112.215 309.431 112.226 309.415 112.24C309.399 112.255 309.386 112.273 309.377 112.293C309.369 112.313 309.365 112.334 309.365 112.356C309.366 112.378 309.371 112.399 309.381 112.418L310.841 116.138C310.85 116.158 310.856 116.179 310.856 116.201C310.857 116.223 310.853 116.244 310.844 116.264C310.836 116.284 310.823 116.302 310.807 116.317C310.791 116.331 310.771 116.342 310.751 116.348L284.141 126.818C284.102 126.832 284.06 126.83 284.023 126.813C283.986 126.796 283.956 126.766 283.941 126.728L281.201 119.998C281.187 119.959 281.189 119.915 281.205 119.876C281.222 119.837 281.252 119.806 281.291 119.788L350.631 92.4985C350.661 92.4872 350.693 92.4852 350.724 92.4928C350.756 92.5003 350.784 92.517 350.805 92.5407C350.827 92.5644 350.841 92.594 350.845 92.6257C350.85 92.6574 350.845 92.6897 350.831 92.7185L350.001 94.6185Z" fill="black"/>
<path opacity="0.3" d="M248.07 123.999C246.07 124.785 244.348 126.147 243.121 127.911C241.894 129.676 241.218 131.764 241.178 133.913C241.137 136.061 241.735 138.174 242.895 139.983C244.055 141.792 245.725 143.217 247.694 144.077C249.663 144.937 251.843 145.195 253.959 144.817C256.074 144.438 258.03 143.441 259.579 141.952C261.129 140.463 262.202 138.547 262.663 136.448C263.124 134.349 262.952 132.161 262.17 130.159C261.652 128.827 260.876 127.609 259.885 126.578C258.895 125.546 257.711 124.72 256.401 124.148C255.09 123.575 253.68 123.267 252.25 123.242C250.821 123.217 249.4 123.474 248.07 123.999ZM254.93 142.299C253.333 142.925 251.587 143.064 249.911 142.697C248.236 142.33 246.707 141.475 245.518 140.239C244.329 139.003 243.533 137.442 243.231 135.754C242.929 134.066 243.135 132.326 243.822 130.754C244.509 129.183 245.647 127.85 247.091 126.926C248.535 126.001 250.221 125.525 251.936 125.559C253.651 125.593 255.317 126.134 256.724 127.115C258.131 128.096 259.215 129.472 259.84 131.069C260.671 133.207 260.621 135.587 259.701 137.689C258.78 139.79 257.065 141.44 254.93 142.279V142.299Z" fill="white"/>
<path opacity="0.1" d="M287.21 149.7C286.431 150.762 285.501 151.706 284.45 152.5L248.52 104.91C248.52 104.91 251.69 103.32 252.41 102.84C252.416 102.893 252.433 102.944 252.46 102.99C254 106.32 282.24 143 287.21 149.7Z" fill="white"/>
<path opacity="0.1" d="M281.999 154C281.779 154.1 271.309 157.29 271.309 157.29L259.639 141.84C261.4 140.08 262.503 137.769 262.765 135.293C263.026 132.817 262.429 130.326 261.075 128.237C259.72 126.148 257.689 124.588 255.322 123.816C252.954 123.045 250.394 123.11 248.069 124C247.586 124.181 247.121 124.405 246.679 124.67L236.359 111C236.359 111 245.429 106.68 246.429 106C246.699 107.93 281.999 153.6 281.999 154Z" fill="white"/>
<path d="M239.189 78.9388C238.602 79.635 238.183 80.4565 237.964 81.3401C237.745 82.2237 237.731 83.1459 237.925 84.0356C238.118 84.9252 238.513 85.7587 239.078 86.4718C239.644 87.1849 240.367 87.7586 241.189 88.1488C242.049 88.5488 242.989 88.7388 243.829 89.1488C244.268 89.3257 244.655 89.6097 244.955 89.9748C245.256 90.3399 245.46 90.7745 245.549 91.2388C245.649 92.2388 244.879 93.2388 244.959 94.2388C245.045 94.707 245.227 95.1522 245.494 95.5464C245.761 95.9406 246.106 96.2751 246.509 96.5288C247.319 97.035 248.003 97.7189 248.509 98.5288C248.623 98.7345 248.693 98.9614 248.715 99.1954C248.737 99.4294 248.711 99.6654 248.638 99.8887C248.564 100.112 248.446 100.318 248.29 100.493C248.133 100.669 247.942 100.81 247.729 100.909C247.621 101.099 247.565 101.315 247.565 101.534C247.565 101.753 247.621 101.968 247.729 102.159C247.857 102.289 248.026 102.372 248.207 102.396C248.388 102.419 248.572 102.382 248.729 102.289C249.44 101.844 250.03 101.231 250.447 100.504C250.864 99.7762 251.095 98.957 251.119 98.1188C251.11 97.2883 250.866 96.4772 250.417 95.7786C249.968 95.0799 249.331 94.522 248.579 94.1688C248.484 93.8696 248.45 93.5542 248.479 93.2415C248.508 92.9288 248.6 92.6252 248.749 92.3488C249.199 91.2088 249.659 90.0588 250.119 88.9188C250.193 88.6392 250.205 88.3468 250.155 88.062C250.105 87.7771 249.994 87.5065 249.829 87.2688C249.488 86.9255 249.075 86.6625 248.619 86.4988L245.669 85.2388C244.559 84.7588 241.249 80.3388 245.169 79.0488C244.933 78.5485 244.564 78.123 244.102 77.8195C243.639 77.5159 243.102 77.3461 242.549 77.3288C241.899 77.2973 241.252 77.428 240.666 77.7091C240.079 77.9902 239.572 78.4128 239.189 78.9388Z" fill="#263238"/>
<path d="M244.54 74.1795L244.24 77.6696C245.24 76.0696 247.03 72.9595 246.97 73.0795C246.2 73.4995 245.31 73.7595 244.54 74.1795Z" fill="#263238"/>
<path d="M245.859 76.0901L249.959 72.3001C249.425 72.1152 248.85 72.0847 248.3 72.2121C247.75 72.3394 247.247 72.6195 246.849 73.0201C246.879 72.9301 246.239 74.8701 245.859 76.0901Z" fill="#263238"/>
<path d="M237.529 170.699C232.199 177.319 233.969 182.389 226.609 194.109C235.899 200.989 246.079 202.109 258.729 201.109C260.229 198.459 260.979 195.699 262.479 193.049C264.619 195.709 266.339 197.939 268.479 200.609C275.109 199.609 282.989 197.699 288.229 194.319C283.599 189.009 280.719 182.379 277.759 176.529C276.369 173.779 276.949 172.629 273.259 169.029C261.509 169.569 249.859 169.849 238.119 170.399C238.439 170.449 237.219 170.679 237.529 170.699Z" fill="#263238"/>
<path d="M239 169.59L238.27 172.68C238.16 172.93 238.45 173.16 238.84 173.13L271.23 171.7C271.353 171.714 271.478 171.686 271.582 171.618C271.686 171.55 271.763 171.448 271.8 171.33L271.97 168.26C271.97 168.06 271.7 167.88 271.36 167.91L239.55 169.31C239.442 169.305 239.334 169.329 239.238 169.378C239.142 169.427 239.06 169.5 239 169.59Z" fill="#191919"/>
<path d="M239 169.59L238.27 172.68C238.16 172.93 238.45 173.16 238.84 173.13L271.23 171.7C271.353 171.714 271.478 171.686 271.582 171.618C271.686 171.55 271.763 171.448 271.8 171.33L271.97 168.26C271.97 168.06 271.7 167.88 271.36 167.91L239.55 169.31C239.442 169.305 239.334 169.329 239.238 169.378C239.142 169.427 239.06 169.5 239 169.59Z" fill="#191919"/>
<path d="M246.13 173.14H245.19C245.01 173.14 244.86 173.06 244.87 172.95L245.12 168.95C245.12 168.83 245.29 168.73 245.47 168.73L246.42 168.68C246.59 168.68 246.74 168.76 246.73 168.88L246.48 172.88C246.47 173 246.31 173.13 246.13 173.14Z" fill="#263238"/>
<path d="M269.51 172.129H268.57C268.39 172.129 268.24 172.049 268.25 171.939L268.5 167.939C268.5 167.819 268.67 167.709 268.85 167.709H269.79C269.97 167.709 270.11 167.789 270.1 167.899L269.85 171.899C269.85 171.999 269.7 172.119 269.51 172.129Z" fill="#263238"/>
<path d="M250.311 153.718C250.371 154.008 252.881 158.008 254.861 157.718C255.143 157.68 255.429 157.716 255.693 157.823C255.956 157.93 256.187 158.104 256.361 158.328C257.151 159.328 257.631 159.948 258.161 160.628C258.581 161.165 259.172 161.543 259.835 161.699C260.499 161.855 261.195 161.781 261.811 161.488C262.181 161.318 262.551 161.128 262.921 160.928C263.518 160.616 263.993 160.112 264.269 159.497C264.545 158.882 264.605 158.192 264.441 157.538C264.074 156.064 263.506 154.647 262.751 153.328C262.528 152.859 262.183 152.458 261.751 152.168C259.673 151.373 257.496 150.862 255.281 150.648C253.581 150.718 251.921 152.998 250.311 153.718Z" fill="#E8BFBF"/>
<path d="M255.381 150.529C255.381 150.529 228.801 142.479 223.061 147.839C219.691 150.989 221.281 153.969 223.171 155.839C224.571 157.269 227.621 156.919 229.621 156.839L250.561 154.779L255.381 150.529Z" fill="#E8BFBF"/>
<path d="M240.1 146.849C239.98 146.133 239.685 145.459 239.239 144.886C238.794 144.314 238.214 143.861 237.55 143.569C236.218 143.005 234.802 142.667 233.36 142.569L223.36 141.299C221.563 143.515 220.553 146.266 220.49 149.119C220.561 151.878 221.569 154.53 223.35 156.639C224.95 153.549 227.06 150.369 230.18 148.829C233.3 147.289 236.68 146.229 240.1 146.849Z" fill="#263238"/>
<path opacity="0.1" d="M233.25 98.2994C233.25 98.2394 233.25 98.2094 233.25 98.1994C233.46 98.1394 233.43 98.1794 233.25 98.2994Z" fill="white"/>
<path d="M299.289 55.2607L306.689 69.0007L336.909 43.3407C336.962 43.2946 336.996 43.2303 337.003 43.1605C337.011 43.0908 336.992 43.0206 336.951 42.964C336.909 42.9074 336.848 42.8685 336.779 42.8549C336.71 42.8413 336.639 42.8541 336.579 42.8907L308.249 61.5907L303.889 53.0707L299.289 55.2607Z" fill="#191919"/>
<path d="M282.59 82.63L294.81 69C292.978 67.2165 291.516 65.0894 290.507 62.7404C289.498 60.3913 288.962 57.8664 288.93 55.31C288.93 42.73 302.09 32.5 318.27 32.5C334.45 32.5 347.62 42.73 347.62 55.31C347.62 67.89 334.45 78.11 318.27 78.11C312.575 78.159 306.954 76.824 301.89 74.22L282.59 82.63ZM318.27 33.82C302.81 33.82 290.27 43.47 290.27 55.33C290.311 57.819 290.857 60.2737 291.877 62.5446C292.896 64.8156 294.367 66.8555 296.2 68.54L296.64 68.97L287.59 79.06L302 72.8L302.28 72.95C307.212 75.5419 312.708 76.8748 318.28 76.83C333.75 76.83 346.33 67.19 346.33 55.33C346.33 43.47 333.74 33.82 318.27 33.82Z" fill="#191919"/>
</g>
</g>
<defs>
<clipPath id="clip0_6406_23188">
<rect width="500" height="372" fill="white"/>
</clipPath>
</defs>
</svg>
