<svg width="82" height="84" viewBox="0 0 82 84" fill="none" xmlns="http://www.w3.org/2000/svg">
<rect y="0.925293" width="82" height="83" rx="41" fill="#FFF7F2"/>
<path d="M52.4454 28.1353L42.8204 24.5303C41.8229 24.1628 40.1954 24.1628 39.1979 24.5303L29.5729 28.1353C27.7179 28.8353 26.2129 31.0053 26.2129 32.9828V47.1578C26.2129 48.5753 27.1404 50.4478 28.2779 51.2878L37.9029 58.4803C39.6004 59.7578 42.3829 59.7578 44.0804 58.4803L53.7054 51.2878C54.8429 50.4303 55.7704 48.5753 55.7704 47.1578V32.9828C55.7879 31.0053 54.2829 28.8353 52.4454 28.1353ZM47.0904 37.9353L39.5654 45.4603C39.3029 45.7228 38.9704 45.8453 38.6379 45.8453C38.3054 45.8453 37.9729 45.7228 37.7104 45.4603L34.9104 42.6253C34.4029 42.1178 34.4029 41.2778 34.9104 40.7703C35.4179 40.2628 36.2579 40.2628 36.7654 40.7703L38.6554 42.6603L45.2529 36.0628C45.7604 35.5553 46.6004 35.5553 47.1079 36.0628C47.6154 36.5703 47.6154 37.4278 47.0904 37.9353Z" fill="#B3561B"/>
</svg>
