<svg width="49" height="48" viewBox="0 0 49 48" fill="none" xmlns="http://www.w3.org/2000/svg">
<rect x="1" y="0.5" width="47" height="47" rx="23.5" fill="white"/>
<rect x="1" y="0.5" width="47" height="47" rx="23.5" stroke="#F2F2F2"/>
<path d="M30.3917 33.66C29.2484 34.7683 28 34.5933 26.7984 34.0683C25.5267 33.5317 24.36 33.5083 23.0184 34.0683C21.3384 34.7917 20.4517 34.5817 19.4484 33.66C13.755 27.7917 14.595 18.855 21.0584 18.5283C22.6334 18.61 23.73 19.3917 24.6517 19.4617C26.0284 19.1817 27.3467 18.3767 28.8167 18.4817C30.5784 18.6217 31.9084 19.3217 32.7834 20.5817C29.1434 22.7633 30.0067 27.5583 33.3434 28.9C32.6784 30.65 31.815 32.3883 30.38 33.6717L30.3917 33.66ZM24.535 18.4583C24.36 15.8567 26.4717 13.71 28.8984 13.5C29.2367 16.51 26.1684 18.75 24.535 18.4583Z" fill="#201E20"/>
</svg>
