<svg width="50" height="50" viewBox="0 0 50 50" fill="none" xmlns="http://www.w3.org/2000/svg">
<circle cx="25" cy="25" r="25" fill="white"/>
<g clip-path="url(#clip0_6014_45624)">
<path d="M32.9688 10H17.0312C13.148 10 10 13.148 10 17.0312V32.9688C10 36.852 13.148 40 17.0312 40H32.9688C36.852 40 40 36.852 40 32.9688V17.0312C40 13.148 36.852 10 32.9688 10Z" fill="#5865F2"/>
<mask id="mask0_6014_45624" style="mask-type:luminance" maskUnits="userSpaceOnUse" x="13" y="15" width="24" height="20">
<path d="M13.2812 15.9766H36.7188V34.1324H13.2812V15.9766Z" fill="white"/>
</mask>
<g mask="url(#mask0_6014_45624)">
<path d="M33.122 17.5934C31.6025 16.8959 29.9989 16.3985 28.3514 16.1137C28.3364 16.1109 28.3209 16.1129 28.3072 16.1195C28.2934 16.126 28.2821 16.1367 28.2747 16.15C28.0687 16.5164 27.8404 16.9945 27.6807 17.3702C25.8792 17.1004 24.087 17.1004 22.3225 17.3702C22.1627 16.986 21.9262 16.5164 21.7193 16.15C21.7116 16.137 21.7002 16.1265 21.6865 16.12C21.6728 16.1135 21.6575 16.1113 21.6425 16.1137C19.9949 16.3979 18.3912 16.8953 16.8719 17.5934C16.8589 17.5989 16.8479 17.6084 16.8405 17.6204C13.8021 22.1598 12.9698 26.5876 13.3781 30.9605C13.3792 30.9713 13.3825 30.9816 13.3877 30.9911C13.393 31.0005 13.4001 31.0087 13.4086 31.0154C15.4132 32.4876 17.3551 33.3814 19.2609 33.9738C19.2757 33.9782 19.2916 33.978 19.3063 33.9732C19.321 33.9684 19.3338 33.9592 19.3432 33.9468C19.794 33.3311 20.1958 32.682 20.5405 31.9994C20.5452 31.9901 20.5479 31.9798 20.5484 31.9693C20.5489 31.9589 20.5472 31.9484 20.5433 31.9386C20.5395 31.9289 20.5336 31.9201 20.5261 31.9127C20.5186 31.9054 20.5097 31.8998 20.4998 31.8962C19.8623 31.6543 19.2554 31.3596 18.6716 31.0248C18.6609 31.0185 18.652 31.0097 18.6456 30.9992C18.6391 30.9886 18.6354 30.9767 18.6347 30.9644C18.6339 30.9521 18.6362 30.9397 18.6414 30.9285C18.6465 30.9173 18.6544 30.9075 18.6642 30.9001C18.7873 30.808 18.9084 30.7131 19.0272 30.6155C19.0376 30.6069 19.0502 30.6014 19.0636 30.5996C19.077 30.5978 19.0906 30.5997 19.1029 30.6052C22.9387 32.3565 27.0913 32.3565 30.8817 30.6052C30.8941 30.5994 30.9078 30.5971 30.9214 30.5988C30.935 30.6004 30.9478 30.6059 30.9584 30.6146C31.0774 30.7127 31.1988 30.8079 31.3224 30.9001C31.3323 30.9075 31.3402 30.9172 31.3454 30.9284C31.3506 30.9395 31.353 30.9518 31.3524 30.9641C31.3518 30.9764 31.3481 30.9884 31.3418 30.999C31.3354 31.0096 31.3266 31.0184 31.316 31.0248C30.7318 31.3658 30.1199 31.657 29.4868 31.8952C29.477 31.899 29.468 31.9048 29.4606 31.9122C29.4532 31.9197 29.4474 31.9286 29.4436 31.9384C29.4399 31.9483 29.4382 31.9588 29.4388 31.9693C29.4394 31.9798 29.4422 31.9901 29.4471 31.9994C29.7977 32.6766 30.1975 33.3272 30.6433 33.9459C30.6524 33.9585 30.6652 33.9681 30.68 33.9731C30.6947 33.9781 30.7107 33.9783 30.7256 33.9738C32.6407 33.3814 34.5826 32.4876 36.5873 31.0154C36.5959 31.009 36.6031 31.001 36.6083 30.9917C36.6136 30.9824 36.6168 30.9721 36.6178 30.9615C37.1065 25.9059 35.7992 21.5143 33.1524 17.6213C33.1459 17.6087 33.1351 17.5988 33.122 17.5934ZM21.1133 28.2979C19.9584 28.2979 19.0068 27.2377 19.0068 25.9356C19.0068 24.6336 19.94 23.5734 21.1133 23.5734C22.2957 23.5734 23.238 24.643 23.2195 25.9356C23.2195 27.2377 22.2865 28.2979 21.1133 28.2979ZM28.9011 28.2979C27.7462 28.2979 26.7948 27.2377 26.7948 25.9356C26.7948 24.6336 27.7278 23.5734 28.9011 23.5734C30.0835 23.5734 31.0258 24.643 31.0074 25.9356C31.0074 27.2377 30.0835 28.2979 28.9011 28.2979Z" fill="white"/>
</g>
</g>
<defs>
<clipPath id="clip0_6014_45624">
<rect width="30" height="30" fill="white" transform="translate(10 10)"/>
</clipPath>
</defs>
</svg>
