<svg width="49" height="48" viewBox="0 0 49 48" fill="none" xmlns="http://www.w3.org/2000/svg">
<rect x="1" y="0.5" width="47" height="47" rx="23.5" fill="white"/>
<rect x="1" y="0.5" width="47" height="47" rx="23.5" stroke="#F2F2F2"/>
<g clip-path="url(#clip0_3089_19042)">
<path d="M38.5 24C38.5 16.2681 32.2319 10 24.5 10C16.7681 10 10.5 16.2681 10.5 24C10.5 30.9877 15.6196 36.7797 22.3125 37.8299V28.0469H18.7578V24H22.3125V20.9156C22.3125 17.4069 24.4027 15.4687 27.6006 15.4687C29.1322 15.4687 30.7344 15.7422 30.7344 15.7422V19.1875H28.9691C27.2299 19.1875 26.6875 20.2667 26.6875 21.3739V24H30.5703L29.9496 28.0469H26.6875V37.8299C33.3804 36.7797 38.5 30.9879 38.5 24Z" fill="#1877F2"/>
<path d="M29.9496 28.0469L30.5703 24H26.6875V21.3739C26.6875 20.2666 27.2299 19.1875 28.9691 19.1875H30.7344V15.7422C30.7344 15.7422 29.1322 15.4688 27.6005 15.4688C24.4027 15.4688 22.3125 17.4069 22.3125 20.9156V24H18.7578V28.0469H22.3125V37.8299C23.0361 37.9433 23.7675 38.0002 24.5 38C25.2325 38.0002 25.9639 37.9434 26.6875 37.8299V28.0469H29.9496Z" fill="white"/>
</g>
<defs>
<clipPath id="clip0_3089_19042">
<rect width="28" height="28" fill="white" transform="translate(10.5 10)"/>
</clipPath>
</defs>
</svg>
