<svg width="49" height="48" viewBox="0 0 49 48" fill="none" xmlns="http://www.w3.org/2000/svg">
<rect x="1" y="0.5" width="47" height="47" rx="23.5" fill="white"/>
<rect x="1" y="0.5" width="47" height="47" rx="23.5" stroke="#F2F2F2"/>
<path d="M35.9394 21.7138H34.9997V21.6654H24.4997V26.332H31.0931C30.1312 29.0486 27.5464 30.9987 24.4997 30.9987C20.6339 30.9987 17.4997 27.8644 17.4997 23.9987C17.4997 20.1329 20.6339 16.9987 24.4997 16.9987C26.2841 16.9987 27.9075 17.6719 29.1436 18.7714L32.4435 15.4715C30.3598 13.5296 27.5727 12.332 24.4997 12.332C18.0568 12.332 12.833 17.5558 12.833 23.9987C12.833 30.4416 18.0568 35.6654 24.4997 35.6654C30.9426 35.6654 36.1663 30.4416 36.1663 23.9987C36.1663 23.2164 36.0858 22.4529 35.9394 21.7138Z" fill="#FFC107"/>
<path d="M14.1787 18.5684L18.0118 21.3795C19.049 18.8117 21.5608 16.9987 24.5002 16.9987C26.2846 16.9987 27.908 17.6719 29.1441 18.7714L32.444 15.4715C30.3604 13.5296 27.5732 12.332 24.5002 12.332C20.019 12.332 16.1329 14.8619 14.1787 18.5684Z" fill="#FF3D00"/>
<path d="M24.4995 35.6651C27.513 35.6651 30.2512 34.5119 32.3214 32.6364L28.7106 29.5809C27.4999 30.5017 26.0205 30.9997 24.4995 30.9984C21.465 30.9984 18.8884 29.0635 17.9178 26.3633L14.1133 29.2945C16.0441 33.0728 19.9653 35.6651 24.4995 35.6651Z" fill="#4CAF50"/>
<path d="M35.9397 21.7164H35V21.668H24.5V26.3346H31.0934C30.6333 27.6275 29.8045 28.7573 28.7093 29.5844L28.7111 29.5832L32.3219 32.6387C32.0664 32.8709 36.1667 29.8346 36.1667 24.0013C36.1667 23.2191 36.0862 22.4555 35.9397 21.7164Z" fill="#1976D2"/>
</svg>
