<svg width="50" height="50" viewBox="0 0 50 50" fill="none" xmlns="http://www.w3.org/2000/svg">
<circle cx="25" cy="25" r="25" fill="white"/>
<g clip-path="url(#clip0_6014_45606)">
<path d="M31.375 13H18.625C15.5184 13 13 15.5184 13 18.625V31.375C13 34.4816 15.5184 37 18.625 37H31.375C34.4816 37 37 34.4816 37 31.375V18.625C37 15.5184 34.4816 13 31.375 13Z" fill="url(#paint0_radial_6014_45606)"/>
<path d="M31.375 13H18.625C15.5184 13 13 15.5184 13 18.625V31.375C13 34.4816 15.5184 37 18.625 37H31.375C34.4816 37 37 34.4816 37 31.375V18.625C37 15.5184 34.4816 13 31.375 13Z" fill="url(#paint1_radial_6014_45606)"/>
<path d="M25.0008 15.625C22.4548 15.625 22.1352 15.6362 21.1353 15.6816C20.1372 15.7274 19.4559 15.8853 18.8598 16.1172C18.2432 16.3566 17.7201 16.677 17.1991 17.1982C16.6775 17.7194 16.3572 18.2424 16.117 18.8588C15.8845 19.4551 15.7263 20.1366 15.6814 21.1342C15.6367 22.1342 15.625 22.4539 15.625 25.0001C15.625 27.5463 15.6363 27.8648 15.6816 28.8647C15.7276 29.8628 15.8855 30.5441 16.1172 31.1402C16.3568 31.7568 16.6772 32.2799 17.1984 32.8009C17.7194 33.3225 18.2424 33.6436 18.8586 33.883C19.4552 34.1148 20.1365 34.2728 21.1344 34.3186C22.1344 34.364 22.4538 34.3752 24.9997 34.3752C27.5461 34.3752 27.8646 34.364 28.8646 34.3186C29.8626 34.2728 30.5447 34.1148 31.1412 33.883C31.7576 33.6436 32.2799 33.3225 32.8007 32.8009C33.3223 32.2799 33.6425 31.7568 33.8828 31.1404C34.1133 30.5441 34.2715 29.8626 34.3184 28.8649C34.3633 27.865 34.375 27.5463 34.375 25.0001C34.375 22.4539 34.3633 22.1344 34.3184 21.1344C34.2715 20.1363 34.1133 19.4552 33.8828 18.8591C33.6425 18.2424 33.3223 17.7194 32.8007 17.1982C32.2793 16.6768 31.7578 16.3564 31.1406 16.1173C30.543 15.8853 29.8613 15.7273 28.8632 15.6816C27.8632 15.6362 27.5448 15.625 24.9979 15.625H25.0008ZM24.1598 17.3145C24.4095 17.3141 24.688 17.3145 25.0008 17.3145C27.5041 17.3145 27.8007 17.3235 28.7892 17.3684C29.7032 17.4102 30.1994 17.5629 30.5298 17.6913C30.9674 17.8611 31.2793 18.0643 31.6072 18.3925C31.9353 18.7206 32.1384 19.0331 32.3088 19.4706C32.4371 19.8006 32.59 20.2968 32.6316 21.2108C32.6765 22.1991 32.6863 22.4959 32.6863 24.9979C32.6863 27.4999 32.6765 27.7968 32.6316 28.7851C32.5898 29.6991 32.4371 30.1952 32.3088 30.5253C32.1389 30.9629 31.9353 31.2744 31.6072 31.6023C31.2791 31.9305 30.9676 32.1335 30.5298 32.3035C30.1997 32.4324 29.7032 32.5848 28.7892 32.6266C27.8009 32.6715 27.5041 32.6812 25.0008 32.6812C22.4975 32.6812 22.2008 32.6715 21.2126 32.6266C20.2985 32.5844 19.8024 32.4317 19.4717 32.3033C19.0342 32.1333 18.7217 31.9303 18.3935 31.6022C18.0654 31.274 17.8623 30.9623 17.692 30.5246C17.5637 30.1945 17.4108 29.6984 17.3691 28.7843C17.3242 27.796 17.3152 27.4992 17.3152 24.9956C17.3152 22.4921 17.3242 22.1968 17.3691 21.2085C17.4109 20.2944 17.5637 19.7983 17.692 19.4678C17.862 19.0303 18.0654 18.7178 18.3936 18.3897C18.7218 18.0616 19.0342 17.8584 19.4717 17.6882C19.8022 17.5592 20.2985 17.4069 21.2126 17.3649C22.0774 17.3258 22.4126 17.3141 24.1598 17.3121V17.3145ZM30.0052 18.8711C29.3841 18.8711 28.8802 19.3745 28.8802 19.9957C28.8802 20.6168 29.3841 21.1207 30.0052 21.1207C30.6263 21.1207 31.1302 20.6168 31.1302 19.9957C31.1302 19.3746 30.6263 18.8707 30.0052 18.8707V18.8711ZM25.0008 20.1856C22.3421 20.1856 20.1864 22.3413 20.1864 25.0001C20.1864 27.6589 22.3421 29.8136 25.0008 29.8136C27.6597 29.8136 29.8146 27.6589 29.8146 25.0001C29.8146 22.3413 27.6595 20.1856 25.0007 20.1856H25.0008ZM25.0008 21.875C26.7267 21.875 28.1259 23.2741 28.1259 25.0001C28.1259 26.7259 26.7267 28.1252 25.0008 28.1252C23.2749 28.1252 21.8759 26.7259 21.8759 25.0001C21.8759 23.2741 23.2749 21.875 25.0008 21.875Z" fill="white"/>
</g>
<defs>
<radialGradient id="paint0_radial_6014_45606" cx="0" cy="0" r="1" gradientUnits="userSpaceOnUse" gradientTransform="translate(19.375 38.8485) rotate(-90) scale(23.7858 22.1227)">
<stop stop-color="#FFDD55"/>
<stop offset="0.1" stop-color="#FFDD55"/>
<stop offset="0.5" stop-color="#FF543E"/>
<stop offset="1" stop-color="#C837AB"/>
</radialGradient>
<radialGradient id="paint1_radial_6014_45606" cx="0" cy="0" r="1" gradientUnits="userSpaceOnUse" gradientTransform="translate(8.97991 14.7288) rotate(78.681) scale(10.6324 43.827)">
<stop stop-color="#3771C8"/>
<stop offset="0.128" stop-color="#3771C8"/>
<stop offset="1" stop-color="#6600FF" stop-opacity="0"/>
</radialGradient>
<clipPath id="clip0_6014_45606">
<rect width="24" height="24" fill="white" transform="translate(13 13)"/>
</clipPath>
</defs>
</svg>
