<svg width="50" height="50" viewBox="0 0 50 50" fill="none" xmlns="http://www.w3.org/2000/svg">
<circle cx="25" cy="25" r="25" fill="white"/>
<g clip-path="url(#clip0_6014_45618)">
<path d="M13.5082 24.8564C13.5076 26.8728 14.0345 28.8418 15.0364 30.5772L13.4124 36.5067L19.4804 34.9156C21.1588 35.8293 23.0393 36.3081 24.9502 36.3082H24.9552C31.2636 36.3082 36.3988 31.1749 36.4015 24.8654C36.4027 21.808 35.2131 18.933 33.0518 16.77C30.8909 14.6072 28.0169 13.4155 24.9548 13.4141C18.6457 13.4141 13.5109 18.5471 13.5083 24.8564" fill="url(#paint0_linear_6014_45618)"/>
<path d="M13.0995 24.8527C13.0989 26.9417 13.6447 28.981 14.6822 30.7786L13 36.9207L19.2857 35.2726C21.0176 36.2168 22.9675 36.7147 24.9517 36.7154H24.9568C31.4915 36.7154 36.8112 31.3975 36.814 24.8621C36.8151 21.6949 35.5827 18.7166 33.3442 16.4761C31.1054 14.2359 28.1287 13.0013 24.9568 13C18.421 13 13.1021 18.3172 13.0995 24.8527ZM16.8428 30.469L16.6081 30.0965C15.6215 28.5277 15.1007 26.7149 15.1015 24.8534C15.1036 19.4213 19.5245 15.0019 24.9606 15.0019C27.5931 15.003 30.0672 16.0292 31.928 17.8912C33.7887 19.7533 34.8127 22.2287 34.812 24.8614C34.8096 30.2935 30.3887 34.7135 24.9568 34.7135H24.9529C23.1843 34.7126 21.4497 34.2376 19.9369 33.34L19.5769 33.1265L15.8469 34.1045L16.8428 30.4689V30.469Z" fill="url(#paint1_linear_6014_45618)"/>
<path d="M21.9933 19.8975C21.7713 19.4042 21.5377 19.3942 21.3267 19.3856C21.1538 19.3781 20.9563 19.3787 20.7589 19.3787C20.5613 19.3787 20.2403 19.453 19.9689 19.7493C19.6973 20.0458 18.9319 20.7625 18.9319 22.2201C18.9319 23.6777 19.9936 25.0864 20.1416 25.2843C20.2897 25.4817 22.1911 28.5686 25.2025 29.7562C27.7052 30.743 28.2145 30.5468 28.7577 30.4973C29.3009 30.448 30.5106 29.7808 30.7574 29.089C31.0043 28.3973 31.0043 27.8043 30.9303 27.6804C30.8563 27.557 30.6587 27.4829 30.3624 27.3348C30.066 27.1866 28.6095 26.4698 28.3379 26.371C28.0663 26.2722 27.8688 26.2229 27.6712 26.5195C27.4737 26.8157 26.9063 27.4829 26.7334 27.6804C26.5606 27.8785 26.3877 27.9031 26.0915 27.755C25.795 27.6063 24.8409 27.2938 23.7089 26.2846C22.8282 25.4993 22.2336 24.5296 22.0607 24.2329C21.8879 23.9367 22.0422 23.7762 22.1908 23.6285C22.3239 23.4958 22.4871 23.2826 22.6354 23.1096C22.7831 22.9366 22.8324 22.8132 22.9312 22.6156C23.0301 22.4178 22.9806 22.2448 22.9067 22.0966C22.8324 21.9484 22.2567 20.4832 21.9933 19.8975Z" fill="white"/>
</g>
<defs>
<linearGradient id="paint0_linear_6014_45618" x1="1162.87" y1="2322.67" x2="1162.87" y2="13.4141" gradientUnits="userSpaceOnUse">
<stop stop-color="#1FAF38"/>
<stop offset="1" stop-color="#60D669"/>
</linearGradient>
<linearGradient id="paint1_linear_6014_45618" x1="1203.7" y1="2405.07" x2="1203.7" y2="13" gradientUnits="userSpaceOnUse">
<stop stop-color="#F9F9F9"/>
<stop offset="1" stop-color="white"/>
</linearGradient>
<clipPath id="clip0_6014_45618">
<rect width="23.814" height="24" fill="white" transform="translate(13 13)"/>
</clipPath>
</defs>
</svg>
