<svg width="18" height="22" viewBox="0 0 18 22" fill="none" xmlns="http://www.w3.org/2000/svg">
<path d="M14.8917 20.66C13.7484 21.7683 12.5 21.5933 11.2984 21.0683C10.0267 20.5317 8.86003 20.5083 7.51836 21.0683C5.83836 21.7917 4.9517 21.5817 3.94836 20.66C-1.74497 14.7917 -0.904971 5.855 5.55836 5.52833C7.13336 5.61 8.23003 6.39167 9.1517 6.46167C10.5284 6.18167 11.8467 5.37667 13.3167 5.48167C15.0784 5.62167 16.4084 6.32167 17.2834 7.58167C13.6434 9.76333 14.5067 14.5583 17.8434 15.9C17.1784 17.65 16.315 19.3883 14.88 20.6717L14.8917 20.66ZM9.03503 5.45833C8.86003 2.85667 10.9717 0.71 13.3984 0.5C13.7367 3.51 10.6684 5.75 9.03503 5.45833Z" fill="#201E20"/>
</svg>
