<svg width="482" height="434" viewBox="0 0 482 434" fill="none" xmlns="http://www.w3.org/2000/svg">
<g clip-path="url(#clip0_6406_23081)">
<mask id="mask0_6406_23081" style="mask-type:luminance" maskUnits="userSpaceOnUse" x="0" y="0" width="482" height="434">
<path d="M482 0H0V434H482V0Z" fill="white"/>
</mask>
<g mask="url(#mask0_6406_23081)">
<path d="M455.692 84.1765C454.106 81.5099 452.439 78.8765 450.692 76.2765C427.522 41.9265 387.632 18.4365 348.392 7.81653C331.176 3.23681 313.489 0.65645 295.682 0.126527C179.062 -3.87347 132.612 88.1265 94.0722 111.797C55.5322 135.467 -3.80781 176.037 0.19219 261.027C4.19219 346.017 65.4122 426.027 184.002 431.027C302.592 436.027 310.502 382.607 376.712 362.837C420.532 349.757 451.712 305.577 466.912 264.747C487.692 209.087 486.712 136.817 455.692 84.1765Z" fill="#191919"/>
<path opacity="0.7" d="M455.692 84.1765C454.106 81.5099 452.439 78.8765 450.692 76.2765C427.522 41.9265 387.632 18.4365 348.392 7.81653C331.176 3.23681 313.489 0.65645 295.682 0.126527C179.062 -3.87347 132.612 88.1265 94.0722 111.797C55.5322 135.467 -3.80781 176.037 0.19219 261.027C4.19219 346.017 65.4122 426.027 184.002 431.027C302.592 436.027 310.502 382.607 376.712 362.837C420.532 349.757 451.712 305.577 466.912 264.747C487.692 209.087 486.712 136.817 455.692 84.1765Z" fill="white"/>
<path d="M429.752 92.1989V88.9089H368.892V40.1289H366.912V88.9089H306.482V92.1989H366.912V137.359H306.482V140.659H366.912V185.819H306.482V189.109H366.912V236.559H368.892V189.109H429.752V185.819H368.892V140.659H429.752V137.359H368.892V92.1989H429.752Z" fill="#263238" stroke="#263238" stroke-miterlimit="10"/>
<path d="M302.312 36.168V241.838H433.492V36.168H302.312ZM429.062 234.888H306.742V43.108H429.062V234.888Z" fill="#263238" stroke="#263238" stroke-miterlimit="10"/>
<path d="M245.192 294.627C245.197 294.614 245.199 294.601 245.199 294.588C245.199 294.574 245.195 294.561 245.19 294.549C245.184 294.537 245.176 294.526 245.166 294.517C245.157 294.508 245.145 294.501 245.132 294.497C245.12 294.492 245.107 294.49 245.093 294.49C245.08 294.491 245.067 294.494 245.055 294.499C245.043 294.505 245.032 294.513 245.023 294.523C245.014 294.533 245.007 294.544 245.002 294.557C242.065 301.593 239.743 308.87 238.062 316.307C236.347 323.744 235.055 331.273 234.192 338.857L233.652 344.557C233.572 345.507 233.462 346.457 233.392 347.407L233.242 350.267C233.162 352.177 233.042 354.087 232.982 355.997L233.042 361.727L233.102 364.587C233.102 365.537 233.212 366.497 233.282 367.447C233.422 369.347 233.542 371.257 233.712 373.157C234.082 376.957 234.652 380.727 235.232 384.497C235.239 384.519 235.252 384.539 235.27 384.553C235.288 384.567 235.309 384.576 235.332 384.577C235.346 384.578 235.36 384.577 235.373 384.573C235.385 384.568 235.397 384.561 235.407 384.551C235.416 384.541 235.424 384.53 235.428 384.517C235.433 384.504 235.434 384.49 235.432 384.477C235.432 382.567 235.342 380.677 235.302 378.767C235.262 376.857 235.082 374.987 235.112 373.087C235.142 371.187 235.112 369.287 235.052 367.397L234.992 364.557V361.717V356.037L235.142 350.367L235.202 347.527C235.202 346.577 235.312 345.637 235.362 344.687L235.712 339.017C236.357 331.466 237.429 323.957 238.922 316.527C240.376 309.059 242.474 301.732 245.192 294.627Z" fill="#263238"/>
<path d="M246.003 324.308C246.009 324.284 246.007 324.259 245.996 324.237C245.985 324.215 245.966 324.197 245.943 324.188C245.93 324.183 245.917 324.181 245.904 324.182C245.89 324.182 245.877 324.185 245.865 324.191C245.853 324.196 245.842 324.204 245.833 324.214C245.824 324.224 245.817 324.236 245.813 324.248C242.571 333.721 240.414 343.53 239.383 353.488C238.883 358.488 238.323 363.428 238.253 368.428C238.134 373.434 238.311 378.443 238.783 383.428C238.788 383.449 238.8 383.467 238.816 383.482C238.832 383.496 238.851 383.505 238.873 383.508C238.885 383.511 238.898 383.511 238.911 383.509C238.924 383.506 238.935 383.501 238.946 383.493C238.956 383.486 238.965 383.476 238.971 383.465C238.978 383.454 238.982 383.441 238.983 383.428C239.563 378.428 239.913 373.488 240.263 368.528C240.613 363.568 240.663 358.598 240.983 353.638C241.663 343.725 243.338 333.906 245.983 324.328L246.003 324.308Z" fill="#263238"/>
<path d="M262.462 334.757C262.444 334.739 262.419 334.729 262.392 334.729C262.366 334.729 262.341 334.739 262.322 334.757C258.207 337.399 254.501 340.63 251.322 344.347C249.726 346.225 248.288 348.232 247.022 350.347L246.142 352.017L245.442 353.757C245.208 354.328 245.008 354.912 244.842 355.507C244.662 356.107 244.462 356.687 244.302 357.287C243.046 362.036 242.285 366.902 242.032 371.807C241.787 376.687 241.968 381.579 242.572 386.427C242.579 386.449 242.592 386.469 242.61 386.483C242.627 386.498 242.649 386.506 242.672 386.507C242.685 386.508 242.698 386.507 242.71 386.503C242.722 386.499 242.733 386.493 242.743 386.485C242.752 386.476 242.76 386.466 242.765 386.454C242.77 386.442 242.772 386.43 242.772 386.417L244.032 371.947C244.374 367.16 244.985 362.396 245.862 357.677C245.992 357.087 246.162 356.527 246.312 355.947C246.447 355.368 246.614 354.797 246.812 354.237L247.402 352.567L248.162 350.987C249.307 348.881 250.625 346.874 252.102 344.987C255.039 341.153 258.519 337.768 262.432 334.937C262.449 334.93 262.463 334.918 262.474 334.904C262.485 334.89 262.492 334.873 262.495 334.855C262.498 334.837 262.497 334.819 262.491 334.802C262.485 334.785 262.475 334.769 262.462 334.757Z" fill="#263238"/>
<path d="M254.493 353.348C252.358 354.906 250.641 356.967 249.493 359.348C248.284 361.692 247.342 364.164 246.683 366.718C246.493 367.348 246.333 367.988 246.193 368.628L245.743 370.548C245.506 371.841 245.342 373.146 245.253 374.458C245.253 375.778 245.203 377.088 245.253 378.398C245.349 379.71 245.519 381.015 245.763 382.308C245.77 382.326 245.78 382.343 245.794 382.357C245.808 382.371 245.825 382.381 245.843 382.388C245.856 382.391 245.87 382.391 245.883 382.388C245.896 382.386 245.909 382.381 245.92 382.373C245.931 382.366 245.941 382.356 245.948 382.345C245.956 382.334 245.961 382.321 245.963 382.308C246.266 381.038 246.5 379.753 246.663 378.458C246.863 377.178 247.063 375.918 247.213 374.648C247.363 373.378 247.563 372.128 247.663 370.858C247.763 369.588 247.933 368.318 248.213 367.078C248.653 364.572 249.371 362.124 250.353 359.778C251.239 357.386 252.679 355.237 254.553 353.508C254.562 353.499 254.569 353.489 254.574 353.478C254.578 353.467 254.581 353.455 254.581 353.443C254.581 353.43 254.578 353.418 254.574 353.407C254.569 353.396 254.562 353.386 254.553 353.378C254.537 353.362 254.516 353.351 254.493 353.348Z" fill="#263238"/>
<path d="M231.413 367.847C230.873 361.427 229.812 355.057 228.812 348.707C227.812 342.357 226.692 336.007 225.532 329.707C224.372 323.407 223.072 317.077 221.702 310.797C221.707 310.782 221.709 310.766 221.706 310.751C221.704 310.735 221.699 310.72 221.689 310.707C221.68 310.695 221.668 310.684 221.654 310.677C221.64 310.67 221.623 310.666 221.607 310.666C221.592 310.666 221.576 310.67 221.562 310.677C221.548 310.684 221.537 310.695 221.527 310.707C221.518 310.72 221.512 310.735 221.51 310.751C221.507 310.766 221.507 310.782 221.512 310.797C222.612 317.137 223.602 323.487 224.512 329.847C225.422 336.207 226.383 342.557 227.193 348.927C228.003 355.297 228.593 361.697 229.383 368.057L231.732 387.187C231.738 387.211 231.751 387.232 231.769 387.248C231.786 387.264 231.81 387.274 231.833 387.277C231.861 387.277 231.886 387.267 231.907 387.249C231.927 387.23 231.941 387.205 231.943 387.177C232.013 385.567 232.013 383.957 232.053 382.337C232.093 380.717 231.983 379.117 231.963 377.507C231.933 374.277 231.653 371.067 231.413 367.847Z" fill="#263238"/>
<path d="M227.562 367.758C227.212 365.208 226.752 362.678 226.262 360.158L225.362 356.408C225.062 355.158 224.782 353.908 224.422 352.668C223.14 347.685 221.495 342.802 219.502 338.058L218.732 336.288L217.882 334.558C217.332 333.398 216.682 332.288 216.052 331.158C214.79 328.911 213.229 326.846 211.412 325.018C211.404 325.009 211.394 325.002 211.383 324.997C211.372 324.993 211.36 324.99 211.347 324.99C211.335 324.99 211.323 324.993 211.312 324.997C211.301 325.002 211.291 325.009 211.282 325.018C211.264 325.037 211.254 325.062 211.254 325.088C211.254 325.114 211.264 325.139 211.282 325.158C212.975 327.053 214.401 329.169 215.522 331.448C216.082 332.588 216.672 333.708 217.152 334.888L217.912 336.638L218.582 338.428C220.359 343.188 221.79 348.071 222.862 353.038C223.442 355.508 223.862 358.038 224.312 360.528L224.912 364.288C225.132 365.538 225.402 366.788 225.572 368.048C225.972 370.558 226.442 373.048 226.872 375.578C227.302 378.108 227.722 380.578 228.262 383.128C228.266 383.15 228.277 383.171 228.293 383.187C228.309 383.203 228.33 383.214 228.352 383.218C228.38 383.218 228.407 383.208 228.427 383.189C228.447 383.171 228.46 383.145 228.462 383.118C228.462 380.551 228.402 377.985 228.282 375.418C228.132 372.858 227.822 370.308 227.562 367.758Z" fill="#263238"/>
<path d="M222.242 368.087C221.052 364.707 219.672 361.407 218.172 358.177C216.66 354.948 214.95 351.815 213.052 348.797C213.047 348.783 213.039 348.771 213.029 348.761C213.018 348.751 213.006 348.743 212.992 348.738C212.978 348.733 212.964 348.731 212.949 348.733C212.935 348.734 212.921 348.739 212.908 348.746C212.896 348.754 212.885 348.764 212.877 348.776C212.868 348.788 212.863 348.801 212.86 348.815C212.858 348.83 212.859 348.844 212.862 348.859C212.866 348.873 212.873 348.886 212.882 348.897C214.533 352.032 215.993 355.265 217.252 358.577C218.552 361.857 219.732 365.197 220.712 368.577C221.692 371.957 222.442 375.407 223.342 378.807C224.242 382.207 225.052 385.637 226.102 389.077C226.108 389.096 226.12 389.113 226.136 389.126C226.152 389.138 226.172 389.146 226.192 389.147C226.22 389.147 226.246 389.137 226.267 389.118C226.287 389.1 226.3 389.074 226.302 389.047C226.34 385.458 226.005 381.876 225.302 378.357C224.559 374.857 223.536 371.422 222.242 368.087Z" fill="#263238"/>
<path d="M222.022 379.317C221.367 377.213 220.414 375.213 219.192 373.377C218.055 371.497 216.669 369.778 215.072 368.267C214.257 367.527 213.381 366.858 212.452 366.267C211.526 365.672 210.514 365.22 209.452 364.927C209.43 364.923 209.407 364.927 209.387 364.938C209.367 364.949 209.351 364.966 209.342 364.987C209.327 365.005 209.318 365.029 209.318 365.052C209.318 365.076 209.327 365.099 209.342 365.117C211.238 366.031 212.918 367.337 214.272 368.947C215.64 370.522 216.793 372.27 217.702 374.147C218.702 375.987 219.182 378.027 220.032 379.937C220.402 380.937 220.772 381.887 221.212 382.867C221.571 383.897 222.002 384.899 222.502 385.867C222.512 385.882 222.525 385.895 222.541 385.904C222.557 385.912 222.574 385.917 222.592 385.917C222.605 385.919 222.618 385.917 222.63 385.914C222.642 385.91 222.653 385.903 222.663 385.895C222.672 385.886 222.68 385.876 222.685 385.864C222.69 385.853 222.692 385.84 222.692 385.827C222.733 384.729 222.692 383.63 222.572 382.537C222.502 381.447 222.282 380.377 222.022 379.317Z" fill="#263238"/>
<path d="M222.422 319.957C219.206 319.067 216.295 317.315 214.004 314.889C211.712 312.464 210.128 309.458 209.422 306.197C206.992 294.857 214.822 299.717 207.802 281.897C200.782 264.077 202.402 260.027 204.802 254.897C207.202 249.767 208.582 251.387 210.742 258.137C212.902 264.887 220.742 275.417 223.742 295.137C226.742 314.857 222.422 319.957 222.422 319.957Z" fill="#191919"/>
<path d="M243.192 300.798C243.192 300.798 236.192 298.368 235.902 285.138C235.612 271.908 241.032 274.608 241.842 258.138C242.652 241.668 243.732 230.058 246.702 229.788C249.672 229.518 257.502 237.888 260.202 256.248C262.902 274.608 256.692 286.758 251.292 292.158C245.892 297.558 243.192 300.798 243.192 300.798Z" fill="#191919"/>
<path d="M218.643 335.887C218.643 335.887 217.023 326.167 213.783 321.577C210.543 316.987 203.523 312.937 198.933 304.037C194.343 295.137 189.213 290.807 189.483 303.497C189.753 316.187 195.423 322.657 202.483 326.977C209.543 331.297 218.643 335.887 218.643 335.887Z" fill="#191919"/>
<path d="M215.671 352.628C215.671 352.628 209.191 340.208 199.741 331.028C190.291 321.848 182.741 317.258 185.431 321.848C188.121 326.438 191.371 326.168 195.961 334.268C200.551 342.368 199.201 348.268 205.681 352.898C212.161 357.528 215.671 352.628 215.671 352.628Z" fill="#191919"/>
<path d="M214.862 368.557C214.592 367.747 214.322 361.807 205.142 356.947C195.962 352.087 187.322 353.947 188.402 356.407C189.482 358.867 195.152 362.887 200.822 365.317C206.492 367.747 214.862 368.557 214.862 368.557Z" fill="#191919"/>
<path d="M242.663 336.427C242.663 336.427 238.613 331.297 240.773 320.497C242.933 309.697 247.773 312.397 253.193 306.727C258.613 301.057 257.513 300.257 262.913 294.317C268.313 288.377 273.173 285.137 275.333 287.567C277.493 289.997 274.253 297.567 271.013 301.877C267.773 306.187 262.643 308.347 260.193 313.707C257.743 319.067 258.843 327.707 252.633 331.797C246.423 335.887 242.663 336.427 242.663 336.427Z" fill="#191919"/>
<path d="M256.191 339.397C256.191 339.397 265.911 328.327 272.931 320.227C279.951 312.127 282.651 305.927 282.931 311.317C283.211 316.707 285.361 321.037 279.691 328.057C274.021 335.077 256.191 339.397 256.191 339.397Z" fill="#191919"/>
<path d="M251.034 357.218C251.034 357.218 250.764 352.898 266.154 342.908C281.544 332.918 288.024 331.028 286.404 335.078C284.784 339.128 278.034 343.178 270.744 350.468C263.454 357.758 251.034 357.218 251.034 357.218Z" fill="#191919"/>
<path d="M223.063 318.807C223.063 318.807 219.453 299.447 215.673 285.677C211.893 271.907 209.463 263.537 209.463 263.537" stroke="#263238" stroke-linecap="round" stroke-linejoin="round"/>
<path d="M242.582 300.998C242.582 300.998 249.142 279.998 251.302 267.318C253.462 254.638 251.032 245.178 249.952 239.508" stroke="#263238" stroke-linecap="round" stroke-linejoin="round"/>
<path d="M217.791 335.488C214.884 330.487 211.555 325.743 207.841 321.308C201.901 314.308 197.311 310.508 194.611 303.768" stroke="#263238" stroke-linecap="round" stroke-linejoin="round"/>
<path d="M242.662 336.427C242.662 336.427 244.822 323.427 249.952 316.717C255.082 310.007 265.342 299.447 269.392 292.717" stroke="#263238" stroke-linecap="round" stroke-linejoin="round"/>
<path d="M214.193 368.257C214.193 368.257 205.113 362.347 198.633 359.107" stroke="#263238" stroke-linecap="round" stroke-linejoin="round"/>
<path d="M244.081 425.517H225.321L215.941 378.547H253.461L244.081 425.517Z" fill="#263238" stroke="#263238" stroke-linecap="round" stroke-linejoin="round"/>
<path d="M55.9922 425.518H481.172" stroke="#263238" stroke-miterlimit="10"/>
<path d="M22.373 425.518H48.743" stroke="#263238" stroke-miterlimit="10"/>
<path d="M207.08 137.67V106.17H204.23V65.86C204.231 62.5958 203.59 59.3633 202.341 56.3472C201.093 53.3311 199.263 50.5905 196.955 48.2819C194.647 45.9733 191.908 44.142 188.892 42.8925C185.876 41.6431 182.644 41 179.38 41H45.86C39.2667 41 32.9435 43.6192 28.2813 48.2813C23.6192 52.9435 21 59.2667 21 65.86V383.29C21 389.883 23.6192 396.207 28.2813 400.869C32.9435 405.531 39.2667 408.15 45.86 408.15H179.38C182.644 408.15 185.876 407.507 188.892 406.257C191.908 405.008 194.647 403.177 196.955 400.868C199.263 398.559 201.093 395.819 202.341 392.803C203.59 389.787 204.231 386.554 204.23 383.29V164.52H207.08V145.91H204.23V137.67H207.08Z" fill="#707070" stroke="#263238" stroke-linejoin="round"/>
<path d="M175.021 404.719H50.2109C43.2277 404.719 36.5306 401.945 31.5928 397.007C26.6549 392.07 23.8809 385.372 23.8809 378.389V70.7593C23.8809 56.2093 31.3409 44.4193 50.2109 44.4193H175.021C192.331 44.1893 201.361 56.2093 201.361 70.7593V378.389C201.361 381.848 200.68 385.272 199.356 388.468C198.032 391.663 196.091 394.566 193.645 397.011C191.199 399.456 188.296 401.395 185.1 402.718C181.904 404.04 178.479 404.721 175.021 404.719Z" fill="#263238" stroke="#263238" stroke-linejoin="round"/>
<path d="M122.279 48.4692L122.229 48.6592C120.769 54.0992 117.409 57.6592 113.689 57.6592H111.549C107.829 57.6592 104.469 54.1392 103.009 48.6592V48.4692L50.9291 48.2892C48.0455 48.28 45.1884 48.8398 42.5215 49.9366C39.8546 51.0335 37.4304 52.6457 35.3876 54.6811C33.3449 56.7164 31.7238 59.1348 30.6172 61.7976C29.5107 64.4605 28.9404 67.3155 28.9391 70.1992L28.8691 375.139C28.8691 389.349 39.9891 400.869 53.7191 400.869H171.559C185.289 400.869 196.419 389.349 196.419 375.139V68.0092C196.419 63.0079 194.448 58.2083 190.932 54.6513C187.416 51.0944 182.64 49.0671 177.639 49.0092L122.279 48.4692Z" fill="white" stroke="#263238" stroke-miterlimit="10"/>
<path d="M196.399 73.5499V68.0099C196.399 63.0087 194.428 58.209 190.912 54.652C187.396 51.0951 182.62 49.0678 177.619 49.0099L122.279 48.4399L122.229 48.6299C120.769 54.0699 117.409 57.6299 113.689 57.6299H111.549C107.829 57.6299 104.469 54.1099 103.009 48.6299V48.4399L50.9295 48.2599C48.0433 48.2507 45.1838 48.8115 42.5149 49.9102C39.8461 51.0089 37.4205 52.6239 35.3773 54.6624C33.3342 56.7009 31.7137 59.1228 30.6089 61.7891C29.5041 64.4555 28.9368 67.3137 28.9395 70.1999V73.5499H196.399Z" fill="#DBDBDB" stroke="#263238" stroke-miterlimit="10"/>
<path d="M114.44 47.8693C114.44 47.406 114.302 46.9532 114.045 46.5682C113.787 46.1832 113.421 45.8833 112.993 45.7065C112.565 45.5296 112.094 45.4839 111.64 45.575C111.185 45.6661 110.768 45.89 110.442 46.2182C110.115 46.5465 109.893 46.9644 109.804 47.4189C109.714 47.8735 109.762 48.3443 109.941 48.7717C110.119 49.1991 110.421 49.5639 110.807 49.8198C111.193 50.0757 111.647 50.2113 112.11 50.2093C112.417 50.2093 112.72 50.1487 113.004 50.031C113.287 49.9132 113.544 49.7407 113.761 49.5233C113.977 49.3059 114.149 49.0478 114.265 48.764C114.382 48.4802 114.441 48.1761 114.44 47.8693Z" fill="#707070"/>
<path d="M45.3403 53.8101C45.3403 56.1801 42.6903 57.0301 42.6803 58.8101V58.9301H45.2503V59.7201H41.8203V59.0701C41.8203 56.5401 44.4703 56.0701 44.4703 53.8501C44.4703 53.0401 44.2003 52.6201 43.5503 52.6201C42.9003 52.6201 42.6303 53.0801 42.6303 53.7701V54.4601H41.8203V53.8301C41.8203 52.6301 42.3603 51.8301 43.5703 51.8301C44.7803 51.8301 45.3403 52.6701 45.3403 53.8101Z" fill="#263238"/>
<path d="M49.6296 53.8008V54.0008C49.6634 54.3431 49.5838 54.687 49.4032 54.9796C49.2225 55.2723 48.9507 55.4976 48.6296 55.6208C48.9527 55.7411 49.2265 55.9658 49.4076 56.2592C49.5887 56.5526 49.6668 56.898 49.6296 57.2408V57.8408C49.6296 59.0408 49.0696 59.8408 47.8596 59.8408C46.6496 59.8408 46.0996 59.0608 46.0996 57.8408V57.3108H46.9396V57.9008C46.9396 58.6008 47.2296 59.0308 47.8596 59.0308C48.4896 59.0308 48.7696 58.6108 48.7696 57.8208V57.2208C48.7696 56.4408 48.4496 56.0708 47.7696 56.0508H47.2996V55.2708H47.8096C47.9458 55.2723 48.0806 55.2442 48.2049 55.1885C48.3291 55.1327 48.4397 55.0507 48.5291 54.948C48.6185 54.8453 48.6845 54.7244 48.7226 54.5936C48.7607 54.4629 48.7699 54.3254 48.7496 54.1908V53.8408C48.7496 53.0308 48.4696 52.6208 47.8396 52.6208C47.2096 52.6208 46.9196 53.0508 46.9196 53.7608V54.1608H46.0996V53.8008C46.0996 52.6108 46.6596 51.8008 47.8596 51.8008C49.0596 51.8008 49.6296 52.6108 49.6296 53.8008Z" fill="#263238"/>
<path d="M51.3205 54.4004V55.4804H50.4805V54.4004H51.3205ZM51.3205 58.6604V59.7404H50.4805V58.6704L51.3205 58.6604Z" fill="#263238"/>
<path d="M53.0797 55.1002C53.1957 54.8944 53.3664 54.7248 53.5729 54.6101C53.7794 54.4953 54.0137 54.44 54.2497 54.4502C55.2497 54.4502 55.6997 55.1902 55.6997 56.3102V57.8402C55.6997 59.0402 55.1297 59.8402 53.9397 59.8402C52.7497 59.8402 52.1797 59.0602 52.1797 57.8402V57.3202H52.9897V57.9002C52.9897 58.6002 53.2897 59.0302 53.9097 59.0302C54.5297 59.0302 54.8297 58.6002 54.8297 57.9002V56.3802C54.8297 55.6702 54.5397 55.2502 53.9097 55.2502C53.796 55.2447 53.6825 55.2625 53.5759 55.3022C53.4693 55.342 53.372 55.403 53.2897 55.4816C53.2074 55.5601 53.1419 55.6546 53.0972 55.7592C53.0525 55.8638 53.0295 55.9764 53.0297 56.0902V56.2602H52.2097L52.4197 51.9102H55.5097V52.6702H53.2097L53.0797 55.1002Z" fill="#263238"/>
<path d="M60.0595 53.7891V53.9391H59.2395V53.7391C59.2395 53.0291 58.9495 52.6191 58.3095 52.6191C57.6695 52.6191 57.3095 53.0391 57.3095 53.8791V55.6691C57.4001 55.4115 57.572 55.1902 57.7993 55.0387C58.0265 54.8872 58.2969 54.8137 58.5695 54.8291C59.5695 54.8291 60.0295 55.5591 60.0295 56.6891V57.8691C60.0295 59.0691 59.4395 59.8691 58.2395 59.8691C57.0395 59.8691 56.4395 59.0891 56.4395 57.8691V53.8691C56.4395 52.6291 56.9995 51.8691 58.2395 51.8691C59.4795 51.8691 60.0595 52.5891 60.0595 53.7891ZM57.3595 56.7191V57.8991C57.3595 58.5991 57.6495 59.0291 58.2895 59.0291C58.9295 59.0291 59.2195 58.5991 59.2195 57.8991V56.7191C59.2195 56.0191 58.9195 55.5891 58.2895 55.5891C57.6595 55.5891 57.3595 56.0191 57.3595 56.7191Z" fill="#263238"/>
<path d="M145.56 54.1406H143.35V59.6706H145.56V54.1406Z" fill="#263238"/>
<path d="M148.511 53.0293H146.301V59.6693H148.511V53.0293Z" fill="#263238"/>
<path d="M151.46 52.2402H149.25V59.6602H151.46V52.2402Z" fill="#263238"/>
<path d="M154.399 50.8691H152.189V59.6591H154.399V50.8691Z" fill="#263238"/>
<path d="M181.77 59.5104H168.5V51.4004H181.77V59.5104ZM169.24 58.7804H181.03V52.1404H169.24V58.7804Z" fill="#263238"/>
<path d="M177.35 52.9395H170.35V57.9695H177.35V52.9395Z" fill="#263238"/>
<path d="M182.981 54.5H181.311V56.41H182.981V54.5Z" fill="#263238"/>
<path d="M163.639 57.7504C163.548 57.7523 163.457 57.728 163.379 57.6804C160.679 56.0704 158.899 57.5604 158.819 57.6304C158.727 57.7214 158.603 57.7724 158.474 57.7724C158.345 57.7724 158.221 57.7214 158.129 57.6304C158.038 57.5369 157.986 57.4112 157.986 57.2804C157.986 57.1495 158.038 57.0238 158.129 56.9304C158.229 56.8504 160.509 54.9304 163.849 56.9304C163.939 56.9879 164.007 57.0723 164.045 57.1715C164.083 57.2707 164.089 57.3794 164.061 57.4819C164.033 57.5844 163.973 57.6754 163.89 57.7417C163.807 57.8079 163.705 57.846 163.599 57.8504L163.639 57.7504Z" fill="#263238"/>
<path d="M164.641 56.0809C164.549 56.0829 164.459 56.0586 164.381 56.0109C160.481 53.6909 157.851 55.9409 157.831 56.0109C157.731 56.0793 157.609 56.1088 157.488 56.094C157.368 56.0793 157.257 56.0212 157.176 55.9306C157.095 55.84 157.05 55.7231 157.049 55.6017C157.048 55.4803 157.092 55.3628 157.171 55.2709C157.171 55.2709 160.371 52.5309 164.891 55.2109C164.947 55.2439 164.997 55.2877 165.036 55.34C165.075 55.3922 165.103 55.4518 165.119 55.5151C165.135 55.5785 165.138 55.6444 165.128 55.7089C165.118 55.7734 165.095 55.8353 165.061 55.8909C165.013 55.9553 164.949 56.0064 164.875 56.0396C164.802 56.0728 164.721 56.087 164.641 56.0809Z" fill="#263238"/>
<path d="M165.539 54.1493C165.451 54.1499 165.364 54.1256 165.289 54.0793C160.349 51.1393 157.059 53.9093 156.919 54.0793C156.873 54.1259 156.819 54.1628 156.759 54.1881C156.698 54.2134 156.634 54.2264 156.569 54.2264C156.504 54.2264 156.439 54.2134 156.379 54.1881C156.319 54.1628 156.264 54.1259 156.219 54.0793C156.176 54.0313 156.143 53.975 156.122 53.9139C156.101 53.8528 156.092 53.7881 156.097 53.7237C156.102 53.6592 156.119 53.5964 156.149 53.539C156.178 53.4815 156.219 53.4306 156.269 53.3893C156.269 53.3893 160.209 50.0093 165.799 53.3293C165.911 53.3977 165.991 53.5073 166.023 53.6345C166.055 53.7617 166.035 53.8963 165.969 54.0093C165.914 54.0655 165.846 54.1075 165.771 54.1319C165.696 54.1562 165.616 54.1622 165.539 54.1493Z" fill="#263238"/>
<path d="M162.151 58.5805C162.153 58.8298 162.08 59.074 161.942 59.2817C161.804 59.4893 161.607 59.651 161.377 59.7458C161.146 59.8407 160.892 59.8644 160.648 59.814C160.404 59.7636 160.18 59.6413 160.006 59.4628C159.832 59.2844 159.715 59.0579 159.671 58.8126C159.626 58.5673 159.656 58.3143 159.757 58.0861C159.857 57.8579 160.024 57.665 160.235 57.5321C160.446 57.3992 160.692 57.3325 160.941 57.3405C161.265 57.3483 161.572 57.4824 161.798 57.7141C162.024 57.9458 162.151 58.2568 162.151 58.5805Z" fill="#263238"/>
<path d="M418.692 425.517H409.212L407.182 402.957H420.722L418.692 425.517Z" fill="#263238" stroke="#263238" stroke-miterlimit="10"/>
<path d="M458.172 425.517H448.692L446.662 402.957H460.202L458.172 425.517Z" fill="#263238" stroke="#263238" stroke-miterlimit="10"/>
<path d="M363.422 425.517H353.942L351.922 402.957H365.452L363.422 425.517Z" fill="#263238" stroke="#263238" stroke-miterlimit="10"/>
<path d="M321.121 425.517H311.651L309.621 402.957H323.151L321.121 425.517Z" fill="#263238" stroke="#263238" stroke-miterlimit="10"/>
<path d="M366.363 257.605H464.883C464.883 257.605 465.273 291.855 460.203 316.105C455.133 340.355 448.923 355.015 448.923 355.015H355.303C355.303 355.015 369.193 301.375 366.363 257.605Z" fill="white" stroke="#263238" stroke-miterlimit="10"/>
<path d="M407.253 262.836C398.613 262.156 395.183 260.416 388.723 256.836C380.313 252.226 378.513 255.296 379.113 259.906C379.713 264.516 370.943 294.906 369.113 310.206C367.283 325.506 367.903 333.736 367.903 333.736C367.903 333.736 362.503 338.346 366.103 339.876C368.419 340.837 370.838 341.525 373.313 341.926H442.973C442.973 341.926 455.353 278.316 456.553 268.086C457.753 257.856 452.353 256.836 449.343 258.366C446.333 259.896 445.743 260.926 441.533 261.436C431.693 262.706 419.093 263.756 407.253 262.836Z" fill="#191919"/>
<path d="M384.823 263.866C386.626 261.844 387.894 259.404 388.513 256.766C387.673 256.316 386.903 255.946 386.193 255.646C385.731 258.106 384.604 260.393 382.933 262.256C381.687 263.772 380.141 265.014 378.393 265.906C378.213 266.816 378.013 267.806 377.793 268.906C380.554 267.901 382.985 266.158 384.823 263.866Z" fill="white"/>
<path d="M447.192 283.767C442.782 288.947 442.952 293.547 443.112 298.007C443.272 302.167 443.412 306.087 439.632 310.537C435.852 314.987 431.942 315.457 427.812 315.977C423.392 316.517 418.812 317.087 414.412 322.267C410.012 327.447 410.162 332.047 410.332 336.497C410.458 338.321 410.407 340.153 410.182 341.967H412.702C412.893 340.12 412.93 338.26 412.812 336.407C412.662 332.247 412.512 328.317 416.302 323.877C420.092 319.437 423.982 318.947 428.122 318.437C432.542 317.897 437.122 317.327 441.522 312.147C445.922 306.967 445.762 302.367 445.602 297.907C445.442 293.747 445.302 289.817 449.092 285.377C450.524 283.633 452.356 282.26 454.432 281.377C454.602 280.377 454.772 279.457 454.932 278.547C451.892 279.483 449.199 281.299 447.192 283.767Z" fill="white"/>
<path d="M376.422 340.846C380.852 340.296 385.422 339.726 389.832 334.546C394.242 329.366 394.072 324.766 393.912 320.316C393.752 316.156 393.612 312.226 397.392 307.786C401.172 303.346 405.082 302.856 409.212 302.346C413.632 301.796 418.212 301.236 422.612 296.056C427.012 290.876 426.862 286.266 426.692 281.816C426.542 277.656 426.392 273.726 430.182 269.286C433.972 264.846 437.872 264.356 442.002 263.846C446.132 263.336 450.262 262.846 454.342 258.706C453.553 258.117 452.587 257.814 451.602 257.846C449.342 259.692 446.587 260.83 443.682 261.116C442.983 261.275 442.275 261.395 441.562 261.476L438.562 261.826C434.523 262.43 430.858 264.529 428.292 267.706C423.872 272.896 424.042 277.496 424.212 281.946C424.362 286.106 424.512 290.036 420.722 294.486C416.932 298.936 413.042 299.406 408.902 299.916C404.482 300.466 399.902 301.026 395.502 306.206C391.102 311.386 391.262 315.996 391.422 320.446C391.582 324.606 391.722 328.536 387.942 332.976C384.162 337.416 380.252 337.906 376.122 338.416C373.218 338.604 370.375 339.337 367.742 340.576C369.05 341.034 370.386 341.408 371.742 341.696C373.279 341.297 374.843 341.013 376.422 340.846Z" fill="white"/>
<path d="M370.933 318.456C375.343 313.276 375.173 308.676 375.013 304.226C374.863 300.056 374.713 296.136 378.503 291.686C382.293 287.236 386.183 286.766 390.313 286.256C394.733 285.706 399.313 285.136 403.723 279.956C408.133 274.776 407.963 270.176 407.803 265.726C407.803 264.726 407.733 263.816 407.743 262.866H407.253L405.253 262.676C405.253 263.746 405.253 264.796 405.303 265.846C405.463 270.006 405.603 273.936 401.823 278.376C398.043 282.816 394.133 283.306 390.003 283.816C385.583 284.366 381.003 284.926 376.593 290.106C372.183 295.286 372.353 299.886 372.523 304.346C372.673 308.506 372.813 312.436 369.033 316.876C368.823 317.126 368.613 317.356 368.393 317.576C368.293 318.846 368.203 320.046 368.133 321.166C369.161 320.365 370.099 319.456 370.933 318.456Z" fill="white"/>
<path d="M407.253 262.836C398.613 262.156 395.183 260.416 388.723 256.836C380.313 252.226 378.513 255.296 379.113 259.906C379.713 264.516 370.943 294.906 369.113 310.206C367.283 325.506 367.903 333.736 367.903 333.736C367.903 333.736 362.503 338.346 366.103 339.876C368.419 340.837 370.838 341.525 373.313 341.926H442.973C442.973 341.926 455.353 278.316 456.553 268.086C457.753 257.856 452.353 256.836 449.343 258.366C446.333 259.896 445.743 260.926 441.533 261.436C431.693 262.706 419.093 263.756 407.253 262.836Z" stroke="#263238" stroke-miterlimit="10"/>
<path d="M366.361 257.605H360.791C359.781 257.605 358.8 257.945 358.007 258.571C357.214 259.197 356.655 260.073 356.421 261.055L349.501 290.055C348.221 295.435 343.841 310.935 339.021 313.645C336.061 315.306 332.725 316.177 329.331 316.175H308.451L317.331 406.945H355.331L365.331 262.415C365.364 262.083 365.364 261.748 365.331 261.415H366.461L366.361 257.605Z" fill="white" stroke="#263238" stroke-miterlimit="10"/>
<path d="M314.021 316.166H334.911C338.305 316.166 341.641 315.295 344.601 313.636C349.421 310.926 353.791 295.426 355.081 290.046L361.991 261.046C362.227 260.064 362.786 259.189 363.579 258.564C364.372 257.938 365.352 257.597 366.361 257.596C366.977 257.596 367.587 257.722 368.151 257.968C368.716 258.213 369.224 258.572 369.645 259.022C370.065 259.472 370.388 260.004 370.594 260.584C370.8 261.165 370.884 261.781 370.841 262.396L360.591 406.936H322.591L314.021 316.166Z" fill="white" stroke="#263238" stroke-miterlimit="10"/>
<path d="M403.233 406.985L405.403 341.965L318.293 341.195L320.473 406.985H403.233Z" fill="white" stroke="#263238" stroke-miterlimit="10"/>
<path d="M470.453 257.605H464.883C463.874 257.607 462.893 257.948 462.101 258.573C461.308 259.199 460.749 260.073 460.513 261.055L453.593 290.055C452.313 295.435 447.943 310.935 443.113 313.645C440.154 315.307 436.817 316.178 433.423 316.175H412.543L416.193 406.935H459.013L469.363 262.405C469.402 262.073 469.402 261.738 469.363 261.405H470.493L470.453 257.605Z" fill="white" stroke="#263238" stroke-miterlimit="10"/>
<path d="M418.111 316.166H439.001C442.395 316.166 445.731 315.295 448.691 313.636C453.511 310.926 457.891 295.426 459.171 290.046L466.091 261.046C466.325 260.065 466.882 259.191 467.673 258.565C468.464 257.939 469.443 257.597 470.451 257.596C471.068 257.594 471.677 257.72 472.243 257.965C472.808 258.209 473.317 258.568 473.738 259.019C474.158 259.469 474.481 260.002 474.687 260.583C474.892 261.164 474.975 261.781 474.931 262.396L464.771 404.706C464.726 405.304 464.457 405.864 464.018 406.274C463.579 406.683 463.002 406.912 462.401 406.916H421.521L418.111 316.166Z" fill="white" stroke="#263238" stroke-miterlimit="10"/>
<path d="M405.401 322.706L403.191 406.986H421.481L424.661 322.706C424.661 321.846 424.492 320.995 424.163 320.201C423.833 319.407 423.351 318.685 422.742 318.078C422.134 317.471 421.412 316.989 420.617 316.661C419.823 316.333 418.971 316.165 418.111 316.166H411.951C411.092 316.165 410.24 316.333 409.446 316.661C408.651 316.989 407.929 317.471 407.32 318.078C406.712 318.685 406.229 319.407 405.9 320.201C405.571 320.995 405.401 321.846 405.401 322.706Z" fill="white" stroke="#263238" stroke-miterlimit="10"/>
<path d="M299.133 322.706L302.273 406.986H320.563L318.383 322.706C318.383 320.972 317.694 319.308 316.468 318.082C315.241 316.855 313.578 316.166 311.843 316.166H305.683C304.824 316.165 303.972 316.333 303.178 316.661C302.383 316.989 301.661 317.471 301.052 318.078C300.444 318.685 299.961 319.407 299.632 320.201C299.303 320.995 299.133 321.846 299.133 322.706Z" fill="white" stroke="#263238" stroke-miterlimit="10"/>
<path d="M318.732 369.936H404.572" stroke="#263238" stroke-miterlimit="10"/>
<path d="M276.742 257.936C276.742 257.936 268.802 302.056 267.062 309.516C265.322 316.976 261.062 355.006 261.062 364.456C261.062 373.906 261.802 402.456 261.802 402.456C261.802 402.456 258.572 403.946 258.572 405.186C258.572 406.426 261.062 414.386 261.062 414.386L275.722 419.856C275.722 419.856 278.722 412.856 278.952 410.406C279.182 407.956 277.212 406.926 277.212 402.696C277.212 398.466 284.672 349.256 286.912 341.056C289.152 332.856 295.612 308.246 296.852 306.006C298.092 303.766 304.312 287.366 304.312 287.366L307.792 289.106C307.792 289.106 310.022 340.806 311.272 344.036C312.522 347.266 329.192 399.906 329.192 399.906C329.192 399.906 326.462 401.146 328.192 404.136C329.922 407.126 332.912 413.826 332.912 413.826C332.912 413.826 335.652 410.096 338.912 409.356C342.172 408.616 347.612 411.836 347.612 411.836C347.612 411.836 350.842 404.376 350.092 400.906C349.342 397.436 346.092 391.456 345.872 389.716C345.652 387.976 338.872 337.856 338.872 337.856C338.872 337.856 340.612 267.756 340.612 263.036C340.519 259.815 339.932 256.628 338.872 253.586C328.444 257.164 317.564 259.258 306.552 259.806C288.902 260.546 279.212 253.346 279.212 253.346L276.742 257.936Z" fill="#263238" stroke="#263238" stroke-miterlimit="10"/>
<path d="M261.101 414.416C261.101 414.416 252.891 421.866 251.401 422.866C249.911 423.866 239.471 427.866 239.721 429.866C239.971 431.866 242.721 433.096 242.721 433.096H276.531C276.531 433.096 276.771 432.096 277.271 427.376C277.51 424.316 276.999 421.244 275.781 418.426L261.101 414.416Z" fill="white" stroke="#263238" stroke-miterlimit="10"/>
<path d="M277.022 429.467L239.902 430.467C240.541 431.597 241.521 432.497 242.702 433.037H276.512C276.512 433.037 276.682 432.367 277.022 429.467Z" fill="white" stroke="#263238" stroke-miterlimit="10"/>
<path d="M332.931 413.826C332.931 413.826 332.681 420.036 332.681 423.276C332.681 426.516 332.191 430.276 332.431 430.976C332.671 431.676 333.181 432.976 333.181 432.976H352.821C352.821 432.976 353.561 430.976 352.571 427.256C351.581 423.536 349.831 421.546 349.341 418.256C348.961 416.054 348.379 413.891 347.601 411.796C347.601 411.796 337.901 404.136 332.931 413.826Z" fill="white" stroke="#263238" stroke-miterlimit="10"/>
<path d="M353.081 430.615C345.611 430.615 336.311 430.375 332.361 430.275C332.36 430.511 332.383 430.745 332.431 430.975C332.681 431.725 333.181 432.975 333.181 432.975H352.821C353.038 432.208 353.126 431.411 353.081 430.615Z" fill="white" stroke="#263238" stroke-miterlimit="10"/>
<path d="M269.692 164.346C269.692 164.346 248.572 184.176 249.492 186.026C250.412 187.876 256.192 202.886 256.192 202.886C256.192 202.886 257.852 212.886 256.932 219.196C256.37 223.187 256.182 227.221 256.372 231.246C258.313 233.693 260.685 235.764 263.372 237.356C267.452 239.586 270.602 243.476 273.202 237.176C275.802 230.876 274.682 219.566 274.682 219.566C274.682 219.566 278.192 233.286 278.782 235.706C279.372 238.126 276.782 257.946 276.782 257.946C276.782 257.946 289.522 268.706 311.192 266.266C332.862 263.826 339.732 256.266 339.732 256.266C339.732 256.266 337.502 231.986 337.502 229.206C337.481 227.285 337.358 225.365 337.132 223.456C337.132 223.456 344.732 231.246 348.442 230.876C352.152 230.506 358.632 215.306 356.962 212.876C355.292 210.446 349.552 200.626 346.032 193.586C343.91 189.343 342.144 184.932 340.752 180.396C340.752 180.396 334.632 159.636 332.752 158.156C330.872 156.676 310.052 156.906 306.342 155.986C301.444 155.022 296.491 154.354 291.512 153.986C290.272 153.966 273.772 157.856 269.692 164.346Z" fill="#191919" stroke="#263238" stroke-miterlimit="10"/>
<path d="M331.991 192.097C331.891 186.777 331.871 182.637 331.871 182.637" stroke="#263238" stroke-miterlimit="10"/>
<path d="M337.192 223.456C335.777 220.572 334.542 217.603 333.492 214.566C332.752 212.356 332.362 204.466 332.152 197.076" stroke="#263238" stroke-miterlimit="10"/>
<path d="M264.121 201.505C262.231 198.205 260.791 195.625 260.611 195.105" stroke="#263238" stroke-miterlimit="10"/>
<path d="M274.702 219.567C274.702 219.567 269.962 211.567 265.982 204.727" stroke="#263238" stroke-miterlimit="10"/>
<path d="M298.793 156.557C299.557 163.081 299.621 169.669 298.983 176.207" stroke="#263238" stroke-miterlimit="10"/>
<path d="M311.262 248.025C313.492 248.475 315.882 248.885 318.432 249.215" stroke="#263238" stroke-miterlimit="10"/>
<path d="M284.332 236.066C284.332 236.066 290.332 242.646 306.332 246.866" stroke="#263238" stroke-miterlimit="10"/>
<path d="M300.643 250.146C307.513 253.23 314.983 254.75 322.513 254.596" stroke="#263238" stroke-miterlimit="10"/>
<path d="M256.354 134.317C256.354 134.317 258.574 144.697 258.764 146.927C258.954 149.157 259.504 152.117 262.284 156.557C265.064 160.997 272.284 170.827 273.774 171.387C275.264 171.947 281.004 170.457 281.004 170.457C281.004 170.457 287.114 182.507 288.784 182.137C290.454 181.767 294.714 168.047 295.274 162.487C295.627 159.721 295.687 156.926 295.454 154.147L292.864 144.887C292.864 144.887 290.644 131.887 290.644 130.987C290.644 130.087 291.934 123.387 284.714 120.607C277.494 117.827 268.584 117.607 262.654 124.497C256.724 131.387 256.354 134.317 256.354 134.317Z" fill="white" stroke="#263238" stroke-miterlimit="10"/>
<path d="M276.193 122.646C273.594 126.591 270.185 129.939 266.193 132.466C259.343 136.916 262.673 132.096 262.673 132.096C262.673 132.096 257.853 135.096 253.963 137.096C250.073 139.096 251.553 139.696 250.073 139.096C248.593 138.496 243.073 122.716 255.463 115.096C267.853 107.476 276.893 109.486 276.893 109.486C276.893 109.486 271.513 107.076 276.333 107.076C281.153 107.076 283.193 109.706 283.193 109.706C283.193 109.706 285.783 108.966 286.893 110.446C287.379 110.975 287.987 111.376 288.663 111.616C294.663 114.156 296.753 119.836 297.883 125.766C298.623 129.656 295.473 138.926 295.473 138.926L290.273 141.706C289.013 140.558 287.993 139.171 287.273 137.626C286.8 136.128 286.55 134.568 286.533 132.996C286.533 132.996 283.383 137.066 282.823 134.106C282.263 131.146 280.823 123.546 280.823 123.546C280.823 123.546 281.383 126.546 279.533 126.546C277.683 126.546 276.193 122.646 276.193 122.646Z" fill="#263238" stroke="#263238" stroke-miterlimit="10"/>
<path d="M289.892 143.026C289.892 143.026 289.712 136.726 293.422 134.686C297.132 132.646 299.722 134.876 298.602 140.806C297.482 146.736 290.822 148.956 290.822 148.956" fill="white"/>
<path d="M289.892 143.026C289.892 143.026 289.712 136.726 293.422 134.686C297.132 132.646 299.722 134.876 298.602 140.806C297.482 146.736 290.822 148.956 290.822 148.956" stroke="#263238" stroke-miterlimit="10"/>
<path d="M281.002 170.457L290.822 160.637L284.332 175.647L281.002 170.457Z" fill="#263238" stroke="#263238" stroke-miterlimit="10"/>
<path d="M276.463 160.527C276.671 160.89 276.734 161.319 276.639 161.727C276.545 162.135 276.299 162.492 275.953 162.727C275.283 162.997 274.433 162.447 274.053 161.497C273.673 160.547 273.903 159.557 274.563 159.287C275.223 159.017 276.073 159.577 276.463 160.527Z" fill="#263238"/>
<path d="M279.023 143.366C279.383 144.546 279.123 145.666 278.453 145.876C277.783 146.086 276.923 145.296 276.563 144.126C276.203 142.956 276.463 141.836 277.133 141.626C277.803 141.416 278.663 142.196 279.023 143.366Z" fill="#263238"/>
<path d="M266.853 145.427C267.213 146.607 266.953 147.727 266.273 147.937C265.593 148.147 264.753 147.367 264.393 146.187C264.033 145.007 264.283 143.897 264.963 143.687C265.643 143.477 266.483 144.257 266.853 145.427Z" fill="#263238"/>
<path d="M267.293 140.807C268.116 141.479 268.775 142.328 269.224 143.291C269.672 144.253 269.898 145.305 269.883 146.367C269.883 150.077 269.323 155.637 269.323 155.637L276.003 154.707" stroke="#263238" stroke-miterlimit="10"/>
<path d="M271.732 138.396C271.732 138.396 275.072 132.466 280.262 133.576" stroke="#263238" stroke-miterlimit="10"/>
<path d="M265.801 139.507C265.801 139.507 261.731 138.217 258.951 139.877" stroke="#263238" stroke-miterlimit="10"/>
<path d="M379.192 187.135C379.192 187.135 383.272 185.655 384.752 185.135C386.232 184.615 387.752 185.505 390.311 184.215C392.871 182.925 395.872 180.315 396.061 182.215C396.251 184.115 395.312 184.805 393.832 185.735C392.352 186.665 389.942 188.515 389.942 188.515L389.202 190.365L378.082 189.445C378.082 189.445 378.292 187.705 379.192 187.135Z" fill="white" stroke="#263238" stroke-miterlimit="10"/>
<path d="M401.541 191.926C401.541 191.926 406.651 187.876 407.391 186.026C408.131 184.176 406.831 184.026 405.541 184.726C404.251 185.426 400.191 188.806 400.191 188.806L401.541 191.926Z" fill="white" stroke="#263238" stroke-miterlimit="10"/>
<path d="M397.362 192.807C397.362 192.807 401.162 193.207 401.542 191.927C401.922 190.647 404.922 182.587 404.432 181.577C403.942 180.567 402.992 180.657 401.942 182.327C400.819 184.616 399.85 186.978 399.042 189.397C399.042 189.397 396.502 189.967 395.862 191.707C395.222 193.447 397.362 192.807 397.362 192.807Z" fill="white" stroke="#263238" stroke-miterlimit="10"/>
<path d="M392.561 193.806C392.561 193.806 396.091 195.296 396.831 194.176C397.571 193.056 402.761 186.176 402.571 185.096C402.381 184.016 401.461 183.806 399.981 185.096C398.241 186.96 396.631 188.941 395.161 191.026C395.161 191.026 392.561 190.846 391.451 192.326C390.341 193.806 392.561 193.806 392.561 193.806Z" fill="white" stroke="#263238" stroke-miterlimit="10"/>
<path d="M340.864 224.206C342.328 218.276 346.053 213.155 351.244 209.936C360.134 204.186 372.194 193.806 372.194 193.806C372.194 193.806 376.274 188.066 379.194 187.136C382.114 186.206 391.794 188.986 391.794 188.986C391.794 188.986 399.584 181.206 399.794 182.876C400.004 184.546 396.094 190.476 394.234 192.696C392.374 194.916 386.634 195.476 385.344 195.476C383.049 195.545 380.759 195.732 378.484 196.036C377.744 196.216 365.484 212.896 359.954 221.036C354.424 229.176 351.954 230.666 348.464 230.856C344.974 231.046 341.234 228.256 340.304 226.966C339.374 225.676 340.864 224.206 340.864 224.206Z" fill="white" stroke="#263238" stroke-miterlimit="10"/>
<path d="M224.961 193.527L236.641 218.867C236.821 219.228 237.114 219.521 237.474 219.701C237.835 219.882 238.245 219.94 238.641 219.867L248.331 218.077C248.6 218.025 248.854 217.914 249.075 217.752C249.296 217.59 249.478 217.38 249.608 217.139C249.739 216.898 249.813 216.631 249.828 216.358C249.842 216.084 249.796 215.811 249.691 215.557L239.191 190.827C239.04 190.462 238.773 190.156 238.432 189.956C238.091 189.755 237.694 189.672 237.301 189.717L226.411 190.927C226.123 190.962 225.847 191.064 225.606 191.226C225.365 191.388 225.165 191.604 225.024 191.858C224.883 192.111 224.803 192.395 224.792 192.685C224.781 192.975 224.839 193.264 224.961 193.527Z" fill="#263238" stroke="#263238" stroke-miterlimit="10"/>
<path d="M232.631 215.217C232.631 215.217 228.441 208.797 228.441 207.357C228.441 205.917 230.881 202.507 232.311 199.427C233.741 196.347 233.961 194.287 235.191 194.707C236.421 195.127 236.191 196.347 235.801 198.397C235.05 201.041 234.162 203.644 233.141 206.197L233.551 208.667C234.542 206.668 235.782 204.803 237.241 203.117C239.091 201.277 241.141 198.197 242.581 198.807C244.021 199.417 244.631 199.807 243.401 201.277C241.857 203.126 240.472 205.103 239.261 207.187C238.175 208.964 237.242 210.831 236.471 212.767C237.845 211.451 239.305 210.228 240.841 209.107C242.841 207.667 245.661 205.587 246.841 206.407C248.021 207.227 248.281 208.047 247.051 209.077C245.821 210.107 244.701 210.807 243.051 212.247C241.33 213.965 239.714 215.785 238.211 217.697C239.677 216.564 241.31 215.667 243.051 215.037C246.541 213.607 249.731 213.767 249.861 214.867C249.991 215.967 246.191 216.967 246.191 216.967C243.471 217.587 243.341 218.517 243.341 218.517C243.341 218.517 245.601 223.037 245.191 224.517C245.191 224.517 254.311 223.087 257.801 222.067C261.291 221.047 266.741 223.067 268.391 224.717C271.881 228.207 273.521 233.547 271.681 238.067C269.841 242.587 269.831 241.147 255.251 237.067C240.671 232.987 240.951 231.527 237.391 225.567C236.101 223.247 232.631 215.217 232.631 215.217Z" fill="white" stroke="#263238" stroke-miterlimit="10"/>
<path d="M245.251 224.477L244.941 228.237" stroke="#263238" stroke-miterlimit="10"/>
<path d="M164.796 202.347C164.286 197.347 161.839 193.265 158.372 189.898C150.826 182.449 139.405 180.918 130.125 186.02L117.786 192.653C114.931 194.286 112.076 195.714 109.322 197.449C107.385 198.673 106.569 200.612 106.977 202.857C107.385 205.204 108.813 206.735 111.158 207.347C112.892 207.857 114.319 207.347 115.747 206.531C122.069 203.163 128.29 199.592 134.612 196.327C139.915 193.673 145.931 194.898 149.908 199.388C151.438 201.122 152.661 203.265 152.355 205.714C151.743 210.714 149.704 214.796 145.013 217.347C140.934 219.49 136.855 221.735 132.878 223.878C130.533 225.204 128.188 226.429 125.944 227.755C124.007 228.98 123.089 231.327 123.599 233.367C124.517 237.347 128.392 239.082 132.063 237.143C138.691 233.571 145.319 229.898 151.947 226.327C158.066 222.959 162.043 217.857 163.878 211.122C164.388 209.388 164.592 207.551 165 205.714V202.755C165 202.653 164.898 202.449 164.796 202.347ZM122.273 241.122C119.826 240 117.48 240.612 115.543 242.755C110.852 247.857 106.161 253.061 101.471 258.163C97.4936 262.551 91.885 263.776 86.5824 261.429C84.135 260.306 81.7896 258.776 81.1778 256.02C79.8521 251.02 80.464 246.327 84.237 242.347L93.4146 232.245C95.2501 230.204 97.1876 228.265 98.9212 226.122C100.859 223.673 100.043 219.898 97.3916 218.163C95.0462 216.633 92.089 217.041 89.9475 219.388C84.8488 225 79.7502 230.51 74.6515 236.122C72.3061 238.673 70.5726 241.633 69.5528 244.898C68.1252 249.184 68.1252 253.469 68.839 257.857C69.2469 260.714 70.1647 263.367 72.0002 265.612C76.7929 271.735 83.1153 274.796 90.3554 275C97.2896 274.898 103 272.755 107.487 268.061C112.79 262.551 117.786 256.939 122.885 251.327C123.395 250.714 124.007 250 124.517 249.388C126.556 246.531 125.434 242.551 122.273 241.122ZM95.862 235.204C93.7205 237.653 93.3126 240.612 94.6383 243.061C96.8817 247.449 102.286 248.061 105.753 244.388C114.217 235.408 122.477 226.429 130.839 217.347C132.165 216.02 132.878 214.388 132.878 212.653C132.878 208.878 129.819 205.714 126.148 205.816C123.905 205.918 122.171 206.837 120.744 208.469C114.319 215.306 107.997 222.245 101.572 229.082C99.635 231.122 97.6975 233.163 95.862 235.204ZM89.8456 212.347H91.3752C93.2107 212.347 94.2304 210.612 93.6186 208.98C93.2107 208.265 92.5988 207.755 91.885 207.449L68.941 196.122C67.1055 195.204 66.9015 195.306 65.9838 197.143C65.8818 197.347 65.7798 197.551 65.6778 197.857C64.5561 200.306 63.9443 202.959 63.4344 205.612C63.1285 206.939 62.9246 208.265 63.0265 209.592C63.1285 210.408 63.4344 210.714 64.2502 210.816C66.4936 210.918 68.839 211.02 71.0824 211.224C77.3028 211.633 83.6252 211.939 89.8456 212.347ZM97.1876 193.469C97.5955 195.612 98.1054 197.755 98.6153 199.898C98.9212 201.122 99.635 201.837 100.757 201.735C101.878 201.735 102.592 201.02 102.898 199.796C102.898 199.694 102.898 199.592 103 199.49C104.326 191.939 105.651 184.49 107.079 176.939C107.283 176.02 106.977 175.612 106.059 175.408C104.326 175 102.592 175 100.859 175C98.8192 175 96.6778 175.102 94.7403 175.612C93.5166 175.918 93.4146 176.224 93.7205 177.347C94.8423 182.755 95.964 188.061 97.1876 193.469ZM73.2239 185.612C77.5068 188.571 81.7896 191.633 86.0725 194.592C86.9903 195.306 87.9081 196.02 88.9278 196.531C90.0495 197.143 91.1712 196.531 91.2732 195.306C91.1712 194.898 90.9673 194.49 90.6613 194.082C87.2962 189.082 83.8291 184.184 80.464 179.184C80.0561 178.571 79.6482 178.367 78.9344 178.776C76.487 180 74.5495 181.735 72.918 183.98C72.4081 184.694 72.5101 185.102 73.2239 185.612Z" fill="#191919"/>
</g>
</g>
<defs>
<clipPath id="clip0_6406_23081">
<rect width="482" height="434" fill="white"/>
</clipPath>
</defs>
</svg>
