<svg width="128" height="30" viewBox="0 0 128 30" fill="none" xmlns="http://www.w3.org/2000/svg">
<path d="M11.3996 5.35002L6.24961 10.5C6.04961 10.7 6.04961 11.01 6.24961 11.21L7.97962 12.94C8.17962 13.14 8.48961 13.14 8.68961 12.94L13.8396 7.79002C14.0396 7.59002 14.0396 7.28002 13.8396 7.08002L12.1096 5.35002C11.9096 5.16002 11.5996 5.16002 11.3996 5.35002Z" fill="white"/>
<path d="M15.2996 9.25986L6.24961 18.3099C6.04961 18.5099 6.04961 18.8199 6.24961 19.0199L7.97962 20.7499C8.17962 20.9499 8.48961 20.9499 8.68961 20.7499L17.7396 11.6999C17.9396 11.4999 17.9396 11.1899 17.7396 10.9899L16.0096 9.25986C15.8196 9.05986 15.4996 9.05986 15.2996 9.25986Z" fill="white"/>
<path d="M19.2098 13.1598L10.1598 22.2098C9.95976 22.4098 9.95976 22.7198 10.1598 22.9198L11.8898 24.6498C12.0898 24.8498 12.3998 24.8498 12.5998 24.6498L21.6498 15.5998C21.8498 15.3998 21.8498 15.0898 21.6498 14.8898L19.9198 13.1598C19.7198 12.9598 19.3998 12.9598 19.2098 13.1598Z" fill="white"/>
<path d="M4.09095 16.84L2.36094 15.11C2.16094 14.91 2.16094 14.6 2.36094 14.4L4.09095 12.67C4.29095 12.47 4.60094 12.47 4.80094 12.67L6.53095 14.4C6.73095 14.6 6.73095 14.91 6.53095 15.11L4.80094 16.84C4.60094 17.04 4.28095 17.04 4.09095 16.84Z" fill="white"/>
<path d="M28.0801 21L30.5191 8.4H32.0311L35.2621 16.887L38.4751 8.4H39.9871L42.4351 21H40.5271L38.8981 12.567L35.8831 20.523H34.6231L31.6171 12.567L29.9881 21H28.0801ZM50.7266 12H52.5986V21H50.7176L50.6456 19.695C50.3816 20.157 50.0246 20.529 49.5746 20.811C49.1246 21.093 48.5936 21.234 47.9816 21.234C47.3216 21.234 46.7006 21.111 46.1186 20.865C45.5366 20.613 45.0236 20.265 44.5796 19.821C44.1416 19.377 43.7996 18.867 43.5536 18.291C43.3076 17.709 43.1846 17.085 43.1846 16.419C43.1846 15.777 43.3046 15.174 43.5446 14.61C43.7846 14.04 44.1176 13.542 44.5436 13.116C44.9696 12.69 45.4616 12.357 46.0196 12.117C46.5836 11.871 47.1866 11.748 47.8286 11.748C48.4826 11.748 49.0586 11.898 49.5566 12.198C50.0606 12.492 50.4776 12.87 50.8076 13.332L50.7266 12ZM47.9366 19.425C48.4646 19.425 48.9266 19.296 49.3226 19.038C49.7186 18.774 50.0246 18.42 50.2406 17.976C50.4626 17.532 50.5736 17.04 50.5736 16.5C50.5736 15.954 50.4626 15.459 50.2406 15.015C50.0186 14.571 49.7096 14.22 49.3136 13.962C48.9236 13.698 48.4646 13.566 47.9366 13.566C47.4146 13.566 46.9376 13.698 46.5056 13.962C46.0736 14.226 45.7316 14.58 45.4796 15.024C45.2276 15.468 45.1016 15.96 45.1016 16.5C45.1016 17.046 45.2306 17.541 45.4886 17.985C45.7526 18.423 46.0976 18.774 46.5236 19.038C46.9556 19.296 47.4266 19.425 47.9366 19.425ZM54.3946 21V12H56.2666V12.954C56.5786 12.582 56.9626 12.288 57.4186 12.072C57.8746 11.856 58.3666 11.748 58.8946 11.748C59.2306 11.748 59.5636 11.793 59.8936 11.883L59.1466 13.773C58.9126 13.683 58.6786 13.638 58.4446 13.638C58.0486 13.638 57.6856 13.737 57.3556 13.935C57.0256 14.127 56.7616 14.388 56.5636 14.718C56.3656 15.048 56.2666 15.414 56.2666 15.816V21H54.3946ZM68.611 21H66.451L64.237 17.184L62.788 18.912V21H60.916V7.5H62.788V16.005L66.136 12H68.584L65.515 15.663L68.611 21ZM73.4893 21.234C72.6613 21.234 71.9053 21.021 71.2213 20.595C70.5433 20.169 70.0003 19.599 69.5923 18.885C69.1903 18.165 68.9893 17.37 68.9893 16.5C68.9893 15.84 69.1063 15.225 69.3403 14.655C69.5743 14.079 69.8953 13.575 70.3033 13.143C70.7173 12.705 71.1973 12.363 71.7433 12.117C72.2893 11.871 72.8713 11.748 73.4893 11.748C74.1793 11.748 74.8123 11.892 75.3883 12.18C75.9643 12.462 76.4563 12.855 76.8643 13.359C77.2723 13.857 77.5723 14.433 77.7643 15.087C77.9563 15.735 78.0133 16.425 77.9353 17.157H70.9963C71.0743 17.571 71.2243 17.946 71.4463 18.282C71.6743 18.612 71.9623 18.873 72.3103 19.065C72.6643 19.257 73.0573 19.356 73.4893 19.362C73.9453 19.362 74.3593 19.248 74.7313 19.02C75.1093 18.792 75.4183 18.477 75.6583 18.075L77.5573 18.516C77.1973 19.314 76.6543 19.968 75.9283 20.478C75.2023 20.982 74.3893 21.234 73.4893 21.234ZM70.9333 15.726H76.0453C75.9853 15.294 75.8323 14.904 75.5863 14.556C75.3463 14.202 75.0433 13.923 74.6773 13.719C74.3173 13.509 73.9213 13.404 73.4893 13.404C73.0633 13.404 72.6673 13.506 72.3013 13.71C71.9413 13.914 71.6413 14.193 71.4013 14.547C71.1673 14.895 71.0113 15.288 70.9333 15.726ZM84.1251 13.872H82.2351L82.2261 21H80.3541L80.3631 13.872H78.9321V12H80.3631L80.3541 9.174H82.2261L82.2351 12H84.1251V13.872ZM85.7364 21V8.4H90.0744C90.7524 8.4 91.3644 8.568 91.9104 8.904C92.4624 9.24 92.9004 9.693 93.2244 10.263C93.5544 10.833 93.7194 11.463 93.7194 12.153C93.7194 12.855 93.5514 13.491 93.2154 14.061C92.8854 14.625 92.4444 15.075 91.8924 15.411C91.3404 15.747 90.7344 15.915 90.0744 15.915H87.6084V21H85.7364ZM87.6084 14.043H89.8854C90.2454 14.043 90.5724 13.953 90.8664 13.773C91.1664 13.593 91.4034 13.353 91.5774 13.053C91.7574 12.753 91.8474 12.414 91.8474 12.036C91.8474 11.658 91.7574 11.319 91.5774 11.019C91.4034 10.713 91.1664 10.473 90.8664 10.299C90.5724 10.119 90.2454 10.029 89.8854 10.029H87.6084V14.043ZM95.4395 21V7.5H97.3115V21H95.4395ZM106.344 12H108.216V21H106.335L106.263 19.695C105.999 20.157 105.642 20.529 105.192 20.811C104.742 21.093 104.211 21.234 103.599 21.234C102.939 21.234 102.318 21.111 101.736 20.865C101.154 20.613 100.641 20.265 100.197 19.821C99.7588 19.377 99.4168 18.867 99.1708 18.291C98.9248 17.709 98.8018 17.085 98.8018 16.419C98.8018 15.777 98.9218 15.174 99.1618 14.61C99.4018 14.04 99.7348 13.542 100.161 13.116C100.587 12.69 101.079 12.357 101.637 12.117C102.201 11.871 102.804 11.748 103.446 11.748C104.1 11.748 104.676 11.898 105.174 12.198C105.678 12.492 106.095 12.87 106.425 13.332L106.344 12ZM103.554 19.425C104.082 19.425 104.544 19.296 104.94 19.038C105.336 18.774 105.642 18.42 105.858 17.976C106.08 17.532 106.191 17.04 106.191 16.5C106.191 15.954 106.08 15.459 105.858 15.015C105.636 14.571 105.327 14.22 104.931 13.962C104.541 13.698 104.082 13.566 103.554 13.566C103.032 13.566 102.555 13.698 102.123 13.962C101.691 14.226 101.349 14.58 101.097 15.024C100.845 15.468 100.719 15.96 100.719 16.5C100.719 17.046 100.848 17.541 101.106 17.985C101.37 18.423 101.715 18.774 102.141 19.038C102.573 19.296 103.044 19.425 103.554 19.425ZM115.713 18.444L117.387 19.353C116.979 19.923 116.46 20.379 115.83 20.721C115.206 21.063 114.528 21.234 113.796 21.234C112.968 21.234 112.212 21.021 111.528 20.595C110.85 20.169 110.307 19.599 109.899 18.885C109.497 18.165 109.296 17.37 109.296 16.5C109.296 15.84 109.413 15.225 109.647 14.655C109.881 14.079 110.202 13.575 110.61 13.143C111.024 12.705 111.504 12.363 112.05 12.117C112.596 11.871 113.178 11.748 113.796 11.748C114.528 11.748 115.206 11.919 115.83 12.261C116.46 12.603 116.979 13.062 117.387 13.638L115.713 14.547C115.461 14.247 115.167 14.019 114.831 13.863C114.495 13.701 114.15 13.62 113.796 13.62C113.304 13.62 112.857 13.755 112.455 14.025C112.059 14.289 111.744 14.64 111.51 15.078C111.282 15.51 111.168 15.984 111.168 16.5C111.168 17.01 111.285 17.484 111.519 17.922C111.753 18.354 112.068 18.702 112.464 18.966C112.866 19.23 113.31 19.362 113.796 19.362C114.168 19.362 114.522 19.278 114.858 19.11C115.194 18.942 115.479 18.72 115.713 18.444ZM122.743 21.234C121.915 21.234 121.159 21.021 120.475 20.595C119.797 20.169 119.254 19.599 118.846 18.885C118.444 18.165 118.243 17.37 118.243 16.5C118.243 15.84 118.36 15.225 118.594 14.655C118.828 14.079 119.149 13.575 119.557 13.143C119.971 12.705 120.451 12.363 120.997 12.117C121.543 11.871 122.125 11.748 122.743 11.748C123.433 11.748 124.066 11.892 124.642 12.18C125.218 12.462 125.71 12.855 126.118 13.359C126.526 13.857 126.826 14.433 127.018 15.087C127.21 15.735 127.267 16.425 127.189 17.157H120.25C120.328 17.571 120.478 17.946 120.7 18.282C120.928 18.612 121.216 18.873 121.564 19.065C121.918 19.257 122.311 19.356 122.743 19.362C123.199 19.362 123.613 19.248 123.985 19.02C124.363 18.792 124.672 18.477 124.912 18.075L126.811 18.516C126.451 19.314 125.908 19.968 125.182 20.478C124.456 20.982 123.643 21.234 122.743 21.234ZM120.187 15.726H125.299C125.239 15.294 125.086 14.904 124.84 14.556C124.6 14.202 124.297 13.923 123.931 13.719C123.571 13.509 123.175 13.404 122.743 13.404C122.317 13.404 121.921 13.506 121.555 13.71C121.195 13.914 120.895 14.193 120.655 14.547C120.421 14.895 120.265 15.288 120.187 15.726Z" fill="white"/>
</svg>
