<svg width="482" height="434" viewBox="0 0 482 434" fill="none" xmlns="http://www.w3.org/2000/svg">
<g clip-path="url(#clip0_6560_16335)">
<mask id="mask0_6560_16335" style="mask-type:luminance" maskUnits="userSpaceOnUse" x="0" y="0" width="482" height="434">
<path d="M482 0H0V434H482V0Z" fill="white"/>
</mask>
<g mask="url(#mask0_6560_16335)">
<path d="M455.692 84.1765C454.106 81.5099 452.439 78.8765 450.692 76.2765C427.522 41.9265 387.632 18.4365 348.392 7.81653C331.176 3.23681 313.489 0.65645 295.682 0.126527C179.062 -3.87347 132.612 88.1265 94.0722 111.797C55.5322 135.467 -3.80781 176.037 0.19219 261.027C4.19219 346.017 65.4122 426.027 184.002 431.027C302.592 436.027 310.502 382.607 376.712 362.837C420.532 349.757 451.712 305.577 466.912 264.747C487.692 209.087 486.712 136.817 455.692 84.1765Z" fill="#191919"/>
<path opacity="0.7" d="M455.692 84.1765C454.106 81.5099 452.439 78.8765 450.692 76.2765C427.522 41.9265 387.632 18.4365 348.392 7.81653C331.176 3.23681 313.489 0.65645 295.682 0.126527C179.062 -3.87347 132.612 88.1265 94.0722 111.797C55.5322 135.467 -3.80781 176.037 0.19219 261.027C4.19219 346.017 65.4122 426.027 184.002 431.027C302.592 436.027 310.502 382.607 376.712 362.837C420.532 349.757 451.712 305.577 466.912 264.747C487.692 209.087 486.712 136.817 455.692 84.1765Z" fill="white"/>
<path d="M429.75 92.1989V88.9089H368.89V40.1289H366.91V88.9089H306.48V92.1989H366.91V137.359H306.48V140.659H366.91V185.819H306.48V189.109H366.91V236.559H368.89V189.109H429.75V185.819H368.89V140.659H429.75V137.359H368.89V92.1989H429.75Z" fill="#263238" stroke="#263238" stroke-miterlimit="10"/>
<path d="M302.312 36.168V241.838H433.492V36.168H302.312ZM429.062 234.888H306.742V43.108H429.062V234.888Z" fill="#263238" stroke="#263238" stroke-miterlimit="10"/>
<path d="M245.19 294.627C245.195 294.614 245.197 294.601 245.197 294.588C245.197 294.574 245.193 294.561 245.188 294.549C245.182 294.537 245.174 294.526 245.164 294.517C245.155 294.508 245.143 294.501 245.13 294.497C245.118 294.492 245.105 294.49 245.091 294.49C245.078 294.491 245.065 294.494 245.053 294.499C245.041 294.505 245.03 294.513 245.021 294.523C245.012 294.533 245.005 294.544 245 294.557C242.063 301.593 239.741 308.87 238.06 316.307C236.345 323.744 235.053 331.273 234.19 338.857L233.65 344.557C233.57 345.507 233.46 346.457 233.39 347.407L233.24 350.267C233.16 352.177 233.04 354.087 232.98 355.997L233.04 361.727L233.1 364.587C233.1 365.537 233.21 366.497 233.28 367.447C233.42 369.347 233.54 371.257 233.71 373.157C234.08 376.957 234.65 380.727 235.23 384.497C235.237 384.519 235.25 384.539 235.268 384.553C235.286 384.567 235.307 384.576 235.33 384.577C235.344 384.578 235.358 384.577 235.371 384.573C235.383 384.568 235.395 384.561 235.405 384.551C235.414 384.541 235.422 384.53 235.426 384.517C235.431 384.504 235.432 384.49 235.43 384.477C235.43 382.567 235.34 380.677 235.3 378.767C235.26 376.857 235.08 374.987 235.11 373.087C235.14 371.187 235.11 369.287 235.05 367.397L234.99 364.557V361.717V356.037L235.14 350.367L235.2 347.527C235.2 346.577 235.31 345.637 235.36 344.687L235.71 339.017C236.355 331.466 237.427 323.957 238.92 316.527C240.374 309.059 242.472 301.732 245.19 294.627Z" fill="#263238"/>
<path d="M246.005 324.308C246.011 324.284 246.009 324.259 245.998 324.237C245.987 324.215 245.968 324.197 245.945 324.188C245.932 324.183 245.919 324.181 245.906 324.182C245.892 324.182 245.879 324.185 245.867 324.191C245.855 324.196 245.844 324.204 245.835 324.214C245.826 324.224 245.819 324.236 245.815 324.248C242.573 333.721 240.416 343.53 239.385 353.488C238.885 358.488 238.325 363.428 238.255 368.428C238.136 373.434 238.313 378.443 238.785 383.428C238.79 383.449 238.802 383.467 238.818 383.482C238.834 383.496 238.853 383.505 238.875 383.508C238.887 383.511 238.9 383.511 238.913 383.509C238.926 383.506 238.937 383.501 238.948 383.493C238.958 383.486 238.967 383.476 238.973 383.465C238.98 383.454 238.984 383.441 238.985 383.428C239.565 378.428 239.915 373.488 240.265 368.528C240.615 363.568 240.665 358.598 240.985 353.638C241.665 343.725 243.34 333.906 245.985 324.328L246.005 324.308Z" fill="#263238"/>
<path d="M262.462 334.757C262.444 334.739 262.419 334.729 262.392 334.729C262.366 334.729 262.341 334.739 262.322 334.757C258.207 337.399 254.501 340.63 251.322 344.347C249.726 346.225 248.288 348.232 247.022 350.347L246.142 352.017L245.442 353.757C245.208 354.328 245.008 354.912 244.842 355.507C244.662 356.107 244.462 356.687 244.302 357.287C243.046 362.036 242.285 366.902 242.032 371.807C241.787 376.687 241.968 381.579 242.572 386.427C242.579 386.449 242.592 386.469 242.61 386.483C242.627 386.498 242.649 386.506 242.672 386.507C242.685 386.508 242.698 386.507 242.71 386.503C242.722 386.499 242.733 386.493 242.743 386.485C242.752 386.476 242.76 386.466 242.765 386.454C242.77 386.442 242.772 386.43 242.772 386.417L244.032 371.947C244.374 367.16 244.985 362.396 245.862 357.677C245.992 357.087 246.162 356.527 246.312 355.947C246.447 355.368 246.614 354.797 246.812 354.237L247.402 352.567L248.162 350.987C249.307 348.881 250.625 346.874 252.102 344.987C255.039 341.153 258.519 337.768 262.432 334.937C262.449 334.93 262.463 334.918 262.474 334.904C262.485 334.89 262.492 334.873 262.495 334.855C262.498 334.837 262.497 334.819 262.491 334.802C262.485 334.785 262.475 334.769 262.462 334.757Z" fill="#263238"/>
<path d="M254.493 353.348C252.358 354.906 250.641 356.967 249.493 359.348C248.284 361.692 247.342 364.164 246.683 366.718C246.493 367.348 246.333 367.988 246.193 368.628L245.743 370.548C245.506 371.841 245.342 373.146 245.253 374.458C245.253 375.778 245.203 377.088 245.253 378.398C245.349 379.71 245.519 381.015 245.763 382.308C245.77 382.326 245.78 382.343 245.794 382.357C245.808 382.371 245.825 382.381 245.843 382.388C245.856 382.391 245.87 382.391 245.883 382.388C245.896 382.386 245.909 382.381 245.92 382.373C245.931 382.366 245.941 382.356 245.948 382.345C245.956 382.334 245.961 382.321 245.963 382.308C246.266 381.038 246.5 379.753 246.663 378.458C246.863 377.178 247.063 375.918 247.213 374.648C247.363 373.378 247.563 372.128 247.663 370.858C247.763 369.588 247.933 368.318 248.213 367.078C248.653 364.572 249.371 362.124 250.353 359.778C251.239 357.386 252.679 355.237 254.553 353.508C254.562 353.499 254.569 353.489 254.574 353.478C254.578 353.467 254.581 353.455 254.581 353.443C254.581 353.43 254.578 353.418 254.574 353.407C254.569 353.396 254.562 353.386 254.553 353.378C254.537 353.362 254.516 353.351 254.493 353.348Z" fill="#263238"/>
<path d="M231.413 367.847C230.873 361.427 229.812 355.057 228.812 348.707C227.812 342.357 226.692 336.007 225.532 329.707C224.372 323.407 223.072 317.077 221.702 310.797C221.707 310.782 221.709 310.766 221.706 310.751C221.704 310.735 221.699 310.72 221.689 310.707C221.68 310.695 221.668 310.684 221.654 310.677C221.64 310.67 221.623 310.666 221.607 310.666C221.592 310.666 221.576 310.67 221.562 310.677C221.548 310.684 221.537 310.695 221.527 310.707C221.518 310.72 221.512 310.735 221.51 310.751C221.507 310.766 221.507 310.782 221.512 310.797C222.612 317.137 223.602 323.487 224.512 329.847C225.422 336.207 226.383 342.557 227.193 348.927C228.003 355.297 228.593 361.697 229.383 368.057L231.732 387.187C231.738 387.211 231.751 387.232 231.769 387.248C231.786 387.264 231.81 387.274 231.833 387.277C231.861 387.277 231.886 387.267 231.907 387.249C231.927 387.23 231.941 387.205 231.943 387.177C232.013 385.567 232.013 383.957 232.053 382.337C232.093 380.717 231.983 379.117 231.963 377.507C231.933 374.277 231.653 371.067 231.413 367.847Z" fill="#263238"/>
<path d="M227.562 367.758C227.212 365.208 226.752 362.678 226.262 360.158L225.362 356.408C225.062 355.158 224.782 353.908 224.422 352.668C223.14 347.685 221.495 342.802 219.502 338.058L218.732 336.288L217.882 334.558C217.332 333.398 216.682 332.288 216.052 331.158C214.79 328.911 213.229 326.846 211.412 325.018C211.404 325.009 211.394 325.002 211.383 324.997C211.372 324.993 211.36 324.99 211.347 324.99C211.335 324.99 211.323 324.993 211.312 324.997C211.301 325.002 211.291 325.009 211.282 325.018C211.264 325.037 211.254 325.062 211.254 325.088C211.254 325.114 211.264 325.139 211.282 325.158C212.975 327.053 214.401 329.169 215.522 331.448C216.082 332.588 216.672 333.708 217.152 334.888L217.912 336.638L218.582 338.428C220.359 343.188 221.79 348.071 222.862 353.038C223.442 355.508 223.862 358.038 224.312 360.528L224.912 364.288C225.132 365.538 225.402 366.788 225.572 368.048C225.972 370.558 226.442 373.048 226.872 375.578C227.302 378.108 227.722 380.578 228.262 383.128C228.266 383.15 228.277 383.171 228.293 383.187C228.309 383.203 228.33 383.214 228.352 383.218C228.38 383.218 228.407 383.208 228.427 383.189C228.447 383.171 228.46 383.145 228.462 383.118C228.462 380.551 228.402 377.985 228.282 375.418C228.132 372.858 227.822 370.308 227.562 367.758Z" fill="#263238"/>
<path d="M222.242 368.087C221.052 364.707 219.672 361.407 218.172 358.177C216.66 354.948 214.95 351.815 213.052 348.797C213.047 348.783 213.039 348.771 213.029 348.761C213.018 348.751 213.006 348.743 212.992 348.738C212.978 348.733 212.964 348.731 212.949 348.733C212.935 348.734 212.921 348.739 212.908 348.746C212.896 348.754 212.885 348.764 212.877 348.776C212.868 348.788 212.863 348.801 212.86 348.815C212.858 348.83 212.859 348.844 212.862 348.859C212.866 348.873 212.873 348.886 212.882 348.897C214.533 352.032 215.993 355.265 217.252 358.577C218.552 361.857 219.732 365.197 220.712 368.577C221.692 371.957 222.442 375.407 223.342 378.807C224.242 382.207 225.052 385.637 226.102 389.077C226.108 389.096 226.12 389.113 226.136 389.126C226.152 389.138 226.172 389.146 226.192 389.147C226.22 389.147 226.246 389.137 226.267 389.118C226.287 389.1 226.3 389.074 226.302 389.047C226.34 385.458 226.005 381.876 225.302 378.357C224.559 374.857 223.536 371.422 222.242 368.087Z" fill="#263238"/>
<path d="M222.02 379.317C221.365 377.213 220.412 375.213 219.19 373.377C218.053 371.497 216.667 369.778 215.07 368.267C214.255 367.527 213.379 366.858 212.45 366.267C211.524 365.672 210.512 365.22 209.45 364.927C209.428 364.923 209.405 364.927 209.385 364.938C209.365 364.949 209.349 364.966 209.34 364.987C209.325 365.005 209.316 365.029 209.316 365.052C209.316 365.076 209.325 365.099 209.34 365.117C211.236 366.031 212.916 367.337 214.27 368.947C215.638 370.522 216.791 372.27 217.7 374.147C218.7 375.987 219.18 378.027 220.03 379.937C220.4 380.937 220.77 381.887 221.21 382.867C221.569 383.897 222 384.899 222.5 385.867C222.51 385.882 222.523 385.895 222.539 385.904C222.555 385.912 222.572 385.917 222.59 385.917C222.603 385.919 222.616 385.917 222.628 385.914C222.64 385.91 222.651 385.903 222.661 385.895C222.67 385.886 222.678 385.876 222.683 385.864C222.688 385.853 222.69 385.84 222.69 385.827C222.731 384.729 222.69 383.63 222.57 382.537C222.5 381.447 222.28 380.377 222.02 379.317Z" fill="#263238"/>
<path d="M222.422 319.957C219.206 319.067 216.295 317.315 214.004 314.889C211.712 312.464 210.128 309.458 209.422 306.197C206.992 294.857 214.822 299.717 207.802 281.897C200.782 264.077 202.402 260.027 204.802 254.897C207.202 249.767 208.582 251.387 210.742 258.137C212.902 264.887 220.742 275.417 223.742 295.137C226.742 314.857 222.422 319.957 222.422 319.957Z" fill="#191919"/>
<path d="M243.192 300.798C243.192 300.798 236.192 298.368 235.902 285.138C235.612 271.908 241.032 274.608 241.842 258.138C242.652 241.668 243.732 230.058 246.702 229.788C249.672 229.518 257.502 237.888 260.202 256.248C262.902 274.608 256.692 286.758 251.292 292.158C245.892 297.558 243.192 300.798 243.192 300.798Z" fill="#191919"/>
<path d="M218.643 335.887C218.643 335.887 217.023 326.167 213.783 321.577C210.543 316.987 203.523 312.937 198.933 304.037C194.343 295.137 189.213 290.807 189.483 303.497C189.753 316.187 195.423 322.657 202.483 326.977C209.543 331.297 218.643 335.887 218.643 335.887Z" fill="#191919"/>
<path d="M215.673 352.628C215.673 352.628 209.193 340.208 199.743 331.028C190.293 321.848 182.743 317.258 185.433 321.848C188.123 326.438 191.373 326.168 195.963 334.268C200.553 342.368 199.203 348.268 205.683 352.898C212.163 357.528 215.673 352.628 215.673 352.628Z" fill="#191919"/>
<path d="M214.86 368.557C214.59 367.747 214.32 361.807 205.14 356.947C195.96 352.087 187.32 353.947 188.4 356.407C189.48 358.867 195.15 362.887 200.82 365.317C206.49 367.747 214.86 368.557 214.86 368.557Z" fill="#191919"/>
<path d="M242.661 336.427C242.661 336.427 238.611 331.297 240.771 320.497C242.931 309.697 247.771 312.397 253.191 306.727C258.611 301.057 257.511 300.257 262.911 294.317C268.311 288.377 273.171 285.137 275.331 287.567C277.491 289.997 274.251 297.567 271.011 301.877C267.771 306.187 262.641 308.347 260.191 313.707C257.741 319.067 258.841 327.707 252.631 331.797C246.421 335.887 242.661 336.427 242.661 336.427Z" fill="#191919"/>
<path d="M256.191 339.397C256.191 339.397 265.911 328.327 272.931 320.227C279.951 312.127 282.651 305.927 282.931 311.317C283.211 316.707 285.361 321.037 279.691 328.057C274.021 335.077 256.191 339.397 256.191 339.397Z" fill="#191919"/>
<path d="M251.032 357.218C251.032 357.218 250.762 352.898 266.152 342.908C281.542 332.918 288.022 331.028 286.402 335.078C284.782 339.128 278.032 343.178 270.742 350.468C263.452 357.758 251.032 357.218 251.032 357.218Z" fill="#191919"/>
<path d="M223.061 318.807C223.061 318.807 219.451 299.447 215.671 285.677C211.891 271.907 209.461 263.537 209.461 263.537" stroke="#263238" stroke-linecap="round" stroke-linejoin="round"/>
<path d="M242.582 300.998C242.582 300.998 249.142 279.998 251.302 267.318C253.462 254.638 251.032 245.178 249.952 239.508" stroke="#263238" stroke-linecap="round" stroke-linejoin="round"/>
<path d="M217.793 335.488C214.886 330.487 211.557 325.743 207.843 321.308C201.903 314.308 197.313 310.508 194.613 303.768" stroke="#263238" stroke-linecap="round" stroke-linejoin="round"/>
<path d="M242.664 336.427C242.664 336.427 244.824 323.427 249.954 316.717C255.084 310.007 265.344 299.447 269.394 292.717" stroke="#263238" stroke-linecap="round" stroke-linejoin="round"/>
<path d="M214.193 368.257C214.193 368.257 205.113 362.347 198.633 359.107" stroke="#263238" stroke-linecap="round" stroke-linejoin="round"/>
<path d="M244.081 425.517H225.321L215.941 378.547H253.461L244.081 425.517Z" fill="#263238" stroke="#263238" stroke-linecap="round" stroke-linejoin="round"/>
<path d="M55.9922 425.518H481.172" stroke="#263238" stroke-miterlimit="10"/>
<path d="M22.3711 425.518H48.7411" stroke="#263238" stroke-miterlimit="10"/>
<path d="M207.08 137.67V106.17H204.23V65.86C204.231 62.5958 203.59 59.3633 202.341 56.3472C201.093 53.3311 199.263 50.5905 196.955 48.2819C194.647 45.9733 191.908 44.142 188.892 42.8925C185.876 41.6431 182.644 41 179.38 41H45.86C39.2667 41 32.9435 43.6192 28.2813 48.2813C23.6192 52.9435 21 59.2667 21 65.86V383.29C21 389.883 23.6192 396.207 28.2813 400.869C32.9435 405.531 39.2667 408.15 45.86 408.15H179.38C182.644 408.15 185.876 407.507 188.892 406.257C191.908 405.008 194.647 403.177 196.955 400.868C199.263 398.559 201.093 395.819 202.341 392.803C203.59 389.787 204.231 386.554 204.23 383.29V164.52H207.08V145.91H204.23V137.67H207.08Z" fill="#707070" stroke="#263238" stroke-linejoin="round"/>
<path d="M175.019 404.719H50.2089C43.2257 404.719 36.5286 401.945 31.5908 397.007C26.6529 392.07 23.8789 385.372 23.8789 378.389V70.7593C23.8789 56.2093 31.3389 44.4193 50.2089 44.4193H175.019C192.329 44.1893 201.359 56.2093 201.359 70.7593V378.389C201.359 381.848 200.678 385.272 199.354 388.468C198.03 391.663 196.089 394.566 193.643 397.011C191.197 399.456 188.294 401.395 185.098 402.718C181.902 404.04 178.477 404.721 175.019 404.719Z" fill="#263238" stroke="#263238" stroke-linejoin="round"/>
<path d="M122.281 48.4692L122.231 48.6592C120.771 54.0992 117.411 57.6592 113.691 57.6592H111.551C107.831 57.6592 104.471 54.1392 103.011 48.6592V48.4692L50.9311 48.2892C48.0475 48.28 45.1904 48.8398 42.5235 49.9366C39.8566 51.0335 37.4324 52.6457 35.3896 54.6811C33.3469 56.7164 31.7258 59.1348 30.6192 61.7976C29.5127 64.4605 28.9424 67.3155 28.9411 70.1992L28.8711 375.139C28.8711 389.349 39.9911 400.869 53.7211 400.869H171.561C185.291 400.869 196.421 389.349 196.421 375.139V68.0092C196.421 63.0079 194.45 58.2083 190.934 54.6513C187.418 51.0944 182.642 49.0671 177.641 49.0092L122.281 48.4692Z" fill="white" stroke="#263238" stroke-miterlimit="10"/>
<path d="M196.401 73.5499V68.0099C196.401 63.0087 194.43 58.209 190.914 54.652C187.398 51.0951 182.622 49.0678 177.621 49.0099L122.281 48.4399L122.231 48.6299C120.771 54.0699 117.411 57.6299 113.691 57.6299H111.551C107.831 57.6299 104.471 54.1099 103.011 48.6299V48.4399L50.9314 48.2599C48.0452 48.2507 45.1857 48.8115 42.5168 49.9102C39.848 51.0089 37.4224 52.6239 35.3792 54.6624C33.3361 56.7009 31.7156 59.1228 30.6108 61.7891C29.506 64.4555 28.9387 67.3137 28.9414 70.1999V73.5499H196.401Z" fill="#DBDBDB" stroke="#263238" stroke-miterlimit="10"/>
<path d="M114.438 47.8693C114.438 47.406 114.3 46.9532 114.043 46.5682C113.785 46.1832 113.419 45.8833 112.991 45.7065C112.563 45.5296 112.092 45.4839 111.638 45.575C111.183 45.6661 110.766 45.89 110.44 46.2182C110.113 46.5465 109.891 46.9644 109.802 47.4189C109.712 47.8735 109.76 48.3443 109.939 48.7717C110.117 49.1991 110.419 49.5639 110.805 49.8198C111.191 50.0757 111.645 50.2113 112.108 50.2093C112.415 50.2093 112.718 50.1487 113.002 50.031C113.285 49.9132 113.542 49.7407 113.759 49.5233C113.975 49.3059 114.147 49.0478 114.263 48.764C114.38 48.4802 114.439 48.1761 114.438 47.8693Z" fill="#707070"/>
<path d="M45.3403 53.8101C45.3403 56.1801 42.6903 57.0301 42.6803 58.8101V58.9301H45.2503V59.7201H41.8203V59.0701C41.8203 56.5401 44.4703 56.0701 44.4703 53.8501C44.4703 53.0401 44.2003 52.6201 43.5503 52.6201C42.9003 52.6201 42.6303 53.0801 42.6303 53.7701V54.4601H41.8203V53.8301C41.8203 52.6301 42.3603 51.8301 43.5703 51.8301C44.7803 51.8301 45.3403 52.6701 45.3403 53.8101Z" fill="#263238"/>
<path d="M49.6316 53.8008V54.0008C49.6654 54.3431 49.5858 54.687 49.4052 54.9796C49.2245 55.2723 48.9527 55.4976 48.6316 55.6208C48.9547 55.7411 49.2285 55.9658 49.4096 56.2592C49.5907 56.5526 49.6688 56.898 49.6316 57.2408V57.8408C49.6316 59.0408 49.0716 59.8408 47.8616 59.8408C46.6516 59.8408 46.1016 59.0608 46.1016 57.8408V57.3108H46.9416V57.9008C46.9416 58.6008 47.2316 59.0308 47.8616 59.0308C48.4916 59.0308 48.7716 58.6108 48.7716 57.8208V57.2208C48.7716 56.4408 48.4516 56.0708 47.7716 56.0508H47.3016V55.2708H47.8116C47.9478 55.2723 48.0826 55.2442 48.2069 55.1885C48.3311 55.1327 48.4417 55.0507 48.5311 54.948C48.6205 54.8453 48.6865 54.7244 48.7246 54.5936C48.7627 54.4629 48.7719 54.3254 48.7516 54.1908V53.8408C48.7516 53.0308 48.4716 52.6208 47.8416 52.6208C47.2116 52.6208 46.9216 53.0508 46.9216 53.7608V54.1608H46.1016V53.8008C46.1016 52.6108 46.6616 51.8008 47.8616 51.8008C49.0616 51.8008 49.6316 52.6108 49.6316 53.8008Z" fill="#263238"/>
<path d="M51.3205 54.4004V55.4804H50.4805V54.4004H51.3205ZM51.3205 58.6604V59.7404H50.4805V58.6704L51.3205 58.6604Z" fill="#263238"/>
<path d="M53.0797 55.1002C53.1957 54.8944 53.3664 54.7248 53.5729 54.6101C53.7794 54.4953 54.0137 54.44 54.2497 54.4502C55.2497 54.4502 55.6997 55.1902 55.6997 56.3102V57.8402C55.6997 59.0402 55.1297 59.8402 53.9397 59.8402C52.7497 59.8402 52.1797 59.0602 52.1797 57.8402V57.3202H52.9897V57.9002C52.9897 58.6002 53.2897 59.0302 53.9097 59.0302C54.5297 59.0302 54.8297 58.6002 54.8297 57.9002V56.3802C54.8297 55.6702 54.5397 55.2502 53.9097 55.2502C53.796 55.2447 53.6825 55.2625 53.5759 55.3022C53.4693 55.342 53.372 55.403 53.2897 55.4816C53.2074 55.5601 53.1419 55.6546 53.0972 55.7592C53.0525 55.8638 53.0295 55.9764 53.0297 56.0902V56.2602H52.2097L52.4197 51.9102H55.5097V52.6702H53.2097L53.0797 55.1002Z" fill="#263238"/>
<path d="M60.0614 53.7891V53.9391H59.2414V53.7391C59.2414 53.0291 58.9514 52.6191 58.3114 52.6191C57.6714 52.6191 57.3114 53.0391 57.3114 53.8791V55.6691C57.402 55.4115 57.5739 55.1902 57.8012 55.0387C58.0284 54.8872 58.2988 54.8137 58.5714 54.8291C59.5714 54.8291 60.0314 55.5591 60.0314 56.6891V57.8691C60.0314 59.0691 59.4414 59.8691 58.2414 59.8691C57.0414 59.8691 56.4414 59.0891 56.4414 57.8691V53.8691C56.4414 52.6291 57.0014 51.8691 58.2414 51.8691C59.4814 51.8691 60.0614 52.5891 60.0614 53.7891ZM57.3614 56.7191V57.8991C57.3614 58.5991 57.6514 59.0291 58.2914 59.0291C58.9314 59.0291 59.2214 58.5991 59.2214 57.8991V56.7191C59.2214 56.0191 58.9214 55.5891 58.2914 55.5891C57.6614 55.5891 57.3614 56.0191 57.3614 56.7191Z" fill="#263238"/>
<path d="M145.562 54.1406H143.352V59.6706H145.562V54.1406Z" fill="#263238"/>
<path d="M148.511 53.0293H146.301V59.6693H148.511V53.0293Z" fill="#263238"/>
<path d="M151.46 52.2402H149.25V59.6602H151.46V52.2402Z" fill="#263238"/>
<path d="M154.401 50.8691H152.191V59.6591H154.401V50.8691Z" fill="#263238"/>
<path d="M181.77 59.5104H168.5V51.4004H181.77V59.5104ZM169.24 58.7804H181.03V52.1404H169.24V58.7804Z" fill="#263238"/>
<path d="M177.352 52.9395H170.352V57.9695H177.352V52.9395Z" fill="#263238"/>
<path d="M182.979 54.5H181.309V56.41H182.979V54.5Z" fill="#263238"/>
<path d="M163.641 57.7504C163.55 57.7523 163.459 57.728 163.381 57.6804C160.681 56.0704 158.901 57.5604 158.821 57.6304C158.729 57.7214 158.605 57.7724 158.476 57.7724C158.347 57.7724 158.223 57.7214 158.131 57.6304C158.04 57.5369 157.988 57.4112 157.988 57.2804C157.988 57.1495 158.04 57.0238 158.131 56.9304C158.231 56.8504 160.511 54.9304 163.851 56.9304C163.941 56.9879 164.009 57.0723 164.047 57.1715C164.085 57.2707 164.091 57.3794 164.063 57.4819C164.035 57.5844 163.975 57.6754 163.892 57.7417C163.809 57.8079 163.707 57.846 163.601 57.8504L163.641 57.7504Z" fill="#263238"/>
<path d="M164.639 56.0809C164.547 56.0829 164.457 56.0586 164.379 56.0109C160.479 53.6909 157.849 55.9409 157.829 56.0109C157.729 56.0793 157.607 56.1088 157.486 56.094C157.366 56.0793 157.255 56.0212 157.174 55.9306C157.093 55.84 157.048 55.7231 157.047 55.6017C157.046 55.4803 157.09 55.3628 157.169 55.2709C157.169 55.2709 160.369 52.5309 164.889 55.2109C164.945 55.2439 164.995 55.2877 165.034 55.34C165.073 55.3922 165.101 55.4518 165.117 55.5151C165.133 55.5785 165.136 55.6444 165.126 55.7089C165.116 55.7734 165.093 55.8353 165.059 55.8909C165.011 55.9553 164.947 56.0064 164.873 56.0396C164.8 56.0728 164.719 56.087 164.639 56.0809Z" fill="#263238"/>
<path d="M165.541 54.1493C165.453 54.1499 165.366 54.1256 165.291 54.0793C160.351 51.1393 157.061 53.9093 156.921 54.0793C156.875 54.1259 156.821 54.1628 156.761 54.1881C156.7 54.2134 156.636 54.2264 156.571 54.2264C156.506 54.2264 156.441 54.2134 156.381 54.1881C156.321 54.1628 156.266 54.1259 156.221 54.0793C156.178 54.0313 156.145 53.975 156.124 53.9139C156.103 53.8528 156.094 53.7881 156.099 53.7237C156.104 53.6592 156.121 53.5964 156.151 53.539C156.18 53.4815 156.221 53.4306 156.271 53.3893C156.271 53.3893 160.211 50.0093 165.801 53.3293C165.913 53.3977 165.993 53.5073 166.025 53.6345C166.057 53.7617 166.037 53.8963 165.971 54.0093C165.916 54.0655 165.848 54.1075 165.773 54.1319C165.698 54.1562 165.618 54.1622 165.541 54.1493Z" fill="#263238"/>
<path d="M162.149 58.5805C162.151 58.8298 162.078 59.074 161.94 59.2817C161.802 59.4893 161.605 59.651 161.375 59.7458C161.144 59.8407 160.89 59.8644 160.646 59.814C160.402 59.7636 160.178 59.6413 160.004 59.4628C159.83 59.2844 159.713 59.0579 159.669 58.8126C159.624 58.5673 159.654 58.3143 159.755 58.0861C159.855 57.8579 160.022 57.665 160.233 57.5321C160.444 57.3992 160.69 57.3325 160.939 57.3405C161.263 57.3483 161.57 57.4824 161.796 57.7141C162.022 57.9458 162.149 58.2568 162.149 58.5805Z" fill="#263238"/>
<path d="M418.694 425.517H409.214L407.184 402.957H420.724L418.694 425.517Z" fill="#263238" stroke="#263238" stroke-miterlimit="10"/>
<path d="M458.17 425.517H448.69L446.66 402.957H460.2L458.17 425.517Z" fill="#263238" stroke="#263238" stroke-miterlimit="10"/>
<path d="M363.422 425.517H353.942L351.922 402.957H365.452L363.422 425.517Z" fill="#263238" stroke="#263238" stroke-miterlimit="10"/>
<path d="M321.121 425.517H311.651L309.621 402.957H323.151L321.121 425.517Z" fill="#263238" stroke="#263238" stroke-miterlimit="10"/>
<path d="M366.361 257.605H464.881C464.881 257.605 465.271 291.855 460.201 316.105C455.131 340.355 448.921 355.015 448.921 355.015H355.301C355.301 355.015 369.191 301.375 366.361 257.605Z" fill="white" stroke="#263238" stroke-miterlimit="10"/>
<path d="M407.251 262.836C398.611 262.156 395.181 260.416 388.721 256.836C380.311 252.226 378.511 255.296 379.111 259.906C379.711 264.516 370.941 294.906 369.111 310.206C367.281 325.506 367.901 333.736 367.901 333.736C367.901 333.736 362.501 338.346 366.101 339.876C368.417 340.837 370.836 341.525 373.311 341.926H442.971C442.971 341.926 455.351 278.316 456.551 268.086C457.751 257.856 452.351 256.836 449.341 258.366C446.331 259.896 445.741 260.926 441.531 261.436C431.691 262.706 419.091 263.756 407.251 262.836Z" fill="#191919"/>
<path d="M384.823 263.866C386.626 261.844 387.894 259.404 388.513 256.766C387.673 256.316 386.903 255.946 386.193 255.646C385.731 258.106 384.604 260.393 382.933 262.256C381.687 263.772 380.141 265.014 378.393 265.906C378.213 266.816 378.013 267.806 377.793 268.906C380.554 267.901 382.985 266.158 384.823 263.866Z" fill="white"/>
<path d="M447.194 283.767C442.784 288.947 442.954 293.547 443.114 298.007C443.274 302.167 443.414 306.087 439.634 310.537C435.854 314.987 431.944 315.457 427.814 315.977C423.394 316.517 418.814 317.087 414.414 322.267C410.014 327.447 410.164 332.047 410.334 336.497C410.46 338.321 410.409 340.153 410.184 341.967H412.704C412.895 340.12 412.932 338.26 412.814 336.407C412.664 332.247 412.514 328.317 416.304 323.877C420.094 319.437 423.984 318.947 428.124 318.437C432.544 317.897 437.124 317.327 441.524 312.147C445.924 306.967 445.764 302.367 445.604 297.907C445.444 293.747 445.304 289.817 449.094 285.377C450.526 283.633 452.358 282.26 454.434 281.377C454.604 280.377 454.774 279.457 454.934 278.547C451.894 279.483 449.201 281.299 447.194 283.767Z" fill="white"/>
<path d="M376.422 340.846C380.852 340.296 385.422 339.726 389.832 334.546C394.242 329.366 394.072 324.766 393.912 320.316C393.752 316.156 393.612 312.226 397.392 307.786C401.172 303.346 405.082 302.856 409.212 302.346C413.632 301.796 418.212 301.236 422.612 296.056C427.012 290.876 426.862 286.266 426.692 281.816C426.542 277.656 426.392 273.726 430.182 269.286C433.972 264.846 437.872 264.356 442.002 263.846C446.132 263.336 450.262 262.846 454.342 258.706C453.553 258.117 452.587 257.814 451.602 257.846C449.342 259.692 446.587 260.83 443.682 261.116C442.983 261.275 442.275 261.395 441.562 261.476L438.562 261.826C434.523 262.43 430.858 264.529 428.292 267.706C423.872 272.896 424.042 277.496 424.212 281.946C424.362 286.106 424.512 290.036 420.722 294.486C416.932 298.936 413.042 299.406 408.902 299.916C404.482 300.466 399.902 301.026 395.502 306.206C391.102 311.386 391.262 315.996 391.422 320.446C391.582 324.606 391.722 328.536 387.942 332.976C384.162 337.416 380.252 337.906 376.122 338.416C373.218 338.604 370.375 339.337 367.742 340.576C369.05 341.034 370.386 341.408 371.742 341.696C373.279 341.297 374.843 341.013 376.422 340.846Z" fill="white"/>
<path d="M370.933 318.456C375.343 313.276 375.173 308.676 375.013 304.226C374.863 300.056 374.713 296.136 378.503 291.686C382.293 287.236 386.183 286.766 390.313 286.256C394.733 285.706 399.313 285.136 403.723 279.956C408.133 274.776 407.963 270.176 407.803 265.726C407.803 264.726 407.733 263.816 407.743 262.866H407.253L405.253 262.676C405.253 263.746 405.253 264.796 405.303 265.846C405.463 270.006 405.603 273.936 401.823 278.376C398.043 282.816 394.133 283.306 390.003 283.816C385.583 284.366 381.003 284.926 376.593 290.106C372.183 295.286 372.353 299.886 372.523 304.346C372.673 308.506 372.813 312.436 369.033 316.876C368.823 317.126 368.613 317.356 368.393 317.576C368.293 318.846 368.203 320.046 368.133 321.166C369.161 320.365 370.099 319.456 370.933 318.456Z" fill="white"/>
<path d="M407.251 262.836C398.611 262.156 395.181 260.416 388.721 256.836C380.311 252.226 378.511 255.296 379.111 259.906C379.711 264.516 370.941 294.906 369.111 310.206C367.281 325.506 367.901 333.736 367.901 333.736C367.901 333.736 362.501 338.346 366.101 339.876C368.417 340.837 370.836 341.525 373.311 341.926H442.971C442.971 341.926 455.351 278.316 456.551 268.086C457.751 257.856 452.351 256.836 449.341 258.366C446.331 259.896 445.741 260.926 441.531 261.436C431.691 262.706 419.091 263.756 407.251 262.836Z" stroke="#263238" stroke-miterlimit="10"/>
<path d="M366.363 257.605H360.793C359.783 257.605 358.802 257.945 358.009 258.571C357.216 259.197 356.657 260.073 356.423 261.055L349.503 290.055C348.223 295.435 343.843 310.935 339.023 313.645C336.063 315.306 332.727 316.177 329.333 316.175H308.453L317.333 406.945H355.333L365.333 262.415C365.366 262.083 365.366 261.748 365.333 261.415H366.463L366.363 257.605Z" fill="white" stroke="#263238" stroke-miterlimit="10"/>
<path d="M314.023 316.166H334.913C338.307 316.166 341.643 315.295 344.603 313.636C349.423 310.926 353.793 295.426 355.083 290.046L361.993 261.046C362.229 260.064 362.788 259.189 363.581 258.564C364.374 257.938 365.354 257.597 366.363 257.596C366.979 257.596 367.589 257.722 368.153 257.968C368.718 258.213 369.226 258.572 369.647 259.022C370.067 259.472 370.39 260.004 370.596 260.584C370.802 261.165 370.886 261.781 370.843 262.396L360.593 406.936H322.593L314.023 316.166Z" fill="white" stroke="#263238" stroke-miterlimit="10"/>
<path d="M403.233 406.985L405.403 341.965L318.293 341.195L320.473 406.985H403.233Z" fill="white" stroke="#263238" stroke-miterlimit="10"/>
<path d="M470.453 257.605H464.883C463.874 257.607 462.893 257.948 462.101 258.573C461.308 259.199 460.749 260.073 460.513 261.055L453.593 290.055C452.313 295.435 447.943 310.935 443.113 313.645C440.154 315.307 436.817 316.178 433.423 316.175H412.543L416.193 406.935H459.013L469.363 262.405C469.402 262.073 469.402 261.738 469.363 261.405H470.493L470.453 257.605Z" fill="white" stroke="#263238" stroke-miterlimit="10"/>
<path d="M418.113 316.166H439.003C442.397 316.166 445.733 315.295 448.693 313.636C453.513 310.926 457.893 295.426 459.173 290.046L466.093 261.046C466.327 260.065 466.884 259.191 467.675 258.565C468.466 257.939 469.445 257.597 470.453 257.596C471.07 257.594 471.679 257.72 472.245 257.965C472.81 258.209 473.319 258.568 473.74 259.019C474.16 259.469 474.483 260.002 474.689 260.583C474.894 261.164 474.977 261.781 474.933 262.396L464.773 404.706C464.728 405.304 464.459 405.864 464.02 406.274C463.581 406.683 463.004 406.912 462.403 406.916H421.523L418.113 316.166Z" fill="white" stroke="#263238" stroke-miterlimit="10"/>
<path d="M405.401 322.706L403.191 406.986H421.481L424.661 322.706C424.661 321.846 424.492 320.995 424.163 320.201C423.833 319.407 423.351 318.685 422.742 318.078C422.134 317.471 421.412 316.989 420.617 316.661C419.823 316.333 418.971 316.165 418.111 316.166H411.951C411.092 316.165 410.24 316.333 409.446 316.661C408.651 316.989 407.929 317.471 407.32 318.078C406.712 318.685 406.229 319.407 405.9 320.201C405.571 320.995 405.401 321.846 405.401 322.706Z" fill="white" stroke="#263238" stroke-miterlimit="10"/>
<path d="M299.133 322.706L302.273 406.986H320.563L318.383 322.706C318.383 320.972 317.694 319.308 316.468 318.082C315.241 316.855 313.578 316.166 311.843 316.166H305.683C304.824 316.165 303.972 316.333 303.178 316.661C302.383 316.989 301.661 317.471 301.052 318.078C300.444 318.685 299.961 319.407 299.632 320.201C299.303 320.995 299.133 321.846 299.133 322.706Z" fill="white" stroke="#263238" stroke-miterlimit="10"/>
<path d="M318.73 369.936H404.57" stroke="#263238" stroke-miterlimit="10"/>
<path d="M276.74 257.936C276.74 257.936 268.8 302.056 267.06 309.516C265.32 316.976 261.06 355.006 261.06 364.456C261.06 373.906 261.8 402.456 261.8 402.456C261.8 402.456 258.57 403.946 258.57 405.186C258.57 406.426 261.06 414.386 261.06 414.386L275.72 419.856C275.72 419.856 278.72 412.856 278.95 410.406C279.18 407.956 277.21 406.926 277.21 402.696C277.21 398.466 284.67 349.256 286.91 341.056C289.15 332.856 295.61 308.246 296.85 306.006C298.09 303.766 304.31 287.366 304.31 287.366L307.79 289.106C307.79 289.106 310.02 340.806 311.27 344.036C312.52 347.266 329.19 399.906 329.19 399.906C329.19 399.906 326.46 401.146 328.19 404.136C329.92 407.126 332.91 413.826 332.91 413.826C332.91 413.826 335.65 410.096 338.91 409.356C342.17 408.616 347.61 411.836 347.61 411.836C347.61 411.836 350.84 404.376 350.09 400.906C349.34 397.436 346.09 391.456 345.87 389.716C345.65 387.976 338.87 337.856 338.87 337.856C338.87 337.856 340.61 267.756 340.61 263.036C340.517 259.815 339.93 256.628 338.87 253.586C328.442 257.164 317.562 259.258 306.55 259.806C288.9 260.546 279.21 253.346 279.21 253.346L276.74 257.936Z" fill="#263238" stroke="#263238" stroke-miterlimit="10"/>
<path d="M261.103 414.416C261.103 414.416 252.893 421.866 251.403 422.866C249.913 423.866 239.473 427.866 239.723 429.866C239.973 431.866 242.723 433.096 242.723 433.096H276.533C276.533 433.096 276.773 432.096 277.273 427.376C277.512 424.316 277.001 421.244 275.783 418.426L261.103 414.416Z" fill="white" stroke="#263238" stroke-miterlimit="10"/>
<path d="M277.022 429.467L239.902 430.467C240.541 431.597 241.521 432.497 242.702 433.037H276.512C276.512 433.037 276.682 432.367 277.022 429.467Z" fill="white" stroke="#263238" stroke-miterlimit="10"/>
<path d="M332.933 413.826C332.933 413.826 332.683 420.036 332.683 423.276C332.683 426.516 332.193 430.276 332.433 430.976C332.673 431.676 333.183 432.976 333.183 432.976H352.823C352.823 432.976 353.563 430.976 352.573 427.256C351.583 423.536 349.833 421.546 349.343 418.256C348.963 416.054 348.381 413.891 347.603 411.796C347.603 411.796 337.903 404.136 332.933 413.826Z" fill="white" stroke="#263238" stroke-miterlimit="10"/>
<path d="M353.083 430.615C345.613 430.615 336.313 430.375 332.363 430.275C332.362 430.511 332.385 430.745 332.433 430.975C332.683 431.725 333.183 432.975 333.183 432.975H352.823C353.04 432.208 353.128 431.411 353.083 430.615Z" fill="white" stroke="#263238" stroke-miterlimit="10"/>
<path d="M269.69 164.346C269.69 164.346 248.57 184.176 249.49 186.026C250.41 187.876 256.19 202.886 256.19 202.886C256.19 202.886 257.85 212.886 256.93 219.196C256.368 223.187 256.18 227.221 256.37 231.246C258.311 233.693 260.683 235.764 263.37 237.356C267.45 239.586 270.6 243.476 273.2 237.176C275.8 230.876 274.68 219.566 274.68 219.566C274.68 219.566 278.19 233.286 278.78 235.706C279.37 238.126 276.78 257.946 276.78 257.946C276.78 257.946 289.52 268.706 311.19 266.266C332.86 263.826 339.73 256.266 339.73 256.266C339.73 256.266 337.5 231.986 337.5 229.206C337.479 227.285 337.356 225.365 337.13 223.456C337.13 223.456 344.73 231.246 348.44 230.876C352.15 230.506 358.63 215.306 356.96 212.876C355.29 210.446 349.55 200.626 346.03 193.586C343.908 189.343 342.142 184.932 340.75 180.396C340.75 180.396 334.63 159.636 332.75 158.156C330.87 156.676 310.05 156.906 306.34 155.986C301.442 155.022 296.489 154.354 291.51 153.986C290.27 153.966 273.77 157.856 269.69 164.346Z" fill="#191919" stroke="#263238" stroke-miterlimit="10"/>
<path d="M331.991 192.097C331.891 186.777 331.871 182.637 331.871 182.637" stroke="#263238" stroke-miterlimit="10"/>
<path d="M337.192 223.456C335.777 220.572 334.542 217.603 333.492 214.566C332.752 212.356 332.362 204.466 332.152 197.076" stroke="#263238" stroke-miterlimit="10"/>
<path d="M264.123 201.505C262.233 198.205 260.793 195.625 260.613 195.105" stroke="#263238" stroke-miterlimit="10"/>
<path d="M274.7 219.567C274.7 219.567 269.96 211.567 265.98 204.727" stroke="#263238" stroke-miterlimit="10"/>
<path d="M298.793 156.557C299.557 163.081 299.621 169.669 298.983 176.207" stroke="#263238" stroke-miterlimit="10"/>
<path d="M311.262 248.025C313.492 248.475 315.882 248.885 318.432 249.215" stroke="#263238" stroke-miterlimit="10"/>
<path d="M284.332 236.066C284.332 236.066 290.332 242.646 306.332 246.866" stroke="#263238" stroke-miterlimit="10"/>
<path d="M300.645 250.146C307.515 253.23 314.985 254.75 322.515 254.596" stroke="#263238" stroke-miterlimit="10"/>
<path d="M256.352 134.317C256.352 134.317 258.572 144.697 258.762 146.927C258.952 149.157 259.502 152.117 262.282 156.557C265.062 160.997 272.282 170.827 273.772 171.387C275.262 171.947 281.002 170.457 281.002 170.457C281.002 170.457 287.112 182.507 288.782 182.137C290.452 181.767 294.712 168.047 295.272 162.487C295.625 159.721 295.685 156.926 295.452 154.147L292.862 144.887C292.862 144.887 290.642 131.887 290.642 130.987C290.642 130.087 291.932 123.387 284.712 120.607C277.492 117.827 268.582 117.607 262.652 124.497C256.722 131.387 256.352 134.317 256.352 134.317Z" fill="white" stroke="#263238" stroke-miterlimit="10"/>
<path d="M276.193 122.646C273.594 126.591 270.185 129.939 266.193 132.466C259.343 136.916 262.673 132.096 262.673 132.096C262.673 132.096 257.853 135.096 253.963 137.096C250.073 139.096 251.553 139.696 250.073 139.096C248.593 138.496 243.073 122.716 255.463 115.096C267.853 107.476 276.893 109.486 276.893 109.486C276.893 109.486 271.513 107.076 276.333 107.076C281.153 107.076 283.193 109.706 283.193 109.706C283.193 109.706 285.783 108.966 286.893 110.446C287.379 110.975 287.987 111.376 288.663 111.616C294.663 114.156 296.753 119.836 297.883 125.766C298.623 129.656 295.473 138.926 295.473 138.926L290.273 141.706C289.013 140.558 287.993 139.171 287.273 137.626C286.8 136.128 286.55 134.568 286.533 132.996C286.533 132.996 283.383 137.066 282.823 134.106C282.263 131.146 280.823 123.546 280.823 123.546C280.823 123.546 281.383 126.546 279.533 126.546C277.683 126.546 276.193 122.646 276.193 122.646Z" fill="#263238" stroke="#263238" stroke-miterlimit="10"/>
<path d="M289.892 143.026C289.892 143.026 289.712 136.726 293.422 134.686C297.132 132.646 299.722 134.876 298.602 140.806C297.482 146.736 290.822 148.956 290.822 148.956" fill="white"/>
<path d="M289.892 143.026C289.892 143.026 289.712 136.726 293.422 134.686C297.132 132.646 299.722 134.876 298.602 140.806C297.482 146.736 290.822 148.956 290.822 148.956" stroke="#263238" stroke-miterlimit="10"/>
<path d="M281.004 170.457L290.824 160.637L284.334 175.647L281.004 170.457Z" fill="#263238" stroke="#263238" stroke-miterlimit="10"/>
<path d="M276.464 160.527C276.672 160.89 276.735 161.319 276.64 161.727C276.546 162.135 276.3 162.492 275.954 162.727C275.284 162.997 274.434 162.447 274.054 161.497C273.674 160.547 273.904 159.557 274.564 159.287C275.224 159.017 276.074 159.577 276.464 160.527Z" fill="#263238"/>
<path d="M279.021 143.366C279.381 144.546 279.121 145.666 278.451 145.876C277.781 146.086 276.921 145.296 276.561 144.126C276.201 142.956 276.461 141.836 277.131 141.626C277.801 141.416 278.661 142.196 279.021 143.366Z" fill="#263238"/>
<path d="M266.851 145.427C267.211 146.607 266.951 147.727 266.271 147.937C265.591 148.147 264.751 147.367 264.391 146.187C264.031 145.007 264.281 143.897 264.961 143.687C265.641 143.477 266.481 144.257 266.851 145.427Z" fill="#263238"/>
<path d="M267.293 140.807C268.116 141.479 268.775 142.328 269.224 143.291C269.672 144.253 269.898 145.305 269.883 146.367C269.883 150.077 269.323 155.637 269.323 155.637L276.003 154.707" stroke="#263238" stroke-miterlimit="10"/>
<path d="M271.73 138.396C271.73 138.396 275.07 132.466 280.26 133.576" stroke="#263238" stroke-miterlimit="10"/>
<path d="M265.803 139.507C265.803 139.507 261.733 138.217 258.953 139.877" stroke="#263238" stroke-miterlimit="10"/>
<path d="M379.192 187.135C379.192 187.135 383.272 185.655 384.752 185.135C386.232 184.615 387.752 185.505 390.311 184.215C392.871 182.925 395.872 180.315 396.061 182.215C396.251 184.115 395.312 184.805 393.832 185.735C392.352 186.665 389.942 188.515 389.942 188.515L389.202 190.365L378.082 189.445C378.082 189.445 378.292 187.705 379.192 187.135Z" fill="white" stroke="#263238" stroke-miterlimit="10"/>
<path d="M401.541 191.926C401.541 191.926 406.651 187.876 407.391 186.026C408.131 184.176 406.831 184.026 405.541 184.726C404.251 185.426 400.191 188.806 400.191 188.806L401.541 191.926Z" fill="white" stroke="#263238" stroke-miterlimit="10"/>
<path d="M397.362 192.807C397.362 192.807 401.162 193.207 401.542 191.927C401.922 190.647 404.922 182.587 404.432 181.577C403.942 180.567 402.992 180.657 401.942 182.327C400.819 184.616 399.85 186.978 399.042 189.397C399.042 189.397 396.502 189.967 395.862 191.707C395.222 193.447 397.362 192.807 397.362 192.807Z" fill="white" stroke="#263238" stroke-miterlimit="10"/>
<path d="M392.561 193.806C392.561 193.806 396.091 195.296 396.831 194.176C397.571 193.056 402.761 186.176 402.571 185.096C402.381 184.016 401.461 183.806 399.981 185.096C398.241 186.96 396.631 188.941 395.161 191.026C395.161 191.026 392.561 190.846 391.451 192.326C390.341 193.806 392.561 193.806 392.561 193.806Z" fill="white" stroke="#263238" stroke-miterlimit="10"/>
<path d="M340.862 224.206C342.326 218.276 346.051 213.155 351.242 209.936C360.132 204.186 372.192 193.806 372.192 193.806C372.192 193.806 376.272 188.066 379.192 187.136C382.112 186.206 391.792 188.986 391.792 188.986C391.792 188.986 399.582 181.206 399.792 182.876C400.002 184.546 396.092 190.476 394.232 192.696C392.372 194.916 386.632 195.476 385.342 195.476C383.047 195.545 380.757 195.732 378.482 196.036C377.742 196.216 365.482 212.896 359.952 221.036C354.422 229.176 351.952 230.666 348.462 230.856C344.972 231.046 341.232 228.256 340.302 226.966C339.372 225.676 340.862 224.206 340.862 224.206Z" fill="white" stroke="#263238" stroke-miterlimit="10"/>
<path d="M224.963 193.527L236.643 218.867C236.823 219.228 237.116 219.521 237.476 219.701C237.837 219.882 238.247 219.94 238.643 219.867L248.333 218.077C248.602 218.025 248.856 217.914 249.077 217.752C249.298 217.59 249.48 217.38 249.61 217.139C249.741 216.898 249.815 216.631 249.83 216.358C249.844 216.084 249.798 215.811 249.693 215.557L239.193 190.827C239.042 190.462 238.775 190.156 238.434 189.956C238.093 189.755 237.696 189.672 237.303 189.717L226.413 190.927C226.125 190.962 225.849 191.064 225.608 191.226C225.367 191.388 225.167 191.604 225.026 191.858C224.885 192.111 224.805 192.395 224.794 192.685C224.783 192.975 224.841 193.264 224.963 193.527Z" fill="#263238" stroke="#263238" stroke-miterlimit="10"/>
<path d="M232.631 215.217C232.631 215.217 228.441 208.797 228.441 207.357C228.441 205.917 230.881 202.507 232.311 199.427C233.741 196.347 233.961 194.287 235.191 194.707C236.421 195.127 236.191 196.347 235.801 198.397C235.05 201.041 234.162 203.644 233.141 206.197L233.551 208.667C234.542 206.668 235.782 204.803 237.241 203.117C239.091 201.277 241.141 198.197 242.581 198.807C244.021 199.417 244.631 199.807 243.401 201.277C241.857 203.126 240.472 205.103 239.261 207.187C238.175 208.964 237.242 210.831 236.471 212.767C237.845 211.451 239.305 210.228 240.841 209.107C242.841 207.667 245.661 205.587 246.841 206.407C248.021 207.227 248.281 208.047 247.051 209.077C245.821 210.107 244.701 210.807 243.051 212.247C241.33 213.965 239.714 215.785 238.211 217.697C239.677 216.564 241.31 215.667 243.051 215.037C246.541 213.607 249.731 213.767 249.861 214.867C249.991 215.967 246.191 216.967 246.191 216.967C243.471 217.587 243.341 218.517 243.341 218.517C243.341 218.517 245.601 223.037 245.191 224.517C245.191 224.517 254.311 223.087 257.801 222.067C261.291 221.047 266.741 223.067 268.391 224.717C271.881 228.207 273.521 233.547 271.681 238.067C269.841 242.587 269.831 241.147 255.251 237.067C240.671 232.987 240.951 231.527 237.391 225.567C236.101 223.247 232.631 215.217 232.631 215.217Z" fill="white" stroke="#263238" stroke-miterlimit="10"/>
<path d="M245.251 224.477L244.941 228.237" stroke="#263238" stroke-miterlimit="10"/>
<path d="M164.796 202.347C164.286 197.347 161.839 193.265 158.372 189.898C150.826 182.449 139.405 180.918 130.125 186.02L117.786 192.653C114.931 194.286 112.076 195.714 109.322 197.449C107.385 198.673 106.569 200.612 106.977 202.857C107.385 205.204 108.813 206.735 111.158 207.347C112.892 207.857 114.319 207.347 115.747 206.531C122.069 203.163 128.29 199.592 134.612 196.327C139.915 193.673 145.931 194.898 149.908 199.388C151.438 201.122 152.661 203.265 152.355 205.714C151.743 210.714 149.704 214.796 145.013 217.347C140.934 219.49 136.855 221.735 132.878 223.878C130.533 225.204 128.188 226.429 125.944 227.755C124.007 228.98 123.089 231.327 123.599 233.367C124.517 237.347 128.392 239.082 132.063 237.143C138.691 233.571 145.319 229.898 151.947 226.327C158.066 222.959 162.043 217.857 163.878 211.122C164.388 209.388 164.592 207.551 165 205.714V202.755C165 202.653 164.898 202.449 164.796 202.347ZM122.273 241.122C119.826 240 117.48 240.612 115.543 242.755C110.852 247.857 106.161 253.061 101.471 258.163C97.4936 262.551 91.885 263.776 86.5824 261.429C84.135 260.306 81.7896 258.776 81.1778 256.02C79.8521 251.02 80.464 246.327 84.237 242.347L93.4146 232.245C95.2501 230.204 97.1876 228.265 98.9212 226.122C100.859 223.673 100.043 219.898 97.3916 218.163C95.0462 216.633 92.089 217.041 89.9475 219.388C84.8488 225 79.7502 230.51 74.6515 236.122C72.3061 238.673 70.5726 241.633 69.5528 244.898C68.1252 249.184 68.1252 253.469 68.839 257.857C69.2469 260.714 70.1647 263.367 72.0002 265.612C76.7929 271.735 83.1153 274.796 90.3554 275C97.2896 274.898 103 272.755 107.487 268.061C112.79 262.551 117.786 256.939 122.885 251.327C123.395 250.714 124.007 250 124.517 249.388C126.556 246.531 125.434 242.551 122.273 241.122ZM95.862 235.204C93.7205 237.653 93.3126 240.612 94.6383 243.061C96.8817 247.449 102.286 248.061 105.753 244.388C114.217 235.408 122.477 226.429 130.839 217.347C132.165 216.02 132.878 214.388 132.878 212.653C132.878 208.878 129.819 205.714 126.148 205.816C123.905 205.918 122.171 206.837 120.744 208.469C114.319 215.306 107.997 222.245 101.572 229.082C99.635 231.122 97.6975 233.163 95.862 235.204ZM89.8456 212.347H91.3752C93.2107 212.347 94.2304 210.612 93.6186 208.98C93.2107 208.265 92.5988 207.755 91.885 207.449L68.941 196.122C67.1055 195.204 66.9015 195.306 65.9838 197.143C65.8818 197.347 65.7798 197.551 65.6778 197.857C64.5561 200.306 63.9443 202.959 63.4344 205.612C63.1285 206.939 62.9246 208.265 63.0265 209.592C63.1285 210.408 63.4344 210.714 64.2502 210.816C66.4936 210.918 68.839 211.02 71.0824 211.224C77.3028 211.633 83.6252 211.939 89.8456 212.347ZM97.1876 193.469C97.5955 195.612 98.1054 197.755 98.6153 199.898C98.9212 201.122 99.635 201.837 100.757 201.735C101.878 201.735 102.592 201.02 102.898 199.796C102.898 199.694 102.898 199.592 103 199.49C104.326 191.939 105.651 184.49 107.079 176.939C107.283 176.02 106.977 175.612 106.059 175.408C104.326 175 102.592 175 100.859 175C98.8192 175 96.6778 175.102 94.7403 175.612C93.5166 175.918 93.4146 176.224 93.7205 177.347C94.8423 182.755 95.964 188.061 97.1876 193.469ZM73.2239 185.612C77.5068 188.571 81.7896 191.633 86.0725 194.592C86.9903 195.306 87.9081 196.02 88.9278 196.531C90.0495 197.143 91.1712 196.531 91.2732 195.306C91.1712 194.898 90.9673 194.49 90.6613 194.082C87.2962 189.082 83.8291 184.184 80.464 179.184C80.0561 178.571 79.6482 178.367 78.9344 178.776C76.487 180 74.5495 181.735 72.918 183.98C72.4081 184.694 72.5101 185.102 73.2239 185.612Z" fill="#191919"/>
</g>
</g>
<defs>
<clipPath id="clip0_6560_16335">
<rect width="482" height="434" fill="white"/>
</clipPath>
</defs>
</svg>
