<svg width="500" height="372" viewBox="0 0 500 372" fill="none" xmlns="http://www.w3.org/2000/svg">
<g clip-path="url(#clip0_6560_16442)">
<mask id="mask0_6560_16442" style="mask-type:luminance" maskUnits="userSpaceOnUse" x="0" y="0" width="500" height="372">
<path d="M500 0H0V372H500V0Z" fill="white"/>
</mask>
<g mask="url(#mask0_6560_16442)">
<path d="M449.901 343.49H416.781V343.74H449.901V343.49Z" fill="#EBEBEB"/>
<path d="M331.221 346.211H322.531V346.461H331.221V346.211Z" fill="#EBEBEB"/>
<path d="M415.78 334.211H396.59V334.461H415.78V334.211Z" fill="#EBEBEB"/>
<path d="M95.6509 335.891H52.4609V336.141H95.6509V335.891Z" fill="#EBEBEB"/>
<path d="M110.889 335.891H104.559V336.141H110.889V335.891Z" fill="#EBEBEB"/>
<path d="M225.149 340.109H131.469V340.359H225.149V340.109Z" fill="#EBEBEB"/>
<path d="M238.4 282.8H45.2998C43.7855 282.8 42.3331 282.198 41.2623 281.128C40.1914 280.057 39.5898 278.604 39.5898 277.09V5.66C39.603 4.15429 40.2104 2.71475 41.2798 1.65471C42.3492 0.594662 43.7941 -5.77259e-05 45.2998 4.20255e-09H238.4C239.15 4.20255e-09 239.892 0.147692 240.585 0.434647C241.278 0.721601 241.907 1.1422 242.437 1.67242C242.968 2.20264 243.388 2.83211 243.675 3.52488C243.962 4.21765 244.11 4.96015 244.11 5.71V277.09C244.11 277.84 243.962 278.582 243.675 279.275C243.388 279.968 242.968 280.597 242.437 281.128C241.907 281.658 241.278 282.078 240.585 282.365C239.892 282.652 239.15 282.8 238.4 282.8ZM45.2998 0.200001C43.8526 0.202644 42.4653 0.77874 41.442 1.80212C40.4186 2.82549 39.8425 4.21273 39.8398 5.66V277.09C39.8425 278.537 40.4186 279.924 41.442 280.948C42.4653 281.971 43.8526 282.547 45.2998 282.55H238.4C239.847 282.547 241.234 281.971 242.258 280.948C243.281 279.924 243.857 278.537 243.86 277.09V5.66C243.857 4.21273 243.281 2.82549 242.258 1.80212C241.234 0.77874 239.847 0.202644 238.4 0.200001H45.2998Z" fill="#EBEBEB"/>
<path d="M454.701 282.8H261.601C260.087 282.8 258.634 282.198 257.564 281.128C256.493 280.057 255.891 278.604 255.891 277.09V5.66C255.904 4.15429 256.512 2.71475 257.581 1.65471C258.651 0.594662 260.095 -5.77259e-05 261.601 4.20255e-09H454.701C456.216 4.20256e-09 457.668 0.601588 458.739 1.67242C459.81 2.74325 460.411 4.19561 460.411 5.71V277.09C460.411 278.604 459.81 280.057 458.739 281.128C457.668 282.198 456.216 282.8 454.701 282.8ZM261.601 0.200001C260.154 0.202644 258.767 0.77874 257.743 1.80212C256.72 2.82549 256.144 4.21273 256.141 5.66V277.09C256.144 278.537 256.72 279.924 257.743 280.948C258.767 281.971 260.154 282.547 261.601 282.55H454.701C456.148 282.547 457.536 281.971 458.559 280.948C459.582 279.924 460.158 278.537 460.161 277.09V5.66C460.158 4.21273 459.582 2.82549 458.559 1.80212C457.536 0.77874 456.148 0.202644 454.701 0.200001H261.601Z" fill="#EBEBEB"/>
<path d="M500 327.4H0V327.65H500V327.4Z" fill="#EBEBEB"/>
<path d="M350.07 321.59H445.25V194.94H350.07V321.59Z" fill="#F5F5F5"/>
<path d="M331.91 321.59H350.07V194.94H331.91V321.59Z" fill="#E6E6E6"/>
<path d="M356.25 235.1H438.58V204.34H356.25V235.1Z" fill="#FAFAFA"/>
<path d="M408.15 204.34L407.79 208.44C407.735 209.093 407.436 209.702 406.952 210.145C406.469 210.588 405.836 210.832 405.18 210.83H389.65C388.994 210.832 388.362 210.588 387.878 210.145C387.395 209.702 387.095 209.093 387.04 208.44L386.68 204.34H408.15Z" fill="#EBEBEB"/>
<path d="M356.25 269.211H438.58V238.451H356.25V269.211Z" fill="#FAFAFA"/>
<path d="M408.15 238.461L407.79 242.561C407.733 243.213 407.433 243.821 406.95 244.263C406.467 244.706 405.835 244.951 405.18 244.951H389.65C388.995 244.951 388.364 244.706 387.881 244.263C387.398 243.821 387.098 243.213 387.04 242.561L386.68 238.461H408.15Z" fill="#EBEBEB"/>
<path d="M356.25 303.33H438.58V272.57H356.25V303.33Z" fill="#FAFAFA"/>
<path d="M408.15 272.57L407.79 276.67C407.735 277.324 407.436 277.932 406.952 278.375C406.469 278.818 405.836 279.063 405.18 279.06H389.65C388.994 279.063 388.362 278.818 387.878 278.375C387.395 277.932 387.095 277.324 387.04 276.67L386.68 272.57H408.15Z" fill="#EBEBEB"/>
<path d="M356.25 327.92H437.58L438.58 321.58H356.25V327.92Z" fill="#E6E6E6"/>
<path d="M339.25 327.92H356.25V321.58H338.25L339.25 327.92Z" fill="#E0E0E0"/>
<path d="M394.479 195.079H426.979L423.379 153.869H390.879L394.479 195.079Z" fill="#FAFAFA"/>
<path d="M394.48 195.079H392.93L389.32 153.869H390.88L394.48 195.079Z" fill="#EBEBEB"/>
<path d="M397.429 190.88H423.299L420.429 158.07H394.559L397.429 190.88Z" fill="#F0F0F0"/>
<path d="M399.322 188.18H420.932L418.542 160.77H396.922L399.322 188.18Z" fill="#E6E6E6"/>
<path d="M385.35 195.08L387.58 169.57H355.23L353 195.08H385.35Z" fill="#F0F0F0"/>
<path d="M385.352 195.08L387.582 169.57H389.322L387.092 195.08H385.352Z" fill="#E0E0E0"/>
<path d="M382.28 192.48L384.06 172.17H358.3L356.52 192.48H382.28Z" fill="#EBEBEB"/>
<path d="M380.309 190.81L381.789 173.85H360.269L358.789 190.81H380.309Z" fill="#F5F5F5"/>
<path d="M310.641 310.77C310.641 317.53 309.581 321.9 307.801 324.71C307.116 325.739 306.185 326.58 305.091 327.157C303.998 327.733 302.777 328.026 301.541 328.01H291.751C290.515 328.026 289.295 327.733 288.201 327.157C287.108 326.58 286.176 325.739 285.491 324.71C283.711 321.9 282.641 317.53 282.641 310.77C282.641 300.96 286.921 293.11 288.321 286.85C288.821 284.59 287.141 277.67 287.141 277.67H306.141C306.141 277.67 304.471 284.59 304.971 286.85C306.371 293.11 310.641 301 310.641 310.77Z" fill="#EBEBEB"/>
<path d="M343.001 271.09C343.001 262.57 329.651 266.09 326.291 252.9C325.011 247.9 335.871 236.57 335.871 236.57H302.001C302.001 236.57 312.861 247.9 311.581 252.9C308.221 266.11 294.871 262.57 294.871 271.09C294.871 280.46 313.701 299.99 314.611 321.97C314.691 323.97 311.071 327.97 311.071 327.97H326.791C326.791 327.97 323.161 323.89 323.251 321.97C324.171 300 343.001 280.46 343.001 271.09Z" fill="#F5F5F5"/>
<path d="M332.769 293.21C334.769 289.07 330.669 275.01 330.669 275.01H345.339C345.339 275.01 341.269 289.07 343.239 293.21C344.629 296.13 347.779 298 347.779 301.45V322.22C347.779 327.6 343.379 328.01 337.999 328.01C332.619 328.01 328.219 327.6 328.219 322.22V301.45C328.219 298 331.379 296.13 332.769 293.21Z" fill="#F0F0F0"/>
<path d="M165.15 170.53C156.73 166.88 151.92 159.18 154.44 153.36C156.96 147.54 165.86 145.78 174.29 149.43C182.72 153.08 187.52 160.78 185 166.6C182.48 172.42 173.58 174.18 165.15 170.53ZM171.86 155C167.86 153.29 163.74 154.11 162.56 156.84C161.38 159.57 163.63 163.17 167.56 164.84C171.49 166.51 175.68 165.73 176.86 163C178.04 160.27 175.81 156.75 171.86 155Z" fill="#E6E6E6"/>
<path d="M175.07 155.36L171.07 153.63L195.27 97.6896C195.383 97.426 195.547 97.1874 195.753 96.9876C195.959 96.7879 196.202 96.631 196.469 96.5259C196.736 96.4208 197.021 96.3697 197.308 96.3754C197.595 96.3812 197.877 96.4438 198.14 96.5596C198.402 96.6727 198.64 96.8365 198.839 97.0416C199.037 97.2467 199.194 97.4891 199.299 97.7549C199.404 98.0206 199.455 98.3044 199.45 98.5901C199.445 98.8758 199.384 99.1576 199.27 99.4196L175.07 155.36Z" fill="#E6E6E6"/>
<path d="M201.12 104.831L193.43 101.471L195.17 97.4707L202.85 100.831L201.12 104.831Z" fill="#E6E6E6"/>
<path d="M197.328 109.31L191.828 106.92L193.558 102.91L199.058 105.3L197.328 109.31Z" fill="#E6E6E6"/>
<path d="M191.319 110.552L189.586 114.553L195.753 117.223L197.486 113.222L191.319 110.552Z" fill="#E6E6E6"/>
<path d="M176.62 149.39L174.42 148.44C173.894 148.21 173.481 147.781 173.271 147.247C173.062 146.713 173.072 146.117 173.3 145.59C173.528 145.063 173.957 144.648 174.491 144.436C175.025 144.224 175.622 144.233 176.15 144.46L178.35 145.41C178.876 145.641 179.288 146.07 179.498 146.604C179.708 147.138 179.698 147.734 179.47 148.26C179.241 148.788 178.813 149.203 178.279 149.415C177.744 149.627 177.148 149.618 176.62 149.39Z" fill="#E6E6E6"/>
<path d="M348.471 130.161C350.979 131.745 352.959 134.04 354.156 136.755C355.354 139.469 355.715 142.479 355.193 145.399C354.672 148.319 353.292 151.018 351.229 153.15C349.166 155.283 346.515 156.751 343.613 157.369C340.711 157.987 337.692 157.726 334.939 156.619C332.187 155.513 329.827 153.61 328.161 151.156C326.494 148.701 325.598 145.806 325.586 142.839C325.573 139.872 326.445 136.969 328.091 134.501C330.221 131.226 333.563 128.93 337.384 128.117C341.204 127.303 345.192 128.038 348.471 130.161ZM336.321 148.391C337.46 149.192 338.811 149.636 340.203 149.665C341.596 149.694 342.965 149.308 344.136 148.555C345.307 147.802 346.227 146.716 346.778 145.438C347.329 144.159 347.487 142.745 347.23 141.377C346.974 140.008 346.315 138.747 345.338 137.755C344.361 136.763 343.11 136.085 341.746 135.807C340.381 135.53 338.965 135.665 337.678 136.197C336.391 136.728 335.292 137.631 334.521 138.791C333.488 140.303 333.097 142.163 333.434 143.963C333.772 145.763 334.81 147.356 336.321 148.391Z" fill="#E6E6E6"/>
<path d="M334.712 146.609L338.852 149.369L309.232 194.689C308.866 195.238 308.297 195.619 307.65 195.748C307.003 195.877 306.331 195.745 305.782 195.379C305.511 195.199 305.278 194.967 305.096 194.696C304.915 194.426 304.788 194.122 304.724 193.802C304.66 193.483 304.66 193.154 304.723 192.834C304.786 192.515 304.911 192.211 305.092 191.939L334.712 146.609Z" fill="#E6E6E6"/>
<path d="M305.279 182.05L313.999 187.9L309.649 194.43L300.919 188.57C300.319 188.165 299.903 187.54 299.763 186.829C299.622 186.119 299.768 185.382 300.169 184.78L301.479 182.78C301.889 182.182 302.518 181.77 303.229 181.633C303.941 181.497 304.677 181.646 305.279 182.05Z" fill="#E6E6E6"/>
<path d="M227.54 43.5592L222.94 55.4592C222.842 55.7146 222.694 55.9481 222.505 56.1464C222.316 56.3447 222.09 56.5039 221.84 56.6148C221.59 56.7258 221.32 56.7864 221.047 56.7931C220.773 56.7999 220.501 56.7527 220.245 56.6542C219.99 56.5557 219.756 56.4078 219.558 56.2191C219.36 56.0304 219.2 55.8044 219.09 55.5542C218.979 55.3039 218.918 55.0342 218.911 54.7606C218.904 54.4869 218.952 54.2146 219.05 53.9592L223.65 42.0592C224.361 40.209 224.31 38.1524 223.508 36.3398C222.706 34.5273 221.218 33.1066 219.37 32.3892L215.11 30.7392C213.263 30.0268 211.208 30.075 209.396 30.8733C207.584 31.6716 206.162 33.155 205.44 34.9992L203.56 39.8592L199.68 38.3592L201.56 33.4992C202.11 32.073 202.936 30.7692 203.99 29.6621C205.044 28.5551 206.306 27.6665 207.704 27.0471C209.101 26.4277 210.607 26.0897 212.135 26.0523C213.663 26.0149 215.184 26.2789 216.61 26.8292L220.87 28.4692C222.299 29.0214 223.606 29.8499 224.715 30.9073C225.824 31.9647 226.713 33.2303 227.333 34.6317C227.952 36.0332 228.289 37.543 228.325 39.0748C228.361 40.6066 228.094 42.1305 227.54 43.5592Z" fill="#F0F0F0"/>
<path d="M226.809 45.43C226.492 45.0224 226.07 44.708 225.589 44.52L202.389 35.52C201.684 35.2547 200.904 35.2769 200.215 35.5818C199.527 35.8867 198.986 36.4499 198.709 37.15L189.709 60.36C189.439 61.0629 189.458 61.8443 189.764 62.5325C190.07 63.2207 190.636 63.7594 191.339 64.03L214.539 73.03C214.887 73.1654 215.259 73.2307 215.633 73.222C216.007 73.2133 216.376 73.1309 216.717 72.9795C217.059 72.828 217.368 72.6105 217.626 72.3395C217.883 72.0684 218.085 71.7492 218.219 71.4L227.219 48.2C227.397 47.7424 227.452 47.2464 227.381 46.7608C227.309 46.2751 227.112 45.8165 226.809 45.43ZM209.189 63.36L201.839 60.52L205.729 53.73C205.427 53.1221 205.282 52.4485 205.307 51.7703C205.331 51.0922 205.524 50.4308 205.869 49.8461C206.213 49.2614 206.698 48.7719 207.279 48.4218C207.861 48.0718 208.52 47.8723 209.198 47.8414C209.876 47.8105 210.551 47.9492 211.162 48.2449C211.773 48.5406 212.3 48.984 212.696 49.5349C213.093 50.0858 213.345 50.7269 213.431 51.4001C213.517 52.0732 213.434 52.7572 213.189 53.39C212.988 53.9188 212.678 54.3989 212.278 54.7988C211.878 55.1987 211.398 55.5093 210.869 55.71L209.189 63.36Z" fill="#E6E6E6"/>
<path d="M69.1484 314.461H254.279V214.831H69.1484V314.461Z" fill="#E6E6E6"/>
<path d="M239.441 327.391H251.081V318.601H239.441V327.391Z" fill="#E6E6E6"/>
<path d="M55.0195 327.391H66.6595V207.421H55.0195V327.391Z" fill="#E6E6E6"/>
<path d="M66.5195 207.41V327.41H72.7295V320.69H251.08V327.41H257.29V207.41H66.5195ZM72.7295 218.27H158.8V259.94H72.7295V218.27ZM251.08 309.8H165V218.27H251.07L251.08 309.8ZM72.7295 309.8V266.15H158.8V309.8H72.7295Z" fill="#F0F0F0"/>
<path d="M165 309.811H245.26V222.761H165V309.811Z" fill="#F5F5F5"/>
<path d="M168.641 263.669C168.641 264.407 168.86 265.128 169.27 265.742C169.68 266.355 170.262 266.833 170.944 267.116C171.625 267.398 172.375 267.472 173.099 267.328C173.822 267.184 174.487 266.829 175.009 266.307C175.53 265.785 175.886 265.121 176.029 264.397C176.173 263.674 176.1 262.924 175.817 262.242C175.535 261.56 175.057 260.978 174.443 260.568C173.83 260.158 173.109 259.939 172.371 259.939C171.881 259.939 171.396 260.036 170.944 260.223C170.491 260.411 170.08 260.686 169.734 261.032C169.387 261.378 169.113 261.789 168.925 262.242C168.738 262.695 168.641 263.18 168.641 263.669Z" fill="#FAFAFA"/>
<path d="M172.371 267.401C173.084 267.398 173.781 267.192 174.38 266.805C174.979 266.419 175.455 265.869 175.751 265.221C175.98 265.706 176.099 266.235 176.101 266.771C176.101 267.76 175.708 268.709 175.009 269.408C174.309 270.108 173.36 270.501 172.371 270.501C171.382 270.501 170.433 270.108 169.734 269.408C169.034 268.709 168.641 267.76 168.641 266.771C168.643 266.235 168.763 265.706 168.991 265.221C169.287 265.869 169.763 266.419 170.362 266.805C170.961 267.192 171.658 267.398 172.371 267.401Z" fill="#E0E0E0"/>
<path d="M214.14 309.8H194.99L185.84 222.75H204.99L214.14 309.8Z" fill="#FAFAFA"/>
<path d="M190.089 309.8H186.279L177.129 222.75H180.939L190.089 309.8Z" fill="#FAFAFA"/>
<path d="M139.41 259.9H146.99V222.67H139.41V259.9Z" fill="#FAFAFA"/>
<path d="M107.961 259.9H115.541V222.67H107.961V259.9Z" fill="#F5F5F5"/>
<path d="M131.82 259.9H139.4V225.28H131.82V259.9Z" fill="#F5F5F5"/>
<path d="M115.539 259.9H123.119V225.28H115.539V259.9Z" fill="#FAFAFA"/>
<path d="M123.129 259.9H128.029V222.67H123.129V259.9Z" fill="#EBEBEB"/>
<path d="M128.02 259.9H131.81V225.28H128.02V259.9Z" fill="#FAFAFA"/>
<path d="M100.379 259.9H107.959V222.67H100.379V259.9Z" fill="#EBEBEB"/>
<path d="M92.7891 259.9H100.369V225.28H92.7891V259.9Z" fill="#E6E6E6"/>
<path d="M76.5117 259.9H84.0917V225.28H76.5117V259.9Z" fill="#E6E6E6"/>
<path d="M84.1016 259.9H89.0016V222.67H84.1016V259.9Z" fill="#FAFAFA"/>
<path d="M89 259.9H92.79V225.28H89V259.9Z" fill="#EBEBEB"/>
<path d="M72.7188 259.9H76.5088V223.55H72.7188V259.9Z" fill="#EBEBEB"/>
<path d="M80.2988 272.57H72.7188V309.8H80.2988V272.57Z" fill="#EBEBEB"/>
<path d="M111.74 272.57H104.16V309.8H111.74V272.57Z" fill="#FAFAFA"/>
<path d="M87.8808 275.189H80.3008V309.809H87.8808V275.189Z" fill="#FAFAFA"/>
<path d="M104.162 275.189H96.582V309.809H104.162V275.189Z" fill="#EBEBEB"/>
<path d="M96.5797 272.57H91.6797V309.8H96.5797V272.57Z" fill="#FAFAFA"/>
<path d="M91.6806 275.189H87.8906V309.809H91.6806V275.189Z" fill="#F5F5F5"/>
<path d="M119.33 272.57H111.75V309.8H119.33V272.57Z" fill="#EBEBEB"/>
<path d="M126.908 275.189H119.328V309.809H126.908V275.189Z" fill="#F5F5F5"/>
<path d="M143.189 275.189H135.609V309.809H143.189V275.189Z" fill="#E6E6E6"/>
<path d="M135.611 272.57H130.711V309.8H135.611V272.57Z" fill="#FAFAFA"/>
<path d="M151.888 272.57H146.988V309.8H151.888V272.57Z" fill="#FAFAFA"/>
<path d="M130.712 275.189H126.922V309.809H130.712V275.189Z" fill="#EBEBEB"/>
<path d="M146.981 273.449H143.191V309.799H146.981V273.449Z" fill="#EBEBEB"/>
<path d="M81.1816 143.289C80.3958 143.676 79.7469 144.293 79.3216 145.059C78.7416 146.239 80.5516 148.429 80.5516 148.429C80.988 148.721 81.4866 148.906 82.0076 148.97C82.5286 149.035 83.0574 148.976 83.5516 148.799L85.0516 148.119C85.0516 148.119 82.4816 143.649 81.2316 143.599L81.1816 143.289Z" fill="#E6E6E6"/>
<path d="M87.6286 143.25C87.8086 145.37 86.4986 148.05 84.6286 148.25C82.7586 148.45 80.9986 146 80.7786 143.85C80.5586 141.7 82.1186 141.52 84.0086 141.36C85.8986 141.2 87.4386 141.13 87.6286 143.25Z" fill="#E6E6E6"/>
<path d="M82.0815 142.631C82.0815 142.631 83.5315 143.781 86.5115 143.111C86.5115 143.111 81.8115 146.241 82.0815 142.631Z" fill="#E6E6E6"/>
<path d="M83.3594 142.209C83.3594 142.209 85.0294 141.919 85.0494 142.609C85.0494 142.609 86.4694 142.529 86.2694 141.939C86.0694 141.349 83.3594 142.209 83.3594 142.209Z" fill="#E6E6E6"/>
<g opacity="0.2">
<path d="M82.0815 142.631C82.0815 142.631 83.5315 143.781 86.5115 143.111C86.5115 143.111 81.8115 146.241 82.0815 142.631Z" fill="#FAFAFA"/>
</g>
<g opacity="0.2">
<path d="M83.3594 142.209C83.3594 142.209 85.0294 141.919 85.0494 142.609C85.0494 142.609 86.4694 142.529 86.2694 141.939C86.0694 141.349 83.3594 142.209 83.3594 142.209Z" fill="#FAFAFA"/>
</g>
<path d="M81.4297 148.881C81.7523 149.365 82.2052 149.747 82.7361 149.984C83.267 150.221 83.8541 150.304 84.4297 150.221C84.9985 150.135 85.5431 149.932 86.0287 149.624C86.5143 149.315 86.9302 148.909 87.2497 148.431C87.8734 147.467 88.2194 146.349 88.2497 145.201C88.2497 144.911 88.2497 144.201 87.8997 144.051C87.5497 143.901 87.3197 144.451 87.1597 144.681C86.6928 145.352 86.1602 145.975 85.5697 146.541C84.9857 147.101 84.3379 147.591 83.6397 148.001C83.4397 148.061 81.5397 149.051 81.4297 148.881Z" fill="#E6E6E6"/>
<path d="M89.5496 144.649C89.7224 145.083 89.7828 145.553 89.7251 146.016C89.6674 146.48 89.4935 146.921 89.2196 147.299C88.8254 147.767 88.3471 148.157 87.8095 148.449C87.4395 148.669 86.9696 148.879 86.6096 148.649C86.2496 148.419 86.2596 147.829 86.3496 147.379C86.4896 146.689 86.6396 145.999 86.8196 145.309C86.9049 144.618 87.0936 143.944 87.3795 143.309C87.6895 142.869 88.1195 143.129 88.5895 143.459C89.016 143.757 89.349 144.169 89.5496 144.649Z" fill="#E6E6E6"/>
<g opacity="0.2">
<path d="M81.9101 147.711C81.5463 147.682 81.1975 147.553 80.9013 147.34C80.6052 147.127 80.3731 146.837 80.2301 146.501C80.0301 145.991 80.0301 144.721 80.6901 144.551C80.8893 145.673 81.3035 146.746 81.9101 147.711Z" fill="#FAFAFA"/>
</g>
<g opacity="0.2">
<path d="M86.8398 147.65C87.1855 147.549 87.5013 147.365 87.7593 147.114C88.0173 146.863 88.2098 146.553 88.3198 146.21C88.4298 145.83 88.3198 143.89 87.7098 144.7C87.5198 144.97 87.5598 145.82 87.4598 146.17C87.3121 146.686 87.1039 147.182 86.8398 147.65Z" fill="#FAFAFA"/>
</g>
<g opacity="0.2">
<path d="M84.2005 148.85C84.4793 149.082 84.8287 149.214 85.1918 149.223C85.5549 149.232 85.9103 149.118 86.2005 148.9C86.1205 149.28 84.9405 149.59 84.5805 149.7C83.5805 149.98 83.1205 149.56 82.2005 149.17C82.1505 149.17 83.6105 149.39 84.2005 148.85Z" fill="#FAFAFA"/>
</g>
<path d="M82.5508 187.8L82.6408 158.95L84.1208 150.18L84.6808 150.27L83.2108 159L83.1008 188.35L82.5508 187.8Z" fill="#E0E0E0"/>
<path d="M83.1508 158.799L82.7008 159.149C82.1923 158.438 81.7441 157.685 81.3608 156.899C80.6109 155.346 79.6667 153.895 78.5508 152.579L78.9708 152.189C80.1199 153.542 81.0942 155.034 81.8708 156.629C82.2374 157.387 82.6655 158.112 83.1508 158.799Z" fill="#E0E0E0"/>
<path d="M83.4986 154.931C84.2724 154.721 84.946 154.243 85.3986 153.581C85.8471 152.796 86.1327 151.929 86.2386 151.031C85.2386 151.331 84.1686 150.851 83.1386 150.971C82.7273 151.022 82.3331 151.166 81.9864 151.393C81.6396 151.62 81.3496 151.924 81.1386 152.281C80.5986 153.211 80.3786 154.281 80.8586 154.691C81.674 155.111 82.6209 155.197 83.4986 154.931Z" fill="#E6E6E6"/>
<path d="M79.6612 152.94C79.1973 153.229 78.6763 153.413 78.1341 153.48C77.5919 153.548 77.0416 153.496 76.5212 153.33C75.5212 153 75.1912 151.44 74.7812 150.43C76.0684 150.31 77.3641 150.31 78.6513 150.43C78.9232 150.447 79.1881 150.523 79.4267 150.655C79.6654 150.786 79.8718 150.969 80.0312 151.19C80.1812 151.417 80.2425 151.691 80.2038 151.96C80.1651 152.229 80.029 152.475 79.8213 152.65L79.6612 152.94Z" fill="#E6E6E6"/>
<path d="M74.9306 154.63C75.3434 154.219 75.841 153.903 76.3885 153.705C76.9361 153.506 77.5204 153.429 78.1006 153.48C78.5651 153.566 79.0029 153.76 79.3782 154.046C79.7536 154.333 80.0559 154.704 80.2606 155.13C80.1049 155.426 79.8724 155.676 79.5874 155.852C79.3025 156.028 78.9755 156.124 78.6406 156.13C77.9588 156.14 77.2808 156.025 76.6406 155.79C76.0018 155.549 75.3234 155.43 74.6406 155.44L74.9306 154.63Z" fill="#E6E6E6"/>
<path d="M94.18 149.67C94.8136 150.269 95.2496 151.047 95.43 151.9C95.64 153.21 93.27 154.76 93.27 154.76C92.7637 154.916 92.2277 154.949 91.7061 154.857C91.1844 154.765 90.6922 154.55 90.27 154.23L89 153.13C89 153.13 92.78 149.62 94 149.95L94.18 149.67Z" fill="#E6E6E6"/>
<path d="M87.9995 147.74C87.2095 149.74 87.6795 152.65 89.4395 153.36C91.1995 154.07 93.5795 152.29 94.3795 150.36C95.1795 148.43 93.7995 147.7 91.9995 147C90.1995 146.3 88.8195 145.77 87.9995 147.74Z" fill="#E6E6E6"/>
<path d="M93.5089 148.77C93.5089 148.77 91.7789 149.45 89.1289 147.93C89.1289 147.93 92.6989 152.3 93.5089 148.77Z" fill="#E6E6E6"/>
<path d="M92.4098 148C92.4098 148 90.8998 147.23 90.6698 147.89C90.6698 147.89 89.3398 147.4 89.6698 146.89C89.9998 146.38 92.4098 148 92.4098 148Z" fill="#E6E6E6"/>
<g opacity="0.2">
<path d="M93.5089 148.77C93.5089 148.77 91.7789 149.45 89.1289 147.93C89.1289 147.93 92.6989 152.3 93.5089 148.77Z" fill="#FAFAFA"/>
</g>
<g opacity="0.2">
<path d="M92.4098 148C92.4098 148 90.8998 147.23 90.6698 147.89C90.6698 147.89 89.3398 147.4 89.6698 146.89C89.9998 146.38 92.4098 148 92.4098 148Z" fill="#FAFAFA"/>
</g>
<path d="M92.2888 154.94C91.8403 155.299 91.3014 155.528 90.7315 155.6C90.1616 155.672 89.5827 155.586 89.0588 155.35C88.5408 155.1 88.0805 154.745 87.7069 154.308C87.3333 153.871 87.0547 153.361 86.8888 152.81C86.5787 151.698 86.5787 150.522 86.8888 149.41C86.9488 149.12 87.1488 148.41 87.5588 148.41C87.9688 148.41 87.9888 148.96 88.0788 149.23C88.3289 150.014 88.6643 150.769 89.0788 151.48C89.4793 152.174 89.9592 152.818 90.5088 153.4C90.6088 153.57 92.1388 155.07 92.2888 154.94Z" fill="#E6E6E6"/>
<path d="M85.7798 148.509C85.4835 148.869 85.2853 149.3 85.2047 149.759C85.1241 150.218 85.1638 150.69 85.3198 151.129C85.5471 151.698 85.8873 152.215 86.3198 152.649C86.5998 152.969 86.9898 153.309 87.3998 153.189C87.8098 153.069 87.9698 152.509 88.0198 152.059C88.0898 151.349 88.1498 150.649 88.1798 149.939C88.2845 149.26 88.2845 148.569 88.1798 147.889C88.0198 147.369 87.5198 147.489 86.9798 147.669C86.5083 147.83 86.0922 148.121 85.7798 148.509Z" fill="#E6E6E6"/>
<g opacity="0.2">
<path d="M92.1797 153.67C92.5411 153.765 92.9226 153.754 93.2776 153.637C93.6327 153.519 93.9461 153.302 94.1797 153.01C94.5097 152.59 94.8797 151.37 94.3097 151.01C93.7755 152.024 93.0526 152.927 92.1797 153.67Z" fill="#FAFAFA"/>
</g>
<g opacity="0.2">
<path d="M87.4805 152.17C87.1764 151.976 86.9256 151.708 86.751 151.392C86.5764 151.076 86.4834 150.721 86.4805 150.36C86.4805 149.96 87.1905 148.15 87.4805 149.1C87.5805 149.41 87.2905 150.21 87.2905 150.57C87.2931 151.109 87.3568 151.646 87.4805 152.17Z" fill="#FAFAFA"/>
</g>
<g opacity="0.2">
<path d="M89.6513 154.09C89.3259 154.222 88.9659 154.243 88.6276 154.149C88.2894 154.055 87.9918 153.851 87.7812 153.57C87.7812 153.95 88.7812 154.57 89.0912 154.81C89.9212 155.36 90.5212 155.1 91.5212 155C91.5212 155 90.0613 154.79 89.6513 154.09Z" fill="#FAFAFA"/>
</g>
<path d="M81.7305 183.491L82.0905 182.311L82.5705 180.721L83.1305 178.861L87.6205 164.091L88.1805 159.851L88.6805 156.091L88.7805 155.311L89.0605 155.341V155.351L89.3505 155.381L89.3405 155.451L89.2405 156.191L88.7105 160.211L88.2805 163.491L88.1805 164.211L88.1405 164.321L83.1305 180.821L82.5605 182.671L82.3105 183.531L81.9505 184.701L81.7305 183.491Z" fill="#E0E0E0"/>
<path d="M87.7305 163.92L88.0605 164.38C88.7534 163.847 89.4022 163.258 90.0005 162.62C91.1857 161.352 92.5302 160.243 94.0005 159.32L93.7105 158.83C92.2118 159.778 90.8436 160.918 89.6405 162.22C89.0457 162.832 88.4073 163.4 87.7305 163.92Z" fill="#E0E0E0"/>
<path d="M88.5421 160.12C87.8606 159.695 87.3561 159.038 87.1221 158.27C86.9203 157.386 86.9033 156.471 87.0721 155.58C87.9321 156.16 89.0721 156.01 90.0721 156.43C90.4505 156.6 90.7851 156.854 91.0503 157.173C91.3155 157.492 91.5042 157.867 91.6021 158.27C91.8421 159.27 91.7421 160.39 91.1621 160.66C90.2517 160.833 89.3099 160.639 88.5421 160.12Z" fill="#E6E6E6"/>
<path d="M92.7903 159.34C93.1473 159.753 93.5898 160.083 94.0871 160.307C94.5845 160.532 95.1247 160.645 95.6703 160.64C96.7603 160.64 97.5103 159.22 98.1903 158.37C96.9992 157.874 95.7636 157.492 94.5003 157.23C94.236 157.165 93.9606 157.161 93.6942 157.216C93.4278 157.271 93.1771 157.385 92.9603 157.55C92.7478 157.721 92.6059 157.965 92.5616 158.234C92.5173 158.503 92.5738 158.78 92.7203 159.01L92.7903 159.34Z" fill="#E6E6E6"/>
<path d="M96.8203 162.341C96.5461 161.829 96.1617 161.384 95.6948 161.038C95.228 160.692 94.6902 160.454 94.1203 160.341C93.6513 160.286 93.1759 160.342 92.7328 160.505C92.2897 160.669 91.8914 160.934 91.5703 161.281C91.6297 161.612 91.777 161.922 91.9969 162.177C92.2168 162.432 92.5012 162.623 92.8203 162.731C93.4662 162.935 94.144 163.02 94.8203 162.981C95.4968 162.937 96.1755 163.021 96.8203 163.231V162.341Z" fill="#E6E6E6"/>
<path d="M73.9192 148.51C73.2206 149.036 72.6977 149.761 72.4192 150.59C72.0592 151.86 74.2292 153.68 74.2292 153.68C74.7076 153.889 75.2283 153.982 75.7495 153.952C76.2706 153.923 76.7775 153.771 77.2292 153.51L78.5892 152.56C78.5892 152.56 75.2592 148.63 74.0192 148.81L73.9192 148.51Z" fill="#E6E6E6"/>
<path d="M80.2598 147.321C80.8198 149.371 80.0098 152.241 78.1798 152.741C76.3498 153.241 74.1798 151.191 73.6298 149.141C73.0798 147.091 74.5298 146.611 76.3598 146.141C78.1898 145.671 79.6998 145.271 80.2598 147.321Z" fill="#E6E6E6"/>
<path d="M74.6914 147.701C74.6914 147.701 76.3214 148.581 79.1314 147.381C79.1314 147.381 75.0814 151.311 74.6914 147.701Z" fill="#E6E6E6"/>
<path d="M75.8711 147.059C75.8711 147.059 77.4611 146.469 77.6111 147.149C77.6111 147.149 78.9911 146.819 78.6911 146.269C78.3911 145.719 75.8711 147.059 75.8711 147.059Z" fill="#E6E6E6"/>
<g opacity="0.2">
<path d="M74.6914 147.701C74.6914 147.701 76.3214 148.581 79.1314 147.381C79.1314 147.381 75.0814 151.311 74.6914 147.701Z" fill="#FAFAFA"/>
</g>
<g opacity="0.2">
<path d="M75.8711 147.059C75.8711 147.059 77.4611 146.469 77.6111 147.149C77.6111 147.149 78.9911 146.819 78.6911 146.269C78.3911 145.719 75.8711 147.059 75.8711 147.059Z" fill="#FAFAFA"/>
</g>
<path d="M75.168 154C75.5709 154.41 76.0791 154.701 76.6367 154.84C77.1944 154.98 77.7796 154.962 78.328 154.79C78.8726 154.602 79.3724 154.303 79.7958 153.913C80.2192 153.522 80.557 153.048 80.788 152.52C81.2432 151.459 81.3955 150.293 81.228 149.15C81.228 148.86 81.088 148.15 80.678 148.08C80.268 148.01 80.178 148.58 80.058 148.84C79.7225 149.584 79.3103 150.291 78.828 150.95C78.3493 151.594 77.7954 152.178 77.178 152.69C76.998 152.8 75.308 154.12 75.168 154Z" fill="#E6E6E6"/>
<path d="M82.4007 148.351C82.6499 148.745 82.7945 149.196 82.8207 149.661C82.847 150.127 82.754 150.591 82.5507 151.011C82.2534 151.548 81.8523 152.02 81.3707 152.401C81.0507 152.681 80.6207 152.971 80.2307 152.811C79.8407 152.651 79.7407 152.071 79.7507 151.611C79.7507 150.901 79.7507 150.201 79.8307 149.491C79.7989 148.818 79.8663 148.144 80.0307 147.491C80.2507 146.991 80.7307 147.171 81.2507 147.411C81.7135 147.612 82.1116 147.937 82.4007 148.351Z" fill="#E6E6E6"/>
<g opacity="0.2">
<path d="M75.4389 152.73C75.0733 152.777 74.7019 152.718 74.3687 152.56C74.0356 152.402 73.7546 152.152 73.5589 151.84C73.2789 151.38 73.0489 150.12 73.6589 149.84C74.0651 150.907 74.669 151.887 75.4389 152.73Z" fill="#FAFAFA"/>
</g>
<g opacity="0.2">
<path d="M80.2812 151.789C80.6028 151.627 80.8796 151.388 81.0871 151.093C81.2946 150.798 81.4265 150.457 81.4713 150.1C81.4713 149.71 81.0212 147.829 80.6012 148.729C80.5515 149.222 80.5515 149.717 80.6012 150.21C80.5551 150.747 80.4478 151.277 80.2812 151.789Z" fill="#FAFAFA"/>
</g>
<g opacity="0.2">
<path d="M77.8997 153.441C78.2083 153.608 78.5635 153.67 78.9104 153.616C79.2574 153.561 79.5769 153.394 79.8197 153.141C79.8197 153.521 78.7097 154.041 78.3697 154.221C77.4797 154.661 76.9097 154.341 75.9297 154.131C75.9297 154.131 77.4097 154.081 77.8997 153.441Z" fill="#FAFAFA"/>
</g>
<path d="M83.2708 192.06L78.1708 163.66L78.0508 154.76L78.6208 154.75L78.7408 163.61L83.9108 192.5L83.2708 192.06Z" fill="#E0E0E0"/>
<path d="M78.65 163.42L78.26 163.84C77.6351 163.222 77.0631 162.553 76.55 161.84C75.5294 160.454 74.3365 159.204 73 158.12L73.35 157.67C74.7245 158.794 75.951 160.087 77 161.52C77.4973 162.197 78.0491 162.833 78.65 163.42Z" fill="#E0E0E0"/>
<path d="M78.2896 159.551C79.0171 159.21 79.5962 158.616 79.9196 157.881C80.2244 157.029 80.3504 156.123 80.2896 155.221C79.3596 155.701 78.2196 155.411 77.2296 155.711C76.8331 155.838 76.4706 156.054 76.1693 156.341C75.8679 156.629 75.6355 156.981 75.4896 157.371C75.1296 158.371 75.0996 159.451 75.6496 159.781C76.5253 160.056 77.4746 159.974 78.2896 159.551Z" fill="#E6E6E6"/>
<path d="M74.1597 158.281C73.7591 158.648 73.283 158.924 72.7648 159.088C72.2466 159.252 71.6987 159.301 71.1597 159.231C70.0797 159.091 69.4997 157.611 68.9297 156.691C70.17 156.332 71.4429 156.098 72.7297 155.991C72.9988 155.957 73.2721 155.983 73.5298 156.068C73.7875 156.153 74.0232 156.294 74.2197 156.481C74.4081 156.678 74.5182 156.937 74.5293 157.21C74.5403 157.482 74.4516 157.749 74.2797 157.961L74.1597 158.281Z" fill="#E6E6E6"/>
<path d="M69.8105 160.79C70.1436 160.313 70.5766 159.916 71.0791 159.624C71.5817 159.332 72.1418 159.153 72.7205 159.1C73.1938 159.098 73.6608 159.209 74.0831 159.423C74.5054 159.637 74.8712 159.947 75.1505 160.33C75.0543 160.654 74.8711 160.946 74.6208 161.173C74.3704 161.4 74.0625 161.555 73.7305 161.62C73.0697 161.745 72.3913 161.745 71.7305 161.62C71.0697 161.495 70.3913 161.495 69.7305 161.62L69.8105 160.79Z" fill="#E6E6E6"/>
<path d="M85.3487 174.63H79.3487C79.1268 174.62 78.9081 174.685 78.727 174.814C78.546 174.942 78.4129 175.127 78.3487 175.34C77.244 179.262 76.7283 183.326 76.8187 187.4C76.8187 194.4 78.6587 203.82 79.2387 206.59C79.2834 206.821 79.4081 207.029 79.5911 207.177C79.774 207.325 80.0033 207.404 80.2387 207.4H84.3987C84.634 207.404 84.8634 207.325 85.0463 207.177C85.2292 207.029 85.354 206.821 85.3987 206.59C85.9787 203.82 87.8187 194.45 87.8187 187.4C87.909 183.326 87.3934 179.262 86.2887 175.34C86.2273 175.137 86.1032 174.959 85.9343 174.832C85.7654 174.704 85.5603 174.633 85.3487 174.63Z" fill="#F0F0F0"/>
<path d="M249.999 372.009C357.081 372.009 443.889 366.941 443.889 360.689C443.889 354.437 357.081 349.369 249.999 349.369C142.916 349.369 56.1094 354.437 56.1094 360.689C56.1094 366.941 142.916 372.009 249.999 372.009Z" fill="#F5F5F5"/>
<path d="M120.782 321.77C120.619 321.76 120.466 321.686 120.355 321.565C120.245 321.443 120.187 321.284 120.192 321.12C120.932 291.73 122.442 243.52 122.522 243.25C122.575 243.09 122.688 242.956 122.837 242.876C122.985 242.796 123.159 242.776 123.322 242.82C123.484 242.871 123.62 242.983 123.7 243.132C123.781 243.282 123.799 243.457 123.752 243.62C123.752 243.68 122.202 292.06 121.462 321.15C121.461 321.234 121.443 321.316 121.41 321.393C121.376 321.469 121.328 321.538 121.267 321.596C121.207 321.654 121.135 321.699 121.057 321.729C120.979 321.759 120.896 321.773 120.812 321.77H120.782Z" fill="#263238"/>
<path d="M116.828 223.63C117.078 225.89 119.828 233.74 122.048 233.5C124.268 233.26 125.278 225 125.048 222.74C124.93 221.652 124.385 220.656 123.533 219.971C122.68 219.285 121.591 218.967 120.503 219.085C119.416 219.203 118.42 219.748 117.734 220.6C117.049 221.453 116.73 222.542 116.848 223.63H116.828Z" fill="#191919"/>
<path d="M127.82 248.39C127.57 246.12 124.82 238.27 122.6 238.52C120.38 238.77 119.38 247.01 119.6 249.28C119.718 250.367 120.263 251.363 121.116 252.048C121.968 252.734 123.058 253.053 124.145 252.935C125.232 252.816 126.228 252.271 126.914 251.419C127.599 250.567 127.918 249.477 127.8 248.39H127.82Z" fill="#191919"/>
<path d="M109.999 241.499C112.259 241.259 120.109 238.549 119.859 236.279C119.609 234.009 111.369 233.059 109.109 233.279C108.571 233.337 108.049 233.501 107.574 233.761C107.099 234.021 106.68 234.372 106.34 234.794C106.001 235.217 105.748 235.701 105.596 236.221C105.444 236.741 105.396 237.286 105.454 237.824C105.513 238.362 105.677 238.884 105.937 239.359C106.197 239.834 106.548 240.253 106.97 240.593C107.392 240.932 107.877 241.185 108.396 241.337C108.916 241.489 109.461 241.537 109.999 241.479V241.499Z" fill="#191919"/>
<path d="M134.702 230.52C132.442 230.76 124.592 233.52 124.842 235.74C125.092 237.96 133.332 238.96 135.592 238.74C136.138 238.692 136.67 238.536 137.155 238.28C137.639 238.024 138.069 237.674 138.416 237.25C138.764 236.827 139.024 236.338 139.181 235.812C139.338 235.287 139.388 234.736 139.328 234.191C139.269 233.645 139.102 233.118 138.836 232.638C138.57 232.159 138.211 231.737 137.78 231.398C137.35 231.059 136.855 230.809 136.327 230.664C135.798 230.518 135.246 230.479 134.702 230.55V230.52Z" fill="#191919"/>
<path d="M109.69 231.14C111.46 232.57 118.93 236.2 120.36 234.43C121.79 232.66 116.63 226.14 114.86 224.71C114.442 224.339 113.952 224.058 113.422 223.882C112.891 223.706 112.331 223.639 111.774 223.687C111.217 223.734 110.675 223.893 110.182 224.156C109.689 224.418 109.254 224.778 108.904 225.214C108.553 225.649 108.295 226.152 108.145 226.69C107.994 227.228 107.955 227.791 108.028 228.345C108.102 228.899 108.287 229.433 108.572 229.913C108.858 230.393 109.238 230.811 109.69 231.14Z" fill="#191919"/>
<path d="M134.999 240.88C133.229 239.45 125.759 235.819 124.339 237.589C122.919 239.359 128.059 245.879 129.839 247.299C130.259 247.657 130.745 247.926 131.271 248.092C131.796 248.258 132.35 248.317 132.898 248.265C133.447 248.213 133.979 248.052 134.464 247.791C134.949 247.53 135.377 247.174 135.722 246.744C136.068 246.315 136.323 245.821 136.474 245.291C136.625 244.761 136.668 244.206 136.6 243.659C136.533 243.112 136.356 242.585 136.081 242.107C135.806 241.63 135.438 241.212 134.999 240.88Z" fill="#191919"/>
<path d="M117.462 248.639C118.892 246.869 122.522 239.399 120.742 237.979C118.962 236.559 112.462 241.699 111.032 243.479C110.348 244.332 110.031 245.422 110.15 246.508C110.269 247.595 110.815 248.59 111.667 249.274C112.52 249.959 113.61 250.276 114.696 250.157C115.783 250.038 116.778 249.492 117.462 248.639Z" fill="#191919"/>
<path d="M127.19 223.37C125.77 225.15 122.13 232.61 123.91 234.04C125.69 235.47 132.19 230.31 133.62 228.54C133.991 228.121 134.272 227.632 134.448 227.102C134.624 226.571 134.69 226.01 134.643 225.454C134.596 224.897 134.437 224.355 134.174 223.862C133.911 223.368 133.552 222.933 133.116 222.583C132.68 222.233 132.178 221.975 131.64 221.824C131.102 221.674 130.539 221.634 129.985 221.708C129.431 221.781 128.897 221.967 128.417 222.252C127.937 222.538 127.519 222.918 127.19 223.37Z" fill="#191919"/>
<g opacity="0.6">
<path d="M116.828 223.63C117.078 225.89 119.828 233.74 122.048 233.5C124.268 233.26 125.278 225 125.048 222.74C124.93 221.652 124.385 220.656 123.533 219.971C122.68 219.285 121.591 218.967 120.503 219.085C119.416 219.203 118.42 219.748 117.734 220.6C117.049 221.453 116.73 222.542 116.848 223.63H116.828Z" fill="white"/>
<path d="M127.82 248.39C127.57 246.12 124.82 238.27 122.6 238.52C120.38 238.77 119.38 247.01 119.6 249.28C119.718 250.367 120.263 251.363 121.116 252.048C121.968 252.734 123.058 253.053 124.145 252.935C125.232 252.816 126.228 252.271 126.914 251.419C127.599 250.567 127.918 249.477 127.8 248.39H127.82Z" fill="white"/>
<path d="M109.999 241.499C112.259 241.259 120.109 238.549 119.859 236.279C119.609 234.009 111.369 233.059 109.109 233.279C108.571 233.337 108.049 233.501 107.574 233.761C107.099 234.021 106.68 234.372 106.34 234.794C106.001 235.217 105.748 235.701 105.596 236.221C105.444 236.741 105.396 237.286 105.454 237.824C105.513 238.362 105.677 238.884 105.937 239.359C106.197 239.834 106.548 240.253 106.97 240.593C107.392 240.932 107.877 241.185 108.396 241.337C108.916 241.489 109.461 241.537 109.999 241.479V241.499Z" fill="white"/>
<path d="M134.698 230.52C132.438 230.76 124.588 233.52 124.838 235.74C125.088 237.96 133.328 238.96 135.588 238.74C136.134 238.692 136.666 238.536 137.151 238.28C137.635 238.024 138.065 237.674 138.412 237.25C138.76 236.827 139.02 236.338 139.177 235.812C139.334 235.287 139.384 234.736 139.324 234.191C139.265 233.645 139.098 233.118 138.832 232.638C138.566 232.159 138.207 231.737 137.776 231.398C137.346 231.059 136.851 230.809 136.323 230.664C135.794 230.518 135.242 230.479 134.698 230.55V230.52Z" fill="white"/>
<path d="M109.69 231.14C111.46 232.57 118.93 236.2 120.36 234.43C121.79 232.66 116.63 226.14 114.86 224.71C114.442 224.339 113.952 224.058 113.422 223.882C112.891 223.706 112.331 223.639 111.774 223.687C111.217 223.734 110.675 223.893 110.182 224.156C109.689 224.418 109.254 224.778 108.904 225.214C108.553 225.649 108.295 226.152 108.145 226.69C107.994 227.228 107.955 227.791 108.028 228.345C108.102 228.899 108.287 229.433 108.572 229.913C108.858 230.393 109.238 230.811 109.69 231.14Z" fill="white"/>
<path d="M134.999 240.88C133.229 239.45 125.759 235.819 124.339 237.589C122.919 239.359 128.059 245.879 129.839 247.299C130.259 247.657 130.745 247.926 131.271 248.092C131.796 248.258 132.35 248.317 132.898 248.265C133.447 248.213 133.979 248.052 134.464 247.791C134.949 247.53 135.377 247.174 135.722 246.744C136.068 246.315 136.323 245.821 136.474 245.291C136.625 244.761 136.668 244.206 136.6 243.659C136.533 243.112 136.356 242.585 136.081 242.107C135.806 241.63 135.438 241.212 134.999 240.88Z" fill="white"/>
<path d="M117.458 248.639C118.888 246.869 122.518 239.399 120.738 237.979C118.958 236.559 112.458 241.699 111.028 243.479C110.344 244.332 110.027 245.422 110.146 246.508C110.265 247.595 110.811 248.59 111.663 249.274C112.516 249.959 113.606 250.276 114.692 250.157C115.779 250.038 116.774 249.492 117.458 248.639Z" fill="white"/>
<path d="M127.19 223.37C125.77 225.15 122.13 232.61 123.91 234.04C125.69 235.47 132.19 230.31 133.62 228.54C133.991 228.121 134.272 227.632 134.448 227.102C134.624 226.571 134.69 226.01 134.643 225.454C134.596 224.897 134.437 224.355 134.174 223.862C133.911 223.368 133.552 222.933 133.116 222.583C132.68 222.233 132.178 221.975 131.64 221.824C131.102 221.674 130.539 221.634 129.985 221.708C129.431 221.781 128.897 221.967 128.417 222.252C127.937 222.538 127.519 222.918 127.19 223.37Z" fill="white"/>
</g>
<path d="M117.471 236.539C117.577 237.497 117.965 238.403 118.586 239.141C119.207 239.879 120.032 240.417 120.958 240.687C121.884 240.956 122.869 240.945 123.789 240.655C124.709 240.365 125.522 239.809 126.126 239.057C126.73 238.305 127.098 237.392 127.182 236.431C127.267 235.47 127.066 234.506 126.603 233.66C126.14 232.814 125.437 232.123 124.583 231.677C123.728 231.23 122.76 231.046 121.801 231.149C121.162 231.217 120.544 231.411 119.98 231.719C119.416 232.028 118.919 232.444 118.517 232.945C118.115 233.446 117.815 234.021 117.636 234.638C117.456 235.254 117.4 235.901 117.471 236.539Z" fill="#191919"/>
<path d="M118.001 300.239C112.371 300.359 102.731 295.159 98.9412 290.079C95.1512 284.999 105.881 288.079 104.761 284.079C103.641 280.079 90.3512 283.079 87.8812 277.259C85.4112 271.439 95.0112 272.769 94.6212 269.799C94.2312 266.829 84.2912 267.459 81.0812 261.299C77.8712 255.139 86.6312 258.559 85.2512 256.009C83.8712 253.459 72.8812 242.709 77.4612 240.449C82.0412 238.189 92.3412 249.379 95.7912 250.629C99.2412 251.879 100.021 244.119 104.501 247.809C108.981 251.499 105.691 267.719 110.971 269.809C114.901 271.389 113.211 263.979 117.731 265.809C125.611 269.079 120.241 300.189 118.001 300.239Z" fill="#191919"/>
<g opacity="0.2">
<path d="M118.001 300.239C112.371 300.359 102.731 295.159 98.9412 290.079C95.1512 284.999 105.881 288.079 104.761 284.079C103.641 280.079 90.3512 283.079 87.8812 277.259C85.4112 271.439 95.0112 272.769 94.6212 269.799C94.2312 266.829 84.2912 267.459 81.0812 261.299C77.8712 255.139 86.6312 258.559 85.2512 256.009C83.8712 253.459 72.8812 242.709 77.4612 240.449C82.0412 238.189 92.3412 249.379 95.7912 250.629C99.2412 251.879 100.021 244.119 104.501 247.809C108.981 251.499 105.691 267.719 110.971 269.809C114.901 271.389 113.211 263.979 117.731 265.809C125.611 269.079 120.241 300.189 118.001 300.239Z" fill="white"/>
</g>
<path d="M126.051 293.089C126.141 293.249 125.301 294.089 128.051 294.159C134.901 294.439 147.051 293.979 151.561 287.749C158.061 278.859 143.081 279.679 144.561 274.749C146.041 269.819 162.111 273.849 165.251 266.849C168.391 259.849 156.681 261.219 157.251 257.609C157.821 253.999 170.071 258.679 174.121 251.249C178.171 243.819 167.441 247.799 169.121 244.719C170.801 241.639 184.521 228.859 179.001 225.999C173.481 223.139 160.691 236.519 156.471 237.999C152.251 239.479 151.271 226.319 145.731 230.709C140.191 235.099 143.821 254.889 137.351 257.349C132.531 259.179 135.161 252.079 129.211 252.349C121.141 252.679 118.481 280.439 126.051 293.089Z" fill="#191919"/>
<g opacity="0.3">
<path d="M126.051 293.089C126.141 293.249 125.301 294.089 128.051 294.159C134.901 294.439 147.051 293.979 151.561 287.749C158.061 278.859 143.081 279.679 144.561 274.749C146.041 269.819 162.111 273.849 165.251 266.849C168.391 259.849 156.681 261.219 157.251 257.609C157.821 253.999 170.071 258.679 174.121 251.249C178.171 243.819 167.441 247.799 169.121 244.719C170.801 241.639 184.521 228.859 179.001 225.999C173.481 223.139 160.691 236.519 156.471 237.999C152.251 239.479 151.271 226.319 145.731 230.709C140.191 235.099 143.821 254.889 137.351 257.349C132.531 259.179 135.161 252.079 129.211 252.349C121.141 252.679 118.481 280.439 126.051 293.089Z" fill="white"/>
</g>
<path d="M120.922 317.329C120.863 317.323 120.806 317.305 120.755 317.276C120.703 317.247 120.657 317.209 120.621 317.162C120.585 317.115 120.558 317.062 120.543 317.004C120.527 316.947 120.524 316.888 120.532 316.829C126.152 270.829 152.662 252.109 152.932 251.929C152.98 251.896 153.034 251.873 153.091 251.861C153.148 251.849 153.207 251.848 153.264 251.859C153.321 251.87 153.375 251.892 153.424 251.923C153.473 251.955 153.514 251.996 153.547 252.044C153.58 252.092 153.603 252.146 153.615 252.203C153.627 252.26 153.628 252.318 153.617 252.375C153.607 252.432 153.585 252.487 153.553 252.536C153.521 252.584 153.48 252.626 153.432 252.659C153.172 252.849 126.992 271.349 121.432 316.939C121.425 316.998 121.406 317.056 121.376 317.107C121.346 317.159 121.307 317.205 121.259 317.241C121.212 317.277 121.157 317.304 121.1 317.319C121.042 317.334 120.981 317.337 120.922 317.329Z" fill="#263238"/>
<path d="M146.849 258.32C146.759 258.318 146.673 258.288 146.601 258.234C146.529 258.181 146.476 258.106 146.449 258.02C146.411 257.908 146.419 257.784 146.471 257.677C146.524 257.571 146.617 257.489 146.729 257.45C146.899 257.4 150.849 256.15 157.309 257.52C157.424 257.547 157.525 257.617 157.59 257.715C157.655 257.814 157.68 257.934 157.659 258.05C157.635 258.167 157.566 258.269 157.466 258.335C157.367 258.4 157.246 258.424 157.129 258.4C150.909 257.08 147.049 258.29 147.009 258.3C146.958 258.317 146.903 258.324 146.849 258.32Z" fill="#263238"/>
<path d="M141.998 263.91C141.883 263.907 141.774 263.86 141.693 263.778C141.613 263.695 141.568 263.585 141.568 263.47C141.428 249.55 149.488 238.68 149.568 238.57C149.641 238.48 149.745 238.42 149.86 238.403C149.975 238.387 150.093 238.414 150.188 238.48C150.235 238.516 150.275 238.56 150.305 238.611C150.335 238.662 150.355 238.718 150.364 238.776C150.372 238.835 150.369 238.895 150.354 238.952C150.339 239.009 150.314 239.063 150.278 239.11C150.198 239.21 142.278 249.86 142.458 263.46C142.458 263.578 142.412 263.691 142.33 263.775C142.248 263.859 142.136 263.907 142.018 263.91H141.998Z" fill="#263238"/>
<path d="M134.062 275.689C134.005 275.688 133.949 275.675 133.897 275.651C133.846 275.627 133.8 275.592 133.762 275.549C133.72 275.508 133.687 275.459 133.664 275.405C133.641 275.351 133.629 275.293 133.629 275.234C133.629 275.176 133.641 275.118 133.664 275.064C133.687 275.009 133.72 274.96 133.762 274.919C133.822 274.869 139.762 269.349 147.602 272.149C147.699 272.199 147.774 272.283 147.814 272.384C147.854 272.486 147.856 272.598 147.82 272.701C147.783 272.803 147.71 272.889 147.615 272.942C147.52 272.995 147.409 273.012 147.302 272.989C140.002 270.369 134.432 275.519 134.382 275.569C134.34 275.61 134.29 275.642 134.235 275.663C134.18 275.683 134.121 275.692 134.062 275.689Z" fill="#263238"/>
<path d="M129.929 283.91C129.846 283.905 129.765 283.877 129.697 283.829C129.628 283.782 129.573 283.716 129.539 283.64C127.562 278.111 127.069 272.16 128.109 266.38C128.118 266.322 128.138 266.266 128.168 266.216C128.198 266.166 128.239 266.122 128.286 266.088C128.334 266.053 128.388 266.029 128.445 266.015C128.502 266.002 128.561 266 128.619 266.01C128.735 266.03 128.839 266.094 128.908 266.19C128.977 266.285 129.006 266.404 128.989 266.52C128 272.135 128.472 277.91 130.359 283.29C130.382 283.343 130.395 283.401 130.396 283.459C130.397 283.517 130.386 283.574 130.365 283.628C130.343 283.682 130.311 283.731 130.271 283.773C130.231 283.814 130.182 283.847 130.129 283.87C130.066 283.898 129.998 283.911 129.929 283.91Z" fill="#263238"/>
<path d="M121.089 333.77C120.978 333.765 120.873 333.718 120.795 333.638C120.717 333.559 120.672 333.452 120.669 333.34L120.089 321.15C118.379 280.62 90.5894 253.06 90.3094 252.79C90.2429 252.705 90.2096 252.598 90.2155 252.49C90.2214 252.382 90.2662 252.279 90.3416 252.201C90.417 252.124 90.518 252.075 90.626 252.066C90.734 252.057 90.8417 252.087 90.9294 252.15C91.2094 252.43 119.259 280.22 120.979 321.15L121.559 333.34C121.562 333.458 121.519 333.572 121.438 333.658C121.358 333.744 121.247 333.795 121.129 333.8L121.089 333.77Z" fill="#263238"/>
<path d="M101.769 267.999H101.699C101.652 267.996 101.607 267.978 101.569 267.949L101.419 267.899C97.8037 266.388 93.9174 265.633 89.9992 265.679C89.8815 265.682 89.7674 265.638 89.6814 265.558C89.5954 265.478 89.5444 265.367 89.5392 265.249C89.5378 265.19 89.5482 265.131 89.5695 265.076C89.5909 265.021 89.623 264.971 89.6638 264.928C89.7047 264.885 89.7536 264.851 89.8077 264.827C89.8618 264.803 89.9201 264.79 89.9792 264.789C94.0296 264.741 98.0476 265.517 101.789 267.069L101.929 267.129H102.009C102.098 267.172 102.169 267.244 102.211 267.333C102.253 267.423 102.263 267.524 102.239 267.619C102.224 267.731 102.167 267.832 102.08 267.903C101.992 267.973 101.881 268.008 101.769 267.999Z" fill="#263238"/>
<path d="M105.698 273.229C105.64 273.225 105.583 273.21 105.531 273.183C105.479 273.157 105.432 273.12 105.395 273.075C105.358 273.03 105.33 272.978 105.313 272.922C105.296 272.866 105.291 272.807 105.298 272.749C106.368 260.749 100.178 250.939 100.108 250.849C100.052 250.748 100.036 250.63 100.064 250.518C100.092 250.406 100.162 250.309 100.26 250.247C100.358 250.186 100.475 250.164 100.588 250.186C100.702 250.209 100.802 250.274 100.868 250.369C100.928 250.469 107.288 260.549 106.178 272.829C106.173 272.887 106.157 272.943 106.13 272.995C106.103 273.046 106.066 273.092 106.022 273.129C105.977 273.166 105.925 273.194 105.87 273.211C105.814 273.228 105.756 273.234 105.698 273.229Z" fill="#263238"/>
<path d="M109.759 280.159C109.646 280.157 109.538 280.111 109.459 280.029C107.972 278.683 106.173 277.728 104.225 277.25C102.277 276.772 100.241 276.785 98.2991 277.289C98.1837 277.32 98.0609 277.303 97.9578 277.243C97.8547 277.183 97.7796 277.085 97.7491 276.969C97.7341 276.913 97.7305 276.854 97.7385 276.796C97.7466 276.738 97.766 276.683 97.7958 276.632C97.8256 276.582 97.8651 276.538 97.912 276.503C97.9589 276.469 98.0123 276.443 98.0691 276.429C100.159 275.87 102.358 275.852 104.457 276.377C106.557 276.902 108.488 277.952 110.069 279.429C110.111 279.47 110.144 279.519 110.167 279.574C110.19 279.628 110.202 279.686 110.202 279.744C110.202 279.803 110.19 279.861 110.167 279.915C110.144 279.969 110.111 280.018 110.069 280.059C110.027 280.096 109.977 280.124 109.924 280.141C109.871 280.158 109.815 280.164 109.759 280.159Z" fill="#263238"/>
<path d="M114.908 291.579C114.842 291.578 114.777 291.561 114.718 291.529C114.666 291.503 114.619 291.466 114.581 291.422C114.543 291.377 114.515 291.325 114.497 291.269C114.479 291.213 114.473 291.154 114.478 291.096C114.484 291.038 114.501 290.981 114.528 290.929C116.567 286.324 117.39 281.273 116.918 276.259C116.91 276.141 116.948 276.025 117.025 275.935C117.102 275.845 117.211 275.789 117.328 275.779C117.387 275.774 117.446 275.78 117.502 275.798C117.558 275.816 117.61 275.845 117.655 275.883C117.7 275.921 117.736 275.968 117.763 276.02C117.789 276.073 117.805 276.131 117.808 276.189C118.319 281.37 117.46 286.594 115.318 291.339C115.28 291.414 115.221 291.477 115.149 291.519C115.076 291.562 114.992 291.583 114.908 291.579Z" fill="#263238"/>
<path d="M146.158 335.689C146.158 349.899 139.758 361.429 120.398 361.429C101.918 361.429 94.6484 349.899 94.6484 335.689C94.6446 330.528 96.1953 325.486 99.0984 321.219H141.708C144.611 325.486 146.162 330.528 146.158 335.689Z" fill="#191919"/>
<path opacity="0.7" d="M146.158 335.689C146.158 349.899 139.758 361.429 120.398 361.429C101.918 361.429 94.6484 349.899 94.6484 335.689C94.6446 330.528 96.1953 325.486 99.0984 321.219H141.708C144.611 325.486 146.162 330.528 146.158 335.689Z" fill="white"/>
<path d="M294.098 348.859L304.058 347.409L301.548 324.109L291.578 325.559L294.098 348.859Z" fill="#E8BFBF"/>
<path d="M311.719 347.759C312.582 347.693 313.399 347.341 314.039 346.759C314.173 346.589 314.264 346.39 314.304 346.177C314.344 345.965 314.332 345.746 314.269 345.539C314.24 345.411 314.178 345.293 314.091 345.195C314.003 345.097 313.893 345.023 313.769 344.979C312.439 344.499 308.769 347.189 308.389 347.489C308.348 347.52 308.318 347.562 308.302 347.61C308.286 347.658 308.285 347.71 308.299 347.759C308.316 347.804 308.346 347.842 308.385 347.869C308.425 347.896 308.471 347.91 308.519 347.909C309.588 347.954 310.659 347.904 311.719 347.759ZM313.119 345.419C313.267 345.385 313.421 345.385 313.569 345.419C313.621 345.435 313.668 345.465 313.705 345.506C313.742 345.546 313.767 345.596 313.779 345.649C313.82 345.786 313.828 345.931 313.802 346.072C313.776 346.213 313.717 346.346 313.629 346.459C313.119 347.089 311.489 347.459 309.229 347.459C310.413 346.574 311.738 345.898 313.149 345.459L313.119 345.419Z" fill="#191919"/>
<path d="M308.579 347.919H308.659C309.769 347.189 311.759 344.649 311.379 343.559C311.301 343.367 311.158 343.209 310.975 343.112C310.792 343.015 310.581 342.986 310.379 343.029C310.14 343.036 309.904 343.092 309.688 343.194C309.471 343.295 309.277 343.44 309.119 343.619C308.049 344.859 308.259 347.619 308.259 347.699C308.259 347.739 308.269 347.779 308.286 347.815C308.303 347.851 308.328 347.884 308.359 347.909C308.393 347.926 308.43 347.936 308.468 347.938C308.506 347.939 308.544 347.933 308.579 347.919ZM310.249 343.499L310.389 343.429C310.829 343.429 310.879 343.579 310.889 343.629C311.129 344.299 309.799 346.249 308.699 347.149C308.599 345.999 308.869 344.846 309.469 343.859C309.68 343.641 309.965 343.509 310.269 343.489L310.249 343.499Z" fill="#191919"/>
<path d="M302.999 343.28L294.169 345.39C293.977 345.428 293.807 345.537 293.69 345.694C293.574 345.851 293.52 346.045 293.539 346.24L293.829 359.03C293.858 359.242 293.929 359.446 294.038 359.631C294.146 359.815 294.29 359.977 294.461 360.106C294.632 360.235 294.826 360.329 295.034 360.383C295.241 360.437 295.457 360.449 295.669 360.42C295.732 360.425 295.796 360.425 295.859 360.42C299.679 359.42 301.489 358.82 306.349 357.69C309.349 357.01 318.779 356.29 322.649 354.57C326.519 352.85 325.009 348.93 323.249 349.3C317.569 350.52 310.249 348.09 306.139 344.39C305.619 344.08 303.649 343.13 302.999 343.28Z" fill="#263238"/>
<path opacity="0.2" d="M301.548 324.109L302.838 336.119L292.878 337.579L291.578 325.569L301.548 324.109Z" fill="black"/>
<path d="M306.871 331.179L288.441 334.619C288.441 334.619 279.491 321.839 277.801 312.769C276.041 303.319 277.921 271.159 277.801 270.769C272.591 253.169 258.421 207.569 251.591 190.769C247.801 181.469 245.141 175.209 245.141 175.209L247.051 174.779L262.101 168.619L273.101 170.679C273.101 170.679 306.411 238.049 309.901 263.389C312.471 282.289 306.871 331.179 306.871 331.179Z" fill="#191919"/>
<path opacity="0.3" d="M306.871 331.179L288.441 334.619C288.441 334.619 279.491 321.839 277.801 312.769C276.041 303.319 277.921 271.159 277.801 270.769C272.591 253.169 258.421 207.569 251.591 190.769C247.801 181.469 245.141 175.209 245.141 175.209L247.051 174.779L262.101 168.619L273.101 170.679C273.101 170.679 306.411 238.049 309.901 263.389C312.471 282.289 306.871 331.179 306.871 331.179Z" fill="white"/>
<path opacity="0.2" d="M273.458 255.49C268.248 237.89 257.728 211.2 250.888 194.42L246.358 178.42L245.488 175.34L247.078 178.25L264.928 217.79C272.808 233 273.578 255.92 273.458 255.49Z" fill="black"/>
<path d="M192.57 343.379L201.45 347.119L210.92 326.789L202.05 323.049L192.57 343.379Z" fill="#E8BFBF"/>
<path d="M207.228 351.37C207.931 351.81 208.764 351.997 209.588 351.9C209.788 351.847 209.973 351.745 210.124 351.604C210.276 351.462 210.391 351.286 210.458 351.09C210.509 350.975 210.529 350.85 210.517 350.725C210.505 350.601 210.46 350.482 210.388 350.38C209.628 349.26 205.298 349.27 204.818 349.27C204.77 349.274 204.725 349.292 204.686 349.32C204.648 349.348 204.617 349.386 204.598 349.43C204.586 349.474 204.587 349.522 204.601 349.566C204.615 349.611 204.642 349.65 204.678 349.68C205.474 350.32 206.328 350.886 207.228 351.37ZM209.628 350.37C209.766 350.427 209.887 350.52 209.978 350.64C210.002 350.684 210.015 350.734 210.015 350.785C210.015 350.835 210.002 350.885 209.978 350.93C209.931 351.058 209.855 351.173 209.756 351.267C209.658 351.36 209.538 351.43 209.408 351.47C208.648 351.67 207.198 351.03 205.408 349.75C206.834 349.717 208.254 349.931 209.608 350.38L209.628 350.37Z" fill="#191919"/>
<path d="M204.72 349.718H204.8C206.07 349.788 209.04 348.948 209.37 347.898C209.423 347.703 209.406 347.495 209.319 347.312C209.233 347.128 209.084 346.982 208.9 346.898C208.713 346.768 208.5 346.678 208.276 346.635C208.052 346.592 207.822 346.596 207.6 346.648C206.06 346.988 204.69 349.218 204.6 349.308C204.583 349.343 204.574 349.38 204.574 349.418C204.574 349.457 204.583 349.494 204.6 349.528C204.602 349.568 204.614 349.606 204.635 349.639C204.656 349.672 204.685 349.7 204.72 349.718ZM208.51 347.248H208.65C209 347.478 208.94 347.638 208.92 347.688C208.73 348.328 206.61 349.088 205.25 349.168C205.817 348.223 206.672 347.484 207.69 347.058C207.981 347.009 208.281 347.069 208.53 347.228L208.51 347.248Z" fill="#191919"/>
<path d="M203.061 343L195.061 339.64C194.887 339.552 194.687 339.535 194.501 339.591C194.315 339.646 194.158 339.771 194.061 339.94L187.061 349.94C186.963 350.12 186.901 350.318 186.879 350.522C186.858 350.727 186.877 350.933 186.935 351.13C186.994 351.327 187.091 351.511 187.22 351.67C187.35 351.83 187.51 351.962 187.691 352.06L187.861 352.14C191.351 353.57 193.111 354.09 197.501 355.97C200.191 357.13 207.891 361.92 211.851 362.77C215.811 363.62 216.851 359.77 215.291 359.04C210.221 356.77 205.961 350.77 204.851 345.58C204.601 345.08 203.621 343.23 203.061 343Z" fill="#263238"/>
<path opacity="0.2" d="M211.311 327.03L206.181 337.38L197.391 333.44L202.511 323.08L211.311 327.03Z" fill="black"/>
<path d="M213.159 338.309L195.479 328.889C195.479 328.889 192.089 316.299 195.479 308.269C201.999 292.819 218.979 270.099 219.089 269.669C223.619 251.889 231.559 203.179 234.279 185.269C235.779 175.339 236.669 173.199 236.669 173.199L238.539 173.809L265.539 173.859C265.539 173.859 270.639 214.859 251.079 278.259C246.219 294.039 238.079 307.159 224.649 324.909C221.053 329.571 217.218 334.044 213.159 338.309Z" fill="#191919"/>
<path opacity="0.3" d="M213.159 338.309L195.479 328.889C195.479 328.889 192.089 316.299 195.479 308.269C201.999 292.819 218.979 270.099 219.089 269.669C223.619 251.889 231.559 203.179 234.279 185.269C235.779 175.339 236.669 173.199 236.669 173.199L238.539 173.809L265.539 173.859C265.539 173.859 270.639 214.859 251.079 278.259C246.219 294.039 238.079 307.159 224.649 324.909C221.053 329.571 217.218 334.044 213.159 338.309Z" fill="white"/>
<path d="M289.559 140.389C289.969 137.139 291.345 134.087 293.509 131.629C294.059 131.049 296.169 130.169 297.369 129.389C303.239 125.539 314.999 120.729 314.999 120.729L318.629 123.889C318.629 123.889 311.469 130.809 307.209 134.129C306.369 134.789 305.399 135.579 304.379 136.419C302.519 137.959 293.799 143.709 292.139 145.159L289.559 140.389Z" fill="#E8BFBF"/>
<path d="M325.341 118.939L318.631 123.939L314.871 121.169C315.836 119.947 316.875 118.785 317.981 117.689C318.321 117.359 318.591 116.964 318.777 116.528C318.962 116.092 319.059 115.623 319.061 115.149C318.985 113.602 319.331 112.064 320.061 110.699C320.059 110.672 320.059 110.646 320.061 110.619C320.403 110.138 320.875 109.764 321.421 109.541C321.968 109.318 322.567 109.255 323.148 109.36C323.729 109.465 324.268 109.733 324.703 110.133C325.137 110.533 325.448 111.048 325.601 111.619L326.601 115.199C326.784 115.877 326.763 116.594 326.538 117.26C326.314 117.926 325.897 118.51 325.341 118.939Z" fill="#E8BFBF"/>
<path d="M291.7 141.73L289.93 143.35C289.38 142.91 288.51 142.2 287.41 141.28C278.79 134.13 257.18 116.77 265.79 111.82C273.18 107.57 281.02 120.56 284.93 124.47C286.766 126.427 288.357 128.6 289.67 130.94C291.51 134.26 292.87 138.27 291.7 141.73Z" fill="#263238"/>
<path d="M289.661 129.389C286.594 131.632 284.001 134.46 282.031 137.709C282.753 140.072 283.972 142.253 285.608 144.105C287.243 145.958 289.256 147.439 291.511 148.449C294.017 142.765 295.092 136.554 294.641 130.359C293.081 129.999 291.221 129.729 289.661 129.389Z" fill="#263238"/>
<path d="M242.209 110.81C239.119 111.81 235.589 111 233.609 113.57C231.629 116.14 231.039 119.51 231.039 122.75C231.221 127.257 231.912 131.728 233.099 136.08C234.339 141.413 235.582 146.73 236.829 152.03C237.679 155.67 236.779 172.58 237.689 172.86C237.689 172.86 265.959 172.31 273.049 171.31C273.049 171.31 273.659 153.93 274.229 148.01C274.359 146.7 276.349 141.12 276.579 139.72C277.689 133.12 275.519 128.47 273.239 122.17C273.239 122.17 268.239 112.1 265.789 111.82C261.439 111.33 250.799 108 242.209 110.81Z" fill="#263238"/>
<path d="M241 119.139C240.9 118.559 235.88 108.419 231.07 115.509C224.38 125.369 223.93 137.749 223.93 137.749C223.93 137.749 219.82 149.749 222.68 152.409C225.54 155.069 228.68 156.729 230.68 155.239C232.092 154.006 233.218 152.481 233.98 150.769C233.98 150.769 242.78 129.459 241 119.139Z" fill="#263238"/>
<path d="M240.69 107.049C240.202 107.488 239.821 108.033 239.576 108.642C239.332 109.25 239.229 109.907 239.278 110.562C239.326 111.216 239.523 111.851 239.855 112.417C240.186 112.983 240.643 113.466 241.19 113.829C240.896 114.857 240.899 115.947 241.198 116.974C241.497 118.001 242.079 118.922 242.878 119.633C243.677 120.343 244.661 120.813 245.715 120.99C246.77 121.166 247.853 121.041 248.84 120.629C248 122.149 248.95 124.159 250.42 125.099C251.97 125.901 253.676 126.358 255.42 126.439C257.17 126.522 258.85 127.156 260.22 128.249L265.56 120.559C266.344 119.619 266.853 118.48 267.03 117.269C267.08 116.059 266.16 114.719 264.95 114.809C265.556 114.154 265.894 113.295 265.896 112.403C265.898 111.511 265.563 110.65 264.959 109.993C264.355 109.336 263.526 108.931 262.637 108.858C261.747 108.785 260.863 109.049 260.16 109.599C260.245 109.075 260.175 108.536 259.959 108.051C259.742 107.566 259.388 107.155 258.94 106.869C258.031 106.321 257 106.008 255.94 105.959L240.69 107.049Z" fill="#263238"/>
<path d="M243.899 94C245.289 99.1 246.979 108.51 243.609 112.23C249.785 114.896 255.344 118.807 259.939 123.72C261.153 122.604 261.985 121.135 262.319 119.52C262.653 117.905 262.471 116.226 261.799 114.72C261.406 113.764 260.825 112.896 260.089 112.17C259.354 111.443 258.48 110.872 257.519 110.49C253.799 108.91 253.769 105.26 254.389 101.75L243.899 94Z" fill="#E8BFBF"/>
<path opacity="0.2" d="M246 102.689L249.51 103.639C251.015 104.048 252.588 104.14 254.13 103.909C254.001 104.991 254.113 106.087 254.46 107.119C253.285 107.573 252.004 107.676 250.772 107.415C249.54 107.154 248.41 106.54 247.52 105.649C246.871 104.743 246.359 103.745 246 102.689Z" fill="black"/>
<path d="M237.089 89.6499C240.799 97.4899 242.209 100.89 247.929 103.39C256.549 107.16 265.349 100.86 264.049 92.0699C262.869 84.1599 256.989 72.6499 247.839 72.6099C245.824 72.5912 243.839 73.0872 242.07 74.0509C240.301 75.0146 238.807 76.4141 237.73 78.1167C236.654 79.8193 236.03 81.7687 235.917 83.78C235.805 85.7913 236.208 87.798 237.089 89.6099V89.6499Z" fill="#E8BFBF"/>
<path d="M241.172 74.6691C238.462 73.4091 235.102 74.4391 232.842 76.4191C230.582 78.3991 229.152 81.2591 227.842 84.0091C227.053 85.4721 226.448 87.0273 226.042 88.6391C225.637 90.27 225.859 91.9932 226.662 93.4691C227.09 94.1586 227.676 94.7367 228.372 95.1556C229.067 95.5746 229.852 95.8225 230.662 95.8791C231.16 95.9098 231.64 96.076 232.051 96.3597C232.462 96.6434 232.787 97.034 232.992 97.4891C233.197 98.3301 233.197 99.2081 232.992 100.049C232.802 100.865 232.802 101.713 232.992 102.529C233.264 103.171 233.712 103.723 234.283 104.122C234.854 104.522 235.526 104.753 236.222 104.789C237.615 104.828 239.002 104.604 240.312 104.129C240.711 103.993 241.139 103.965 241.552 104.05C241.965 104.134 242.348 104.327 242.662 104.609C242.822 104.756 242.957 104.928 243.062 105.119C243.164 105.293 243.312 105.434 243.49 105.529C243.667 105.623 243.868 105.667 244.069 105.654C244.27 105.642 244.463 105.574 244.628 105.458C244.793 105.343 244.922 105.184 245.002 104.999C246.212 102.119 244.452 97.5291 241.832 93.9991C240.442 92.1391 240.512 92.6091 239.972 90.3491C239.512 88.4691 240.202 86.5091 241.042 84.7691C242.172 82.4391 243.612 80.1791 243.162 77.3991C243.077 76.8165 242.852 76.2634 242.505 75.7877C242.158 75.312 241.701 74.928 241.172 74.6691Z" fill="#263238"/>
<path d="M237.319 97.6787C238.554 98.9891 240.259 99.7553 242.059 99.8087C244.449 99.8687 245.059 97.5887 243.899 95.6387C242.899 93.8887 240.359 91.7587 238.199 92.6387C236.039 93.5187 235.819 95.9987 237.319 97.6787Z" fill="#E8BFBF"/>
<path d="M252.002 88.2603C252.282 88.9403 252.832 89.3103 253.262 89.1303C253.692 88.9503 253.802 88.3003 253.562 87.6303C253.322 86.9603 252.742 86.6303 252.302 86.7603C251.862 86.8903 251.772 87.6003 252.002 88.2603Z" fill="#263238"/>
<path d="M259.348 85.0999C259.618 85.7899 260.168 86.1499 260.598 85.9799C261.028 85.8099 261.138 85.1499 260.898 84.4799C260.658 83.8099 260.078 83.4799 259.648 83.6099C259.218 83.7399 259.088 84.4499 259.348 85.0999Z" fill="#263238"/>
<path d="M259.461 83.7287L260.851 82.6387C260.851 82.6387 260.551 84.1887 259.461 83.7287Z" fill="#263238"/>
<path d="M257.449 86.5703C259.149 88.2503 260.449 88.5703 262.269 89.7103C262.251 90.1695 262.087 90.6109 261.801 90.9706C261.515 91.3303 261.122 91.5894 260.679 91.7103L257.449 86.5703Z" fill="#ED847E"/>
<path d="M259.899 94.9186C260.217 94.8018 260.525 94.6579 260.819 94.4886C260.865 94.4632 260.899 94.4206 260.914 94.3701C260.929 94.3195 260.924 94.2651 260.899 94.2186C260.87 94.1734 260.825 94.1404 260.774 94.1257C260.722 94.1109 260.667 94.1155 260.619 94.1386C259.854 94.583 258.994 94.8384 258.11 94.8836C257.227 94.9288 256.345 94.7625 255.539 94.3986C255.489 94.374 255.433 94.3696 255.38 94.3864C255.328 94.4032 255.284 94.4399 255.259 94.4886C255.245 94.512 255.236 94.5381 255.232 94.5651C255.229 94.5922 255.231 94.6197 255.238 94.6459C255.246 94.6721 255.258 94.6965 255.276 94.7176C255.293 94.7387 255.314 94.7561 255.339 94.7686C256.05 95.0967 256.82 95.279 257.603 95.3048C258.387 95.3305 259.167 95.1992 259.899 94.9186Z" fill="#263238"/>
<path d="M251.76 82.8099C251.755 82.9016 251.721 82.9895 251.664 83.0612C251.607 83.133 251.528 83.1849 251.44 83.2099C249.52 83.7799 248.67 86.2099 248.67 86.2099C248.652 86.2637 248.624 86.3135 248.587 86.3565C248.55 86.3994 248.505 86.4347 248.454 86.4602C248.404 86.4858 248.348 86.5011 248.292 86.5053C248.235 86.5095 248.179 86.5026 248.125 86.4849C248.071 86.4671 248.021 86.439 247.978 86.402C247.935 86.365 247.9 86.3199 247.874 86.2693C247.849 86.2187 247.834 86.1636 247.829 86.107C247.825 86.0505 247.832 85.9937 247.85 85.9399C247.92 85.8399 248.85 83.0499 251.19 82.3499C251.301 82.3215 251.419 82.3368 251.519 82.3926C251.62 82.4483 251.695 82.5404 251.73 82.6499C251.753 82.6997 251.764 82.7548 251.76 82.8099Z" fill="#263238"/>
<path d="M260.612 81.6284C260.537 81.6814 260.448 81.7099 260.357 81.7099C260.265 81.7099 260.176 81.6814 260.102 81.6284C258.542 80.3684 256.052 81.0584 256.042 81.0684C255.987 81.0853 255.93 81.0912 255.873 81.0857C255.816 81.0802 255.761 81.0635 255.711 81.0365C255.661 81.0096 255.616 80.9728 255.58 80.9285C255.545 80.8842 255.518 80.8332 255.502 80.7784C255.47 80.6684 255.483 80.5505 255.537 80.4496C255.591 80.3488 255.683 80.2731 255.792 80.2384C255.912 80.2384 258.792 79.4184 260.642 80.9384C260.729 81.0124 260.784 81.1164 260.797 81.2296C260.81 81.3429 260.78 81.4568 260.712 81.5484C260.683 81.5809 260.65 81.608 260.612 81.6284Z" fill="#263238"/>
<path d="M252.16 86.8691L253.55 85.7891C253.55 85.7891 253.23 87.3391 252.16 86.8691Z" fill="#263238"/>
<path d="M241.771 73.3594C240.676 73.4558 239.618 73.7993 238.676 74.364C237.734 74.9287 236.932 75.6998 236.331 76.6194C235.531 77.8594 235.251 79.7394 236.431 80.6194C237.033 80.9866 237.726 81.1772 238.431 81.1694C241.431 81.4394 245.221 79.0894 245.221 79.0894C244.051 74.0894 254.481 70.2694 259.621 77.9694C261.131 80.2294 260.721 81.8694 263.231 82.9194C264.411 83.4094 265.971 83.2694 266.731 84.3094C267.981 86.0194 265.571 88.9194 267.101 90.3894C268.151 91.3894 270.531 91.0094 270.681 92.4594C270.741 93.1394 270.301 94.1194 270.951 94.3194C271.311 94.4294 271.651 94.0994 271.881 93.7994C272.506 93.1282 272.965 92.3199 273.221 91.4394C273.343 90.9992 273.316 90.531 273.144 90.1077C272.972 89.6845 272.665 89.33 272.271 89.0994C271.631 88.8094 269.941 89.0994 270.051 89.8194C269.792 88.2334 269.708 86.6237 269.801 85.0194C270.081 83.6794 271.361 82.5094 270.971 81.1894C270.581 79.8694 268.891 79.1894 267.441 79.0094C265.991 78.8294 264.341 78.6194 263.441 77.4594C262.541 76.2994 262.901 74.2994 262.581 72.6894C262.313 71.6832 261.811 70.7545 261.116 69.9794C260.421 69.2043 259.552 68.6046 258.581 68.2294C252.731 65.7194 243.761 66.0794 241.771 73.3594Z" fill="#263238"/>
<path d="M258.242 99.9993L238.242 110.049C235.062 111.643 232.594 114.369 231.324 117.691C230.055 121.014 230.075 124.691 231.382 127.999L241.002 152.599C242.3 155.904 244.784 158.606 247.969 160.176C251.154 161.747 254.81 162.072 258.222 161.089L279.722 154.889C281.628 154.342 283.4 153.403 284.922 152.132C286.445 150.861 287.685 149.286 288.564 147.507C289.442 145.729 289.939 143.787 290.023 141.805C290.107 139.823 289.776 137.846 289.052 135.999L277.902 107.579C277.183 105.731 276.087 104.053 274.682 102.652C273.278 101.252 271.597 100.16 269.746 99.4462C267.896 98.7327 265.917 98.4134 263.936 98.5086C261.955 98.6039 260.015 99.1116 258.242 99.9993ZM254.932 142.239C253.335 142.865 251.589 143.004 249.913 142.637C248.238 142.27 246.709 141.415 245.52 140.179C244.331 138.943 243.535 137.382 243.233 135.694C242.931 134.005 243.137 132.266 243.824 130.694C244.511 129.123 245.648 127.79 247.093 126.866C248.537 125.941 250.223 125.465 251.938 125.499C253.653 125.533 255.319 126.074 256.726 127.055C258.133 128.036 259.217 129.412 259.842 131.009C260.263 132.071 260.469 133.206 260.45 134.348C260.431 135.491 260.186 136.618 259.73 137.665C259.273 138.712 258.615 139.659 257.791 140.451C256.968 141.243 255.996 141.864 254.932 142.279V142.239Z" fill="#191919"/>
<path d="M258.242 99.9993L238.242 110.049C235.062 111.643 232.594 114.369 231.324 117.691C230.055 121.014 230.075 124.691 231.382 127.999L241.002 152.599C242.3 155.904 244.784 158.606 247.969 160.176C251.154 161.747 254.81 162.072 258.222 161.089L279.722 154.889C281.628 154.342 283.4 153.403 284.922 152.132C286.445 150.861 287.685 149.286 288.564 147.507C289.442 145.729 289.939 143.787 290.023 141.805C290.107 139.823 289.776 137.846 289.052 135.999L277.902 107.579C277.183 105.731 276.087 104.053 274.682 102.652C273.278 101.252 271.597 100.16 269.746 99.4462C267.896 98.7327 265.917 98.4134 263.936 98.5086C261.955 98.6039 260.015 99.1116 258.242 99.9993ZM254.932 142.239C253.335 142.865 251.589 143.004 249.913 142.637C248.238 142.27 246.709 141.415 245.52 140.179C244.331 138.943 243.535 137.382 243.233 135.694C242.931 134.005 243.137 132.266 243.824 130.694C244.511 129.123 245.648 127.79 247.093 126.866C248.537 125.941 250.223 125.465 251.938 125.499C253.653 125.533 255.319 126.074 256.726 127.055C258.133 128.036 259.217 129.412 259.842 131.009C260.263 132.071 260.469 133.206 260.45 134.348C260.431 135.491 260.186 136.618 259.73 137.665C259.273 138.712 258.615 139.659 257.791 140.451C256.968 141.243 255.996 141.864 254.932 142.279V142.239Z" fill="#191919"/>
<path opacity="0.1" d="M289.05 135.999L277.9 107.579C277.181 105.731 276.085 104.053 274.681 102.652C273.276 101.252 271.595 100.16 269.745 99.4462C267.894 98.7327 265.915 98.4134 263.934 98.5086C261.953 98.6039 260.014 99.1116 258.24 99.9993L252.43 102.999L248.53 104.999L238.25 110.169C235.097 111.759 232.647 114.464 231.377 117.76C230.108 121.055 230.109 124.705 231.38 127.999L241 152.599C242.298 155.904 244.782 158.606 247.967 160.176C251.152 161.747 254.808 162.072 258.22 161.089L279.73 154.889C281.432 154.399 283.027 153.591 284.43 152.509C285.484 151.715 286.417 150.772 287.2 149.709C288.652 147.771 289.584 145.494 289.908 143.095C290.231 140.695 289.936 138.253 289.05 135.999ZM254.93 142.259C253.334 142.883 251.589 143.019 249.916 142.651C248.242 142.284 246.715 141.429 245.527 140.194C244.34 138.959 243.544 137.4 243.242 135.713C242.94 134.027 243.144 132.288 243.829 130.718C244.513 129.147 245.648 127.815 247.09 126.889C248.531 125.963 250.215 125.485 251.928 125.515C253.641 125.545 255.307 126.082 256.715 127.058C258.123 128.034 259.211 129.406 259.84 130.999C260.262 132.062 260.47 133.198 260.452 134.341C260.433 135.484 260.189 136.613 259.732 137.661C259.276 138.709 258.617 139.657 257.793 140.45C256.968 141.242 255.996 141.864 254.93 142.279V142.259Z" fill="white"/>
<path d="M258.442 101.919L239.692 111.339C236.717 112.832 234.408 115.383 233.217 118.491C232.025 121.599 232.038 125.04 233.252 128.139L242.302 151.199C243.511 154.306 245.838 156.849 248.826 158.329C251.814 159.809 255.247 160.119 258.452 159.199L278.612 153.379C280.397 152.864 282.054 151.983 283.479 150.791C284.904 149.599 286.064 148.123 286.886 146.457C287.707 144.791 288.172 142.972 288.251 141.116C288.329 139.26 288.02 137.408 287.342 135.679L276.892 108.999C276.215 107.267 275.183 105.695 273.864 104.384C272.545 103.073 270.966 102.052 269.23 101.386C267.494 100.719 265.637 100.423 263.78 100.514C261.922 100.606 260.104 101.085 258.442 101.919ZM243.692 137.369C243.067 135.773 242.929 134.027 243.296 132.352C243.663 130.677 244.519 129.149 245.754 127.96C246.99 126.771 248.55 125.976 250.238 125.674C251.925 125.372 253.665 125.577 255.236 126.263C256.807 126.949 258.139 128.086 259.064 129.53C259.99 130.973 260.466 132.658 260.433 134.373C260.401 136.087 259.861 137.753 258.882 139.16C257.902 140.567 256.528 141.653 254.932 142.279C253.872 142.696 252.739 142.901 251.6 142.88C250.461 142.859 249.337 142.613 248.293 142.157C247.249 141.701 246.305 141.043 245.515 140.221C244.726 139.4 244.106 138.431 243.692 137.369Z" fill="#191919"/>
<path opacity="0.1" d="M258.442 101.919L239.692 111.339C236.717 112.832 234.408 115.383 233.217 118.491C232.025 121.599 232.038 125.04 233.252 128.139L242.302 151.199C243.511 154.306 245.838 156.849 248.826 158.329C251.814 159.809 255.247 160.119 258.452 159.199L278.612 153.379C280.397 152.864 282.054 151.983 283.479 150.791C284.904 149.599 286.064 148.123 286.886 146.457C287.707 144.791 288.172 142.972 288.251 141.116C288.329 139.26 288.02 137.408 287.342 135.679L276.892 108.999C276.215 107.267 275.183 105.695 273.864 104.384C272.545 103.073 270.966 102.052 269.23 101.386C267.494 100.719 265.637 100.423 263.78 100.514C261.922 100.606 260.104 101.085 258.442 101.919ZM243.692 137.369C243.067 135.773 242.929 134.027 243.296 132.352C243.663 130.677 244.519 129.149 245.754 127.96C246.99 126.771 248.55 125.976 250.238 125.674C251.925 125.372 253.665 125.577 255.236 126.263C256.807 126.949 258.139 128.086 259.064 129.53C259.99 130.973 260.466 132.658 260.433 134.373C260.401 136.087 259.861 137.753 258.882 139.16C257.902 140.567 256.528 141.653 254.932 142.279C253.872 142.696 252.739 142.901 251.6 142.88C250.461 142.859 249.337 142.613 248.293 142.157C247.249 141.701 246.305 141.043 245.515 140.221C244.726 139.4 244.106 138.431 243.692 137.369Z" fill="#191919"/>
<path d="M351.62 92.9992L351.05 93.9992L350.73 94.5792L349.82 96.2292L350.2 100.459C350.22 100.638 350.2 100.819 350.14 100.989C350.078 101.173 349.977 101.342 349.845 101.483C349.712 101.625 349.55 101.736 349.37 101.809L341.47 104.899C341.289 104.971 341.095 105.001 340.901 104.987C340.707 104.974 340.519 104.916 340.35 104.819C340.238 104.763 340.137 104.689 340.05 104.599L335.58 100.049L329.22 102.539L330.14 104.889L323.79 107.369L325.3 111.239L320.63 113.069C320.443 113.142 320.244 113.174 320.044 113.163C319.844 113.153 319.648 113.1 319.47 113.009C319.348 112.951 319.237 112.873 319.14 112.779L316.45 110.249L310.09 112.729L311.61 116.599L304.93 119.219L306.45 123.099C306.51 123.25 306.539 123.411 306.536 123.574C306.533 123.736 306.498 123.896 306.433 124.045C306.368 124.194 306.274 124.328 306.157 124.44C306.04 124.553 305.901 124.641 305.75 124.699L287.46 131.859L279.52 111.609L345.7 85.6992L346.7 86.2292L350.05 87.9592C350.492 88.1785 350.885 88.4851 351.205 88.8605C351.525 89.2359 351.766 89.6724 351.913 90.1435C352.06 90.6145 352.109 91.1105 352.059 91.6013C352.009 92.0922 351.859 92.5677 351.62 92.9992Z" fill="#191919"/>
<g opacity="0.1">
<path d="M351.62 92.9992L351.05 93.9992L350.73 94.5792L349.82 96.2292L350.2 100.459C350.22 100.638 350.2 100.819 350.14 100.989C350.078 101.173 349.977 101.342 349.845 101.483C349.712 101.625 349.55 101.736 349.37 101.809L341.47 104.899C341.289 104.971 341.095 105.001 340.901 104.987C340.707 104.974 340.519 104.916 340.35 104.819C340.238 104.763 340.137 104.689 340.05 104.599L335.58 100.049L329.22 102.539L330.14 104.889L323.79 107.369L325.3 111.239L320.63 113.069C320.443 113.142 320.244 113.174 320.044 113.163C319.844 113.153 319.648 113.1 319.47 113.009C319.348 112.951 319.237 112.873 319.14 112.779L316.45 110.249L310.09 112.729L311.61 116.599L304.93 119.219L306.45 123.099C306.51 123.25 306.539 123.411 306.536 123.574C306.533 123.736 306.498 123.896 306.433 124.045C306.368 124.194 306.274 124.328 306.157 124.44C306.04 124.553 305.901 124.641 305.75 124.699L287.46 131.859L279.52 111.609L345.7 85.6992L346.7 86.2292L350.05 87.9592C350.492 88.1785 350.885 88.4851 351.205 88.8605C351.525 89.2359 351.766 89.6724 351.913 90.1435C352.06 90.6145 352.109 91.1105 352.059 91.6013C352.009 92.0922 351.859 92.5677 351.62 92.9992Z" fill="white"/>
</g>
<path d="M351.359 90.7186L280.599 118.419L278.539 113.219L345.999 86.8086L349.359 88.5286C350.639 89.1886 351.369 89.7986 351.359 90.7186Z" fill="#191919"/>
<path opacity="0.1" d="M351.359 90.7186L280.599 118.419L278.539 113.219L345.999 86.8086L349.359 88.5286C350.639 89.1886 351.369 89.7986 351.359 90.7186Z" fill="black"/>
<path d="M350.001 94.6185L349.321 96.1585C349.315 96.1849 349.315 96.2121 349.321 96.2385L349.711 100.418C349.736 100.567 349.736 100.72 349.711 100.868C349.704 100.894 349.692 100.917 349.674 100.936C349.657 100.955 349.635 100.97 349.611 100.978L341.021 104.358C340.999 104.371 340.975 104.377 340.951 104.377C340.926 104.377 340.902 104.371 340.881 104.358C340.795 104.307 340.717 104.243 340.651 104.168L335.731 99.2285C335.706 99.2113 335.676 99.2021 335.646 99.2021C335.615 99.2021 335.586 99.2113 335.561 99.2285L328.561 101.968C328.522 101.986 328.492 102.017 328.475 102.056C328.459 102.095 328.457 102.139 328.471 102.178L329.301 104.288C329.309 104.308 329.313 104.329 329.313 104.351C329.313 104.372 329.308 104.393 329.3 104.412C329.291 104.432 329.279 104.45 329.264 104.464C329.249 104.479 329.231 104.491 329.211 104.498L323.261 106.838C323.241 106.846 323.223 106.858 323.207 106.873C323.192 106.887 323.18 106.905 323.172 106.925C323.163 106.944 323.159 106.965 323.159 106.986C323.159 107.008 323.163 107.029 323.171 107.048L324.601 110.678C324.61 110.698 324.616 110.719 324.616 110.741C324.617 110.763 324.613 110.784 324.604 110.804C324.596 110.824 324.583 110.842 324.567 110.857C324.551 110.871 324.531 110.882 324.511 110.888L320.151 112.608C320.129 112.621 320.105 112.627 320.081 112.627C320.056 112.627 320.032 112.621 320.011 112.608C319.919 112.557 319.835 112.493 319.761 112.418L316.561 109.478C316.536 109.464 316.509 109.457 316.481 109.457C316.453 109.457 316.425 109.464 316.401 109.478L309.471 112.208C309.45 112.215 309.431 112.226 309.415 112.24C309.399 112.255 309.386 112.273 309.377 112.293C309.369 112.313 309.365 112.334 309.365 112.356C309.366 112.378 309.371 112.399 309.381 112.418L310.841 116.138C310.85 116.158 310.856 116.179 310.856 116.201C310.857 116.223 310.853 116.244 310.844 116.264C310.836 116.284 310.823 116.302 310.807 116.317C310.791 116.331 310.771 116.342 310.751 116.348L284.141 126.818C284.102 126.832 284.06 126.83 284.023 126.813C283.986 126.796 283.956 126.766 283.941 126.728L281.201 119.998C281.187 119.959 281.189 119.915 281.205 119.876C281.222 119.837 281.252 119.806 281.291 119.788L350.631 92.4985C350.661 92.4872 350.693 92.4852 350.724 92.4928C350.756 92.5003 350.784 92.517 350.805 92.5407C350.827 92.5644 350.841 92.594 350.845 92.6257C350.85 92.6574 350.845 92.6897 350.831 92.7185L350.001 94.6185Z" fill="#191919"/>
<path opacity="0.1" d="M350.001 94.6185L349.321 96.1585C349.315 96.1849 349.315 96.2121 349.321 96.2385L349.711 100.418C349.736 100.567 349.736 100.72 349.711 100.868C349.704 100.894 349.692 100.917 349.674 100.936C349.657 100.955 349.635 100.97 349.611 100.978L341.021 104.358C340.999 104.371 340.975 104.377 340.951 104.377C340.926 104.377 340.902 104.371 340.881 104.358C340.795 104.307 340.717 104.243 340.651 104.168L335.731 99.2285C335.706 99.2113 335.676 99.2021 335.646 99.2021C335.615 99.2021 335.586 99.2113 335.561 99.2285L328.561 101.968C328.522 101.986 328.492 102.017 328.475 102.056C328.459 102.095 328.457 102.139 328.471 102.178L329.301 104.288C329.309 104.308 329.313 104.329 329.313 104.351C329.313 104.372 329.308 104.393 329.3 104.412C329.291 104.432 329.279 104.45 329.264 104.464C329.249 104.479 329.231 104.491 329.211 104.498L323.261 106.838C323.241 106.846 323.223 106.858 323.207 106.873C323.192 106.887 323.18 106.905 323.172 106.925C323.163 106.944 323.159 106.965 323.159 106.986C323.159 107.008 323.163 107.029 323.171 107.048L324.601 110.678C324.61 110.698 324.616 110.719 324.616 110.741C324.617 110.763 324.613 110.784 324.604 110.804C324.596 110.824 324.583 110.842 324.567 110.857C324.551 110.871 324.531 110.882 324.511 110.888L320.151 112.608C320.129 112.621 320.105 112.627 320.081 112.627C320.056 112.627 320.032 112.621 320.011 112.608C319.919 112.557 319.835 112.493 319.761 112.418L316.561 109.478C316.536 109.464 316.509 109.457 316.481 109.457C316.453 109.457 316.425 109.464 316.401 109.478L309.471 112.208C309.45 112.215 309.431 112.226 309.415 112.24C309.399 112.255 309.386 112.273 309.377 112.293C309.369 112.313 309.365 112.334 309.365 112.356C309.366 112.378 309.371 112.399 309.381 112.418L310.841 116.138C310.85 116.158 310.856 116.179 310.856 116.201C310.857 116.223 310.853 116.244 310.844 116.264C310.836 116.284 310.823 116.302 310.807 116.317C310.791 116.331 310.771 116.342 310.751 116.348L284.141 126.818C284.102 126.832 284.06 126.83 284.023 126.813C283.986 126.796 283.956 126.766 283.941 126.728L281.201 119.998C281.187 119.959 281.189 119.915 281.205 119.876C281.222 119.837 281.252 119.806 281.291 119.788L350.631 92.4985C350.661 92.4872 350.693 92.4852 350.724 92.4928C350.756 92.5003 350.784 92.517 350.805 92.5407C350.827 92.5644 350.841 92.594 350.845 92.6257C350.85 92.6574 350.845 92.6897 350.831 92.7185L350.001 94.6185Z" fill="black"/>
<path opacity="0.3" d="M248.07 123.999C246.07 124.785 244.348 126.147 243.121 127.911C241.894 129.676 241.218 131.764 241.178 133.913C241.137 136.061 241.735 138.174 242.895 139.983C244.055 141.792 245.725 143.217 247.694 144.077C249.663 144.937 251.843 145.195 253.959 144.817C256.074 144.438 258.03 143.441 259.579 141.952C261.129 140.463 262.202 138.547 262.663 136.448C263.124 134.349 262.952 132.161 262.17 130.159C261.652 128.827 260.876 127.609 259.885 126.578C258.895 125.546 257.711 124.72 256.401 124.148C255.09 123.575 253.68 123.267 252.25 123.242C250.821 123.217 249.4 123.474 248.07 123.999ZM254.93 142.299C253.333 142.925 251.587 143.064 249.911 142.697C248.236 142.33 246.707 141.475 245.518 140.239C244.329 139.003 243.533 137.442 243.231 135.754C242.929 134.066 243.135 132.326 243.822 130.754C244.509 129.183 245.647 127.85 247.091 126.926C248.535 126.001 250.221 125.525 251.936 125.559C253.651 125.593 255.317 126.134 256.724 127.115C258.131 128.096 259.215 129.472 259.84 131.069C260.671 133.207 260.621 135.587 259.701 137.689C258.78 139.79 257.065 141.44 254.93 142.279V142.299Z" fill="white"/>
<path opacity="0.1" d="M287.21 149.7C286.431 150.762 285.501 151.706 284.45 152.5L248.52 104.91C248.52 104.91 251.69 103.32 252.41 102.84C252.416 102.893 252.433 102.944 252.46 102.99C254 106.32 282.24 143 287.21 149.7Z" fill="white"/>
<path opacity="0.1" d="M281.999 154C281.779 154.1 271.309 157.29 271.309 157.29L259.639 141.84C261.4 140.08 262.503 137.769 262.765 135.293C263.026 132.817 262.429 130.326 261.075 128.237C259.72 126.148 257.689 124.588 255.322 123.816C252.954 123.045 250.394 123.11 248.069 124C247.586 124.181 247.121 124.405 246.679 124.67L236.359 111C236.359 111 245.429 106.68 246.429 106C246.699 107.93 281.999 153.6 281.999 154Z" fill="white"/>
<path d="M239.189 78.9388C238.602 79.635 238.183 80.4565 237.964 81.3401C237.745 82.2237 237.731 83.1459 237.925 84.0356C238.118 84.9252 238.513 85.7587 239.078 86.4718C239.644 87.1849 240.367 87.7586 241.189 88.1488C242.049 88.5488 242.989 88.7388 243.829 89.1488C244.268 89.3257 244.655 89.6097 244.955 89.9748C245.256 90.3399 245.46 90.7745 245.549 91.2388C245.649 92.2388 244.879 93.2388 244.959 94.2388C245.045 94.707 245.227 95.1522 245.494 95.5464C245.761 95.9406 246.106 96.2751 246.509 96.5288C247.319 97.035 248.003 97.7189 248.509 98.5288C248.623 98.7345 248.693 98.9614 248.715 99.1954C248.737 99.4294 248.711 99.6654 248.638 99.8887C248.564 100.112 248.446 100.318 248.29 100.493C248.133 100.669 247.942 100.81 247.729 100.909C247.621 101.099 247.565 101.315 247.565 101.534C247.565 101.753 247.621 101.968 247.729 102.159C247.857 102.289 248.026 102.372 248.207 102.396C248.388 102.419 248.572 102.382 248.729 102.289C249.44 101.844 250.03 101.231 250.447 100.504C250.864 99.7762 251.095 98.957 251.119 98.1188C251.11 97.2883 250.866 96.4772 250.417 95.7786C249.968 95.0799 249.331 94.522 248.579 94.1688C248.484 93.8696 248.45 93.5542 248.479 93.2415C248.508 92.9288 248.6 92.6252 248.749 92.3488C249.199 91.2088 249.659 90.0588 250.119 88.9188C250.193 88.6392 250.205 88.3468 250.155 88.062C250.105 87.7771 249.994 87.5065 249.829 87.2688C249.488 86.9255 249.075 86.6625 248.619 86.4988L245.669 85.2388C244.559 84.7588 241.249 80.3388 245.169 79.0488C244.933 78.5485 244.564 78.123 244.102 77.8195C243.639 77.5159 243.102 77.3461 242.549 77.3288C241.899 77.2973 241.252 77.428 240.666 77.7091C240.079 77.9902 239.572 78.4128 239.189 78.9388Z" fill="#263238"/>
<path d="M244.538 74.1795L244.238 77.6696C245.238 76.0696 247.028 72.9595 246.968 73.0795C246.198 73.4995 245.308 73.7595 244.538 74.1795Z" fill="#263238"/>
<path d="M245.859 76.0901L249.959 72.3001C249.425 72.1152 248.85 72.0847 248.3 72.2121C247.75 72.3394 247.247 72.6195 246.849 73.0201C246.879 72.9301 246.239 74.8701 245.859 76.0901Z" fill="#263238"/>
<path d="M237.529 170.699C232.199 177.319 233.969 182.389 226.609 194.109C235.899 200.989 246.079 202.109 258.729 201.109C260.229 198.459 260.979 195.699 262.479 193.049C264.619 195.709 266.339 197.939 268.479 200.609C275.109 199.609 282.989 197.699 288.229 194.319C283.599 189.009 280.719 182.379 277.759 176.529C276.369 173.779 276.949 172.629 273.259 169.029C261.509 169.569 249.859 169.849 238.119 170.399C238.439 170.449 237.219 170.679 237.529 170.699Z" fill="#263238"/>
<path d="M239 169.59L238.27 172.68C238.16 172.93 238.45 173.16 238.84 173.13L271.23 171.7C271.353 171.714 271.478 171.686 271.582 171.618C271.686 171.55 271.763 171.448 271.8 171.33L271.97 168.26C271.97 168.06 271.7 167.88 271.36 167.91L239.55 169.31C239.442 169.305 239.334 169.329 239.238 169.378C239.142 169.427 239.06 169.5 239 169.59Z" fill="#191919"/>
<path d="M239 169.59L238.27 172.68C238.16 172.93 238.45 173.16 238.84 173.13L271.23 171.7C271.353 171.714 271.478 171.686 271.582 171.618C271.686 171.55 271.763 171.448 271.8 171.33L271.97 168.26C271.97 168.06 271.7 167.88 271.36 167.91L239.55 169.31C239.442 169.305 239.334 169.329 239.238 169.378C239.142 169.427 239.06 169.5 239 169.59Z" fill="#191919"/>
<path d="M246.132 173.14H245.192C245.012 173.14 244.862 173.06 244.872 172.95L245.122 168.95C245.122 168.83 245.292 168.73 245.472 168.73L246.422 168.68C246.592 168.68 246.742 168.76 246.732 168.88L246.482 172.88C246.472 173 246.312 173.13 246.132 173.14Z" fill="#263238"/>
<path d="M269.51 172.129H268.57C268.39 172.129 268.24 172.049 268.25 171.939L268.5 167.939C268.5 167.819 268.67 167.709 268.85 167.709H269.79C269.97 167.709 270.11 167.789 270.1 167.899L269.85 171.899C269.85 171.999 269.7 172.119 269.51 172.129Z" fill="#263238"/>
<path d="M250.309 153.718C250.369 154.008 252.879 158.008 254.859 157.718C255.141 157.68 255.427 157.716 255.691 157.823C255.954 157.93 256.185 158.104 256.359 158.328C257.149 159.328 257.629 159.948 258.159 160.628C258.579 161.165 259.17 161.543 259.833 161.699C260.497 161.855 261.193 161.781 261.809 161.488C262.179 161.318 262.549 161.128 262.919 160.928C263.516 160.616 263.991 160.112 264.267 159.497C264.543 158.882 264.603 158.192 264.439 157.538C264.072 156.064 263.504 154.647 262.749 153.328C262.526 152.859 262.181 152.458 261.749 152.168C259.671 151.373 257.494 150.862 255.279 150.648C253.579 150.718 251.919 152.998 250.309 153.718Z" fill="#E8BFBF"/>
<path d="M255.381 150.529C255.381 150.529 228.801 142.479 223.061 147.839C219.691 150.989 221.281 153.969 223.171 155.839C224.571 157.269 227.621 156.919 229.621 156.839L250.561 154.779L255.381 150.529Z" fill="#E8BFBF"/>
<path d="M240.098 146.849C239.978 146.133 239.683 145.459 239.237 144.886C238.792 144.314 238.212 143.861 237.548 143.569C236.216 143.005 234.8 142.667 233.358 142.569L223.358 141.299C221.561 143.515 220.551 146.266 220.488 149.119C220.559 151.878 221.567 154.53 223.348 156.639C224.948 153.549 227.058 150.369 230.178 148.829C233.298 147.289 236.678 146.229 240.098 146.849Z" fill="#263238"/>
<path opacity="0.1" d="M233.25 98.2994C233.25 98.2394 233.25 98.2094 233.25 98.1994C233.46 98.1394 233.43 98.1794 233.25 98.2994Z" fill="white"/>
<path d="M299.289 55.2607L306.689 69.0007L336.909 43.3407C336.962 43.2946 336.996 43.2303 337.003 43.1605C337.011 43.0908 336.992 43.0206 336.951 42.964C336.909 42.9074 336.848 42.8685 336.779 42.8549C336.71 42.8413 336.639 42.8541 336.579 42.8907L308.249 61.5907L303.889 53.0707L299.289 55.2607Z" fill="#191919"/>
<path d="M282.59 82.63L294.81 69C292.978 67.2165 291.516 65.0894 290.507 62.7404C289.498 60.3913 288.962 57.8664 288.93 55.31C288.93 42.73 302.09 32.5 318.27 32.5C334.45 32.5 347.62 42.73 347.62 55.31C347.62 67.89 334.45 78.11 318.27 78.11C312.575 78.159 306.954 76.824 301.89 74.22L282.59 82.63ZM318.27 33.82C302.81 33.82 290.27 43.47 290.27 55.33C290.311 57.819 290.857 60.2737 291.877 62.5446C292.896 64.8156 294.367 66.8555 296.2 68.54L296.64 68.97L287.59 79.06L302 72.8L302.28 72.95C307.212 75.5419 312.708 76.8748 318.28 76.83C333.75 76.83 346.33 67.19 346.33 55.33C346.33 43.47 333.74 33.82 318.27 33.82Z" fill="#191919"/>
</g>
</g>
<defs>
<clipPath id="clip0_6560_16442">
<rect width="500" height="372" fill="white"/>
</clipPath>
</defs>
</svg>
